G04*
G04 #@! TF.GenerationSoftware,Altium Limited,Altium Designer,20.2.6 (244)*
G04*
G04 Layer_Color=32768*
%FSLAX25Y25*%
%MOIN*%
G70*
G04*
G04 #@! TF.SameCoordinates,AF831D56-8FB5-4C83-99E9-C392C7947E84*
G04*
G04*
G04 #@! TF.FilePolarity,Positive*
G04*
G01*
G75*
%ADD10C,0.00787*%
%ADD12C,0.01000*%
%ADD20C,0.00500*%
%ADD22C,0.00394*%
%ADD327C,0.00197*%
%ADD328C,0.00098*%
%ADD329C,0.00315*%
D10*
X296244Y108112D02*
X296810Y107288D01*
X297403Y106483D01*
X298024Y105699D01*
X298670Y104936D01*
X299342Y104196D01*
X300039Y103479D01*
X300760Y102785D01*
X301504Y102117D01*
X302270Y101474D01*
X303057Y100857D01*
X303865Y100268D01*
X304692Y99706D01*
X305538Y99173D01*
X306401Y98668D01*
X307281Y98193D01*
X308176Y97748D01*
X309086Y97334D01*
X310010Y96950D01*
X310946Y96598D01*
X311893Y96278D01*
X312851Y95991D01*
X313818Y95736D01*
X314792Y95513D01*
X315774Y95324D01*
X316762Y95169D01*
X317755Y95046D01*
X318751Y94958D01*
X319749Y94903D01*
X320749Y94882D01*
X321749Y94895D01*
X322747Y94942D01*
X323744Y95022D01*
X324738Y95137D01*
X325727Y95285D01*
X326710Y95466D01*
X327687Y95680D01*
X328655Y95928D01*
X329615Y96208D01*
X330565Y96520D01*
X331504Y96865D01*
X332431Y97241D01*
X333344Y97648D01*
X334243Y98085D01*
X335126Y98554D01*
X335994Y99051D01*
X336844Y99578D01*
X337675Y100133D01*
X338488Y100716D01*
X339280Y101327D01*
X340051Y101963D01*
X340800Y102626D01*
X341526Y103313D01*
X342229Y104025D01*
X342907Y104760D01*
X343559Y105517D01*
X344186Y106297D01*
X344786Y107097D01*
X345358Y107916D01*
X345903Y108755D01*
X346418Y109612D01*
X346905Y110485D01*
X347361Y111375D01*
X347788Y112280D01*
X348183Y113198D01*
X348547Y114129D01*
X348879Y115073D01*
X349179Y116026D01*
X349447Y116990D01*
X349681Y117962D01*
X349883Y118941D01*
X350052Y119927D01*
X350187Y120918D01*
X350288Y121913D01*
X350356Y122910D01*
X350390Y123909D01*
Y124909D01*
X350356Y125909D01*
X350288Y126907D01*
X350187Y127901D01*
X350052Y128892D01*
X349883Y129878D01*
X349681Y130857D01*
X349447Y131829D01*
X349179Y132792D01*
X348879Y133746D01*
X348547Y134689D01*
X348183Y135621D01*
X347787Y136539D01*
X347361Y137444D01*
X346905Y138334D01*
X346418Y139207D01*
X345903Y140064D01*
X345358Y140903D01*
X344786Y141723D01*
X344186Y142523D01*
X343559Y143302D01*
X342906Y144059D01*
X342229Y144794D01*
X341526Y145506D01*
X340800Y146193D01*
X340051Y146856D01*
X339280Y147493D01*
X338488Y148103D01*
X337675Y148686D01*
X336844Y149241D01*
X335994Y149768D01*
X335126Y150265D01*
X334243Y150733D01*
X333344Y151171D01*
X332430Y151578D01*
X331504Y151954D01*
X330565Y152299D01*
X329615Y152611D01*
X328655Y152891D01*
X327686Y153139D01*
X326710Y153353D01*
X325726Y153534D01*
X324737Y153682D01*
X323744Y153797D01*
X322747Y153877D01*
X321748Y153924D01*
X320749Y153937D01*
X319749Y153916D01*
X318751Y153861D01*
X317755Y153773D01*
X316762Y153650D01*
X315774Y153495D01*
X314792Y153305D01*
X313817Y153083D01*
X312851Y152828D01*
X311893Y152540D01*
X310946Y152220D01*
X310010Y151869D01*
X309086Y151485D01*
X308176Y151071D01*
X307280Y150626D01*
X306401Y150151D01*
X305537Y149646D01*
X304692Y149113D01*
X303864Y148551D01*
X303057Y147961D01*
X302270Y147345D01*
X301504Y146702D01*
X300760Y146034D01*
X300039Y145340D01*
X299342Y144623D01*
X298670Y143883D01*
X298024Y143120D01*
X297403Y142336D01*
X296810Y141531D01*
X296244Y140707D01*
X349902Y129921D02*
X360236D01*
Y124409D02*
Y129921D01*
Y118898D02*
Y124409D01*
X349902Y118898D02*
X360236D01*
X288189Y129921D02*
Y141142D01*
X277559Y129921D02*
X288189D01*
X277559Y124409D02*
Y129921D01*
Y118898D02*
Y124409D01*
X277559Y118898D02*
X288189D01*
X296260Y140748D02*
Y150984D01*
X289665D02*
X296260D01*
X289665Y141142D02*
Y150984D01*
X288189Y141142D02*
X289665D01*
X288189Y107677D02*
Y118898D01*
Y107677D02*
X289665D01*
X289665Y97835D02*
Y107677D01*
Y97835D02*
X296260D01*
Y108071D01*
D12*
X100984Y348917D02*
X108465D01*
Y334350D02*
Y348917D01*
X100984Y334350D02*
Y348917D01*
Y334350D02*
X108465D01*
X8957Y156791D02*
Y182776D01*
Y156791D02*
X181398D01*
X4232Y182776D02*
X8957D01*
X4232D02*
Y200492D01*
X181398Y195768D02*
Y200492D01*
X358563D02*
Y218209D01*
X353839D02*
X358563D01*
X181398Y244193D02*
X353839D01*
Y218209D02*
Y244193D01*
X8957Y218209D02*
Y244193D01*
X181398D01*
X4232Y218209D02*
X8957D01*
X4232Y200492D02*
Y218209D01*
X358563Y182776D02*
Y200492D01*
X353839Y182776D02*
X358563D01*
X181398Y156791D02*
X353839D01*
Y182776D01*
X269980Y146260D02*
Y152067D01*
X237402D02*
X269980D01*
Y140453D02*
Y146260D01*
X237402D02*
Y152067D01*
Y140453D02*
Y146260D01*
Y140453D02*
X269980D01*
X92618Y165650D02*
X105020D01*
X92618Y135925D02*
Y165650D01*
X105020Y135925D02*
Y165650D01*
X92618Y135925D02*
X105020D01*
X78543Y160236D02*
X90945D01*
X78543Y130512D02*
Y160236D01*
X90945Y130512D02*
Y160236D01*
X78543Y130512D02*
X90945D01*
D20*
X472933Y177657D02*
Y181102D01*
Y177657D02*
X478740D01*
Y184547D02*
X484547D01*
Y181102D02*
Y184547D01*
X472933Y181102D02*
Y184547D01*
X478740D01*
Y177657D02*
X484547D01*
Y181102D01*
X240059Y41043D02*
X243504D01*
X240059Y35236D02*
Y41043D01*
X246949Y29429D02*
Y35236D01*
X243504Y29429D02*
X246949D01*
X243504Y41043D02*
X246949D01*
Y35236D02*
Y41043D01*
X240059Y29429D02*
Y35236D01*
Y29429D02*
X243504D01*
X114961Y35827D02*
X118405D01*
Y41634D01*
X111516D02*
Y47441D01*
X114961D01*
X111516Y35827D02*
X114961D01*
X111516D02*
Y41634D01*
X118405D02*
Y47441D01*
X114961D02*
X118405D01*
X134252Y-62402D02*
Y27205D01*
X114961D02*
X134252D01*
X95669Y-62402D02*
X134252D01*
X95669Y27205D02*
X114961D01*
X95669Y-62402D02*
Y27205D01*
X91142Y345965D02*
X94685D01*
Y339075D02*
Y345965D01*
X91142Y339075D02*
X94685D01*
X91142D02*
Y345965D01*
X167224Y344390D02*
Y347933D01*
X174114D01*
Y344390D02*
Y347933D01*
X167224Y344390D02*
X174114D01*
X167224Y349902D02*
Y353445D01*
X174114D01*
Y349902D02*
Y353445D01*
X167224Y349902D02*
X174114D01*
X94980Y393504D02*
X101870D01*
X94980D02*
Y397047D01*
X101870D01*
Y393504D02*
Y397047D01*
X57776Y349409D02*
Y374606D01*
X66240D01*
X57776Y349409D02*
X66240D01*
X87894Y374606D02*
X96358D01*
X87894Y349409D02*
X96358D01*
X66240Y340808D02*
Y349409D01*
Y374606D02*
Y383308D01*
X87894Y374606D02*
Y383308D01*
Y340808D02*
Y349409D01*
X96358D02*
Y374606D01*
X66240Y383308D02*
X87894D01*
X66240Y340808D02*
X87894D01*
X54035Y325394D02*
Y328937D01*
X60925D01*
Y325394D02*
Y328937D01*
X54035Y325394D02*
X60925D01*
X209744Y319606D02*
Y323150D01*
X202854D02*
X209744D01*
X202854Y319606D02*
Y323150D01*
Y319606D02*
X209744D01*
X45276Y323524D02*
X51378D01*
Y317717D02*
Y323524D01*
X39173Y311910D02*
Y317717D01*
Y311910D02*
X45276D01*
X39173Y323524D02*
X45276D01*
X39173Y317717D02*
Y323524D01*
X51378Y311910D02*
Y317717D01*
X45276Y311910D02*
X51378D01*
X57087Y262500D02*
X63189D01*
Y268307D01*
X50984D02*
Y274114D01*
X57087D01*
X50984Y262500D02*
X57087D01*
X50984D02*
Y268307D01*
X63189D02*
Y274114D01*
X57087D02*
X63189D01*
X50000Y268307D02*
Y273031D01*
X57087D01*
Y263583D02*
X64173D01*
Y268307D01*
X50000Y263583D02*
Y268307D01*
Y263583D02*
X57087D01*
Y273031D02*
X64173D01*
Y268307D02*
Y273031D01*
X51968Y317618D02*
Y322342D01*
X44882D02*
X51968D01*
X37795Y312894D02*
X44882D01*
X37795D02*
Y317618D01*
X51968Y312894D02*
Y317618D01*
X44882Y312894D02*
X51968D01*
X37795Y322342D02*
X44882D01*
X37795Y317618D02*
Y322342D01*
X66240Y287362D02*
X87894D01*
X66240Y338937D02*
X87894D01*
X96358Y300551D02*
Y325748D01*
X87894Y287362D02*
Y300551D01*
Y325748D02*
Y338937D01*
X66240Y325748D02*
Y338937D01*
Y287362D02*
Y300551D01*
X87894D02*
X96358D01*
X87894Y325748D02*
X96358D01*
X57775Y300551D02*
X66240D01*
X57775Y325748D02*
X66240D01*
X57775Y300551D02*
Y325748D01*
X109587Y369783D02*
X113721D01*
X187343D02*
X191476D01*
X113721D02*
Y397244D01*
Y397244D02*
X150531D01*
X187343Y369783D02*
Y397244D01*
X150531Y397244D02*
X187343D01*
X191476Y290157D02*
Y369783D01*
X150138Y290157D02*
X191476D01*
X109587D02*
X150531D01*
X109587D02*
Y369783D01*
X73721Y128740D02*
X81496D01*
X89272D01*
X89272Y116535D02*
Y122638D01*
Y128740D01*
X73721Y116535D02*
X81496D01*
X73721D02*
Y122638D01*
X81496Y116535D02*
X89272D01*
X73721Y122638D02*
Y128740D01*
X235945Y22638D02*
Y28346D01*
X225590Y22638D02*
X235945D01*
X215236Y34055D02*
X225590D01*
X215236Y28346D02*
Y34055D01*
X235945Y28346D02*
Y34055D01*
X225590D02*
X235945D01*
X215236Y22638D02*
X225590D01*
X215236D02*
Y28346D01*
X136909Y235335D02*
Y241437D01*
X142717D01*
Y229232D02*
X148524D01*
Y235335D01*
X136909Y229232D02*
Y235335D01*
Y229232D02*
X142717D01*
Y241437D02*
X148524D01*
Y235335D02*
Y241437D01*
X150531Y272441D02*
X155256D01*
Y265354D02*
Y272441D01*
X145807Y258268D02*
Y265354D01*
Y258268D02*
X150531D01*
X145807Y272441D02*
X150531D01*
X145807Y265354D02*
Y272441D01*
X155256Y258268D02*
Y265354D01*
X150531Y258268D02*
X155256D01*
X390488Y20162D02*
Y27445D01*
Y20162D02*
X398854D01*
Y34728D02*
X407220D01*
Y27445D02*
Y34728D01*
Y20162D02*
Y27445D01*
X398854Y20162D02*
X407220D01*
X390488Y34728D02*
X398854D01*
X390488Y27445D02*
Y34728D01*
X451870Y34252D02*
Y41732D01*
X437303Y34252D02*
X451870D01*
X437303Y41732D02*
X451870D01*
X437303Y34252D02*
Y41732D01*
X190748Y19783D02*
Y25886D01*
X196555D01*
Y13681D02*
X202362D01*
Y19783D01*
X190748Y13681D02*
Y19783D01*
Y13681D02*
X196555D01*
Y25886D02*
X202362D01*
Y19783D02*
Y25886D01*
X75394Y39075D02*
X81496D01*
X87598Y46850D02*
Y54626D01*
X81496Y39075D02*
X87598D01*
Y39075D02*
Y46850D01*
X75394Y54626D02*
X81496D01*
X87598D01*
X75394Y46850D02*
Y54626D01*
Y39075D02*
Y46850D01*
X501476Y129724D02*
Y145079D01*
X495768Y129724D02*
X501476D01*
X490059Y160433D02*
X495768D01*
X490059Y145079D02*
Y160433D01*
Y129724D02*
Y145079D01*
Y129724D02*
X495768D01*
Y160433D02*
X501476D01*
Y145079D02*
Y160433D01*
X341653Y1185D02*
X341654Y22046D01*
X279842Y974D02*
X341653Y1185D01*
X279842Y21836D02*
X341654Y22046D01*
X279842Y974D02*
X279842Y21836D01*
X164469Y221457D02*
Y228543D01*
Y221457D02*
X166240Y219685D01*
Y213287D02*
Y219685D01*
X159941Y224902D02*
Y228543D01*
X164469D01*
X154921Y224902D02*
X159941D01*
X149902Y201673D02*
X154921D01*
X145374Y198031D02*
X149902D01*
Y201673D01*
X143602Y206890D02*
Y213287D01*
Y206890D02*
X145374Y205118D01*
Y198031D02*
Y205118D01*
X164469Y198031D02*
Y205118D01*
X166240Y206890D01*
Y213287D01*
X159941Y198031D02*
Y201673D01*
Y198031D02*
X164469D01*
X154921Y201673D02*
X159941D01*
X149902Y224902D02*
X154921D01*
X145374Y228543D02*
X149902D01*
Y224902D02*
Y228543D01*
X143602Y213287D02*
Y219685D01*
X145374Y221457D01*
Y228543D01*
X140256Y198031D02*
Y205118D01*
X142028Y206890D01*
Y213287D01*
X135728Y198031D02*
Y201673D01*
Y198031D02*
X140256D01*
X130709Y201673D02*
X135728D01*
X125689Y224902D02*
X130709D01*
X121161Y228543D02*
X125689D01*
Y224902D02*
Y228543D01*
X119390Y213287D02*
Y219685D01*
X121161Y221457D01*
Y228543D01*
X140256Y221457D02*
Y228543D01*
Y221457D02*
X142028Y219685D01*
Y213287D02*
Y219685D01*
X135728Y224902D02*
Y228543D01*
X140256D01*
X130709Y224902D02*
X135728D01*
X125689Y201673D02*
X130709D01*
X121161Y198031D02*
X125689D01*
Y201673D01*
X119390Y206890D02*
Y213287D01*
Y206890D02*
X121161Y205118D01*
Y198031D02*
Y205118D01*
X103248Y275689D02*
X110335D01*
X112106Y277461D01*
X118504D01*
X103248Y271161D02*
X106890D01*
X103248D02*
Y275689D01*
X106890Y266142D02*
Y271161D01*
X130118Y261122D02*
Y266142D01*
X133760Y256594D02*
Y261122D01*
X130118D02*
X133760D01*
X118504Y254823D02*
X124902D01*
X126673Y256594D01*
X133760D01*
X126673Y275689D02*
X133760D01*
X124902Y277461D02*
X126673Y275689D01*
X118504Y277461D02*
X124902D01*
X130118Y271161D02*
X133760D01*
Y275689D01*
X130118Y266142D02*
Y271161D01*
X106890Y261122D02*
Y266142D01*
X103248Y256594D02*
Y261122D01*
X106890D01*
X112106Y254823D02*
X118504D01*
X110335Y256594D02*
X112106Y254823D01*
X103248Y256594D02*
X110335D01*
X166634D02*
X173721D01*
X175492Y254823D01*
X181890D01*
X166634Y261122D02*
X170276D01*
X166634Y256594D02*
Y261122D01*
X170276D02*
Y266142D01*
X193504D02*
Y271161D01*
X197146D02*
Y275689D01*
X193504Y271161D02*
X197146D01*
X181890Y277461D02*
X188287D01*
X190059Y275689D01*
X197146D01*
X190059Y256594D02*
X197146D01*
X188287Y254823D02*
X190059Y256594D01*
X181890Y254823D02*
X188287D01*
X193504Y261122D02*
X197146D01*
Y256594D02*
Y261122D01*
X193504D02*
Y266142D01*
X170276D02*
Y271161D01*
X166634D02*
Y275689D01*
Y271161D02*
X170276D01*
X175492Y277461D02*
X181890D01*
X173721Y275689D02*
X175492Y277461D01*
X166634Y275689D02*
X173721D01*
X189707Y32544D02*
X191971D01*
Y38194D01*
X187443Y32544D02*
Y38194D01*
Y32544D02*
X189707D01*
X191971Y38194D02*
Y43509D01*
X187443Y38194D02*
Y43509D01*
X191971D01*
X181398Y43504D02*
X185925D01*
X181398Y38189D02*
Y43504D01*
X185925Y38189D02*
Y43504D01*
X181398Y32539D02*
X183661D01*
X181398D02*
Y38189D01*
X185925Y32539D02*
Y38189D01*
X183661Y32539D02*
X185925D01*
X231988Y312244D02*
X234252D01*
X231988Y306594D02*
Y312244D01*
X236516Y306594D02*
Y312244D01*
X234252D02*
X236516D01*
X231988Y301279D02*
Y306594D01*
X236516Y301279D02*
Y306594D01*
X231988Y301279D02*
X236516D01*
X82480Y193405D02*
X87008D01*
Y198721D01*
X82480Y193405D02*
Y198721D01*
X84744Y204370D02*
X87008D01*
Y198721D02*
Y204370D01*
X82480Y198721D02*
Y204370D01*
X84744D01*
X432638Y383169D02*
Y385433D01*
Y383169D02*
X438287D01*
X432638Y387697D02*
X438287D01*
X432638Y385433D02*
Y387697D01*
X438287Y383169D02*
X443602D01*
X438287Y387697D02*
X443602D01*
Y383169D02*
Y387697D01*
X81299Y74902D02*
Y79429D01*
Y74902D02*
X86614D01*
X81299Y79429D02*
X86614D01*
X92264Y74902D02*
Y77165D01*
X86614Y74902D02*
X92264D01*
X86614Y79429D02*
X92264D01*
Y77165D02*
Y79429D01*
X57480Y123878D02*
X59744D01*
Y129527D01*
X55216Y123878D02*
Y129527D01*
Y123878D02*
X57480D01*
X59744Y129527D02*
Y134843D01*
X55216Y129527D02*
Y134843D01*
X59744D01*
X55216Y123031D02*
X59744D01*
X55216Y117717D02*
Y123031D01*
X59744Y117717D02*
Y123031D01*
X55216Y112067D02*
X57480D01*
X55216D02*
Y117717D01*
X59744Y112067D02*
Y117717D01*
X57480Y112067D02*
X59744D01*
X55158Y97539D02*
Y99803D01*
X49508D02*
X55158D01*
X49508Y95276D02*
X55158D01*
Y97539D01*
X44193Y99803D02*
X49508D01*
X44193Y95276D02*
X49508D01*
X44193D02*
Y99803D01*
X51378Y14665D02*
Y19193D01*
X46063D02*
X51378D01*
X46063Y14665D02*
X51378D01*
X40413Y16929D02*
Y19193D01*
X46063D01*
X40413Y14665D02*
X46063D01*
X40413D02*
Y16929D01*
X287657Y189469D02*
Y191732D01*
Y189469D02*
X293307D01*
X287657Y193996D02*
X293307D01*
X287657Y191732D02*
Y193996D01*
X293307Y189469D02*
X298622D01*
X293307Y193996D02*
X298622D01*
Y189469D02*
Y193996D01*
X67583Y180685D02*
X74472D01*
X67583D02*
Y193677D01*
X81362D02*
Y206669D01*
X74472D02*
X81362D01*
X67583D02*
X74472D01*
X67583Y193677D02*
Y206669D01*
X81362Y180685D02*
Y193677D01*
X74472Y180685D02*
X81362D01*
X98175Y116687D02*
Y125841D01*
Y116687D02*
X104376D01*
Y134994D02*
X110577D01*
Y125841D02*
Y134994D01*
X98175Y125841D02*
Y134994D01*
X104376D01*
Y116687D02*
X110577D01*
Y125841D01*
X95616Y106549D02*
Y115703D01*
X101817D01*
Y97396D02*
X108018D01*
Y106549D01*
X95616Y97396D02*
Y106549D01*
Y97396D02*
X101817D01*
Y115703D02*
X108018D01*
Y106549D02*
Y115703D01*
X53740Y147441D02*
Y156595D01*
X47539D02*
X53740D01*
X41339Y138287D02*
X47539D01*
X41339D02*
Y147441D01*
X53740Y138287D02*
Y147441D01*
X47539Y138287D02*
X53740D01*
X41339Y156595D02*
X47539D01*
X41339Y147441D02*
Y156595D01*
X67323Y150295D02*
X76476D01*
Y144095D02*
Y150295D01*
X58169Y137894D02*
Y144095D01*
Y137894D02*
X67323D01*
X58169Y150295D02*
X67323D01*
X58169Y144095D02*
Y150295D01*
X76476Y137894D02*
Y144095D01*
X67323Y137894D02*
X76476D01*
X436701Y24221D02*
Y28551D01*
Y24221D02*
X441032D01*
Y32882D02*
X445362D01*
Y28551D02*
Y32882D01*
Y24221D02*
Y28551D01*
X441032Y24221D02*
X445362D01*
X436701Y32882D02*
X441032D01*
X436701Y28551D02*
Y32882D01*
X133047Y124311D02*
Y134350D01*
X133047D02*
X143087Y134351D01*
Y114271D02*
X153126Y114272D01*
X153127D02*
Y124311D01*
Y134350D01*
X143087Y134351D02*
X153126Y134350D01*
X133047Y114272D02*
X143087Y114271D01*
X133047Y114272D02*
Y124311D01*
X80361Y103504D02*
X91975D01*
Y91890D02*
Y103504D01*
Y80276D02*
Y91890D01*
X80361Y80276D02*
X91975D01*
X68746D02*
X80361D01*
X68746D02*
Y91890D01*
Y103504D02*
X80361D01*
X68746Y91890D02*
Y103504D01*
X414390Y245091D02*
X425807D01*
Y395799D01*
X414390D02*
X425807D01*
X414390Y245091D02*
Y395799D01*
X274390Y245091D02*
Y395799D01*
X285807D01*
Y245091D02*
Y395799D01*
X274390Y245091D02*
X285807D01*
X294587Y269657D02*
Y371232D01*
Y269657D02*
X350098D01*
X294587Y371232D02*
X350098D01*
X405610D01*
Y269657D02*
Y371232D01*
X350098Y269657D02*
X405610D01*
X149705Y23720D02*
Y28937D01*
X156496D01*
Y18504D02*
X163287D01*
Y23720D01*
X149705Y18602D02*
Y23819D01*
Y18602D02*
X156496D01*
Y29035D02*
X163287D01*
Y23819D02*
Y29035D01*
X120768Y35433D02*
Y41535D01*
X114961D02*
X120768D01*
X109153Y29331D02*
X114961D01*
X109153D02*
Y35433D01*
X120768Y29331D02*
Y35433D01*
X114961Y29331D02*
X120768D01*
X109153Y41535D02*
X114961D01*
X109153Y35433D02*
Y41535D01*
X337992Y8760D02*
X344094D01*
X337992D02*
Y14567D01*
X350197D02*
Y20374D01*
X344094D02*
X350197D01*
X344094Y8760D02*
X350197D01*
Y14567D01*
X337992D02*
Y20374D01*
X344094D01*
X55118Y95768D02*
Y103543D01*
Y111319D01*
X61221Y111319D02*
X67323D01*
X55118D02*
X61221D01*
X67323Y95768D02*
Y103543D01*
X61221Y95768D02*
X67323D01*
Y103543D02*
Y111319D01*
X55118Y95768D02*
X61221D01*
X8858Y108071D02*
Y133071D01*
Y108071D02*
X24016D01*
Y158071D02*
X39173D01*
Y133071D02*
Y158071D01*
Y108071D02*
Y133071D01*
X24016Y108071D02*
X39173D01*
X8858Y158071D02*
X24016D01*
X8858Y133071D02*
Y158071D01*
X48031Y47283D02*
Y96496D01*
X8661Y47283D02*
X48031D01*
X8661Y47284D02*
X8661Y47283D01*
Y96496D02*
X48031D01*
X8661Y96496D02*
X8661Y96496D01*
X8661Y47284D02*
Y96496D01*
X272441Y1457D02*
X278150D01*
Y11811D01*
X266732D02*
Y22165D01*
X272441D01*
X266732Y1457D02*
X272441D01*
X266732D02*
Y11811D01*
X278150D02*
Y22165D01*
X272441D02*
X278150D01*
X367717Y669D02*
X373425D01*
Y11024D01*
X362008D02*
Y21378D01*
X367717D01*
X362008Y669D02*
X367717D01*
X362008D02*
Y11024D01*
X373425D02*
Y21378D01*
X367717D02*
X373425D01*
X438031Y94350D02*
Y128602D01*
X474252D01*
Y60098D02*
X510472D01*
Y94350D01*
Y128602D01*
X474252D02*
X510472D01*
X438031Y60098D02*
X474252D01*
X438031D02*
Y94350D01*
X407972Y20571D02*
X415453D01*
X407972D02*
Y35138D01*
X415453Y20571D02*
Y35138D01*
X407972D02*
X415453D01*
X406496Y120473D02*
X412205D01*
X406496Y90118D02*
Y120473D01*
X417913Y59764D02*
Y90118D01*
X412205Y59764D02*
X417913D01*
X412205Y120473D02*
X417913D01*
Y90118D02*
Y120473D01*
X406496Y59764D02*
Y90118D01*
Y59764D02*
X412205D01*
X136587Y143630D02*
X138287D01*
X150886D02*
X152587D01*
X138287Y139961D02*
Y143630D01*
Y139961D02*
X150886D01*
Y143630D01*
X138287Y177630D02*
Y181299D01*
X150886D01*
Y177630D02*
Y181299D01*
X136587Y177630D02*
X138287D01*
X150886D02*
X152587D01*
X162303Y153619D02*
Y167641D01*
X152587Y177630D02*
X162303Y167641D01*
X126870D02*
X136587Y177630D01*
X152587Y143630D02*
X162303Y153619D01*
X126870D02*
X136587Y143630D01*
X126870Y153619D02*
Y167641D01*
X383563Y243701D02*
Y246850D01*
X386319D01*
X379626Y243701D02*
X383563D01*
X379626Y241732D02*
Y243701D01*
X376870Y241732D02*
X379626D01*
X376870Y231890D02*
X379626D01*
X383169Y229134D02*
Y230315D01*
X379626D02*
Y231890D01*
Y230315D02*
X383169D01*
Y229134D02*
X386319D01*
X376870Y231890D02*
Y241732D01*
X395768Y231890D02*
Y241732D01*
X386319Y229134D02*
X389469D01*
Y230315D02*
X393012D01*
Y231890D01*
X389469Y229134D02*
Y230315D01*
X393012Y231890D02*
X395768D01*
X393012Y241732D02*
X395768D01*
X393012D02*
Y243701D01*
X389075D02*
X393012D01*
X386319Y246850D02*
X389075D01*
Y243701D02*
Y246850D01*
X480610Y209646D02*
X483760D01*
X480610D02*
Y212402D01*
X483760Y205709D02*
Y209646D01*
Y205709D02*
X485728D01*
Y202953D02*
Y205709D01*
X495571Y202953D02*
Y205709D01*
X497146Y209252D02*
X498327D01*
X495571Y205709D02*
X497146D01*
Y209252D01*
X498327D02*
Y212402D01*
X485728Y202953D02*
X495571D01*
X485728Y221850D02*
X495571D01*
X498327Y212402D02*
Y215551D01*
X497146D02*
Y219094D01*
X495571D02*
X497146D01*
Y215551D02*
X498327D01*
X495571Y219094D02*
Y221850D01*
X485728Y219094D02*
Y221850D01*
X483760Y219094D02*
X485728D01*
X483760Y215158D02*
Y219094D01*
X480610Y212402D02*
Y215158D01*
X483760D01*
X445768Y243504D02*
X448917D01*
Y240748D02*
Y243504D01*
X445768D02*
Y247441D01*
X443799D02*
X445768D01*
X443799D02*
Y250197D01*
X433957Y247441D02*
Y250197D01*
X431201Y243898D02*
X432382D01*
Y247441D02*
X433957D01*
X432382Y243898D02*
Y247441D01*
X431201Y240748D02*
Y243898D01*
X433957Y250197D02*
X443799D01*
X433957Y231299D02*
X443799D01*
X431201Y237598D02*
Y240748D01*
X432382Y234055D02*
Y237598D01*
Y234055D02*
X433957D01*
X431201Y237598D02*
X432382D01*
X433957Y231299D02*
Y234055D01*
X443799Y231299D02*
Y234055D01*
X445768D01*
Y237992D01*
X448917D02*
Y240748D01*
X445768Y237992D02*
X448917D01*
X412795Y193898D02*
X420276D01*
Y179331D02*
Y193898D01*
X412795Y179331D02*
Y193898D01*
Y179331D02*
X420276D01*
X412795Y177067D02*
X420276D01*
Y162500D02*
Y177067D01*
X412795Y162500D02*
Y177067D01*
Y162500D02*
X420276D01*
X380118Y193898D02*
X387598D01*
Y179331D02*
Y193898D01*
X380118Y179331D02*
Y193898D01*
Y179331D02*
X387598D01*
X380118Y177067D02*
X387598D01*
Y162500D02*
Y177067D01*
X380118Y162500D02*
Y177067D01*
Y162500D02*
X387598D01*
X426476Y38091D02*
X433957D01*
Y23524D02*
Y38091D01*
X426476Y23524D02*
Y38091D01*
Y23524D02*
X433957D01*
X418602Y210039D02*
Y213583D01*
X411713Y210039D02*
X418602D01*
X411713D02*
Y213583D01*
X418602D01*
X266831Y328642D02*
Y332185D01*
X273720D01*
Y328642D02*
Y332185D01*
X266831Y328642D02*
X273720D01*
X266831Y338673D02*
Y342216D01*
X273720D01*
Y338673D02*
Y342216D01*
X266831Y338673D02*
X273720D01*
X266831Y348673D02*
Y352217D01*
X273720D01*
Y348673D02*
Y352217D01*
X266831Y348673D02*
X273720D01*
X266831Y358673D02*
Y362216D01*
X273720D01*
Y358673D02*
Y362216D01*
X266831Y358673D02*
X273720D01*
X392618Y327559D02*
Y331102D01*
X385728Y327559D02*
X392618D01*
X385728D02*
Y331102D01*
X392618D01*
X413681Y223819D02*
Y227362D01*
X406791Y223819D02*
X413681D01*
X406791D02*
Y227362D01*
X413681D01*
X395768Y164173D02*
Y167717D01*
X388878Y164173D02*
X395768D01*
X388878D02*
Y167717D01*
X395768D01*
X199508Y304606D02*
Y308150D01*
X192618D02*
X199508D01*
X192618Y304606D02*
Y308150D01*
Y304606D02*
X199508D01*
X101279Y298425D02*
Y301969D01*
Y298425D02*
X108169D01*
Y301969D01*
X101279D02*
X108169D01*
X101279Y286339D02*
Y289882D01*
Y286339D02*
X108169D01*
Y289882D01*
X101279D02*
X108169D01*
X101279Y305787D02*
Y309331D01*
Y305787D02*
X108169D01*
Y309331D01*
X101279D02*
X108169D01*
X101279Y292146D02*
Y295689D01*
Y292146D02*
X108169D01*
Y295689D01*
X101279D02*
X108169D01*
X209744Y309606D02*
Y313150D01*
X202854D02*
X209744D01*
X202854Y309606D02*
Y313150D01*
Y309606D02*
X209744D01*
X199508Y314606D02*
Y318150D01*
X192618D02*
X199508D01*
X192618Y314606D02*
Y318150D01*
Y314606D02*
X199508D01*
Y324606D02*
Y328150D01*
X192618D02*
X199508D01*
X192618Y324606D02*
Y328150D01*
Y324606D02*
X199508D01*
X209744Y329606D02*
Y333150D01*
X202854D02*
X209744D01*
X202854Y329606D02*
Y333150D01*
Y329606D02*
X209744D01*
X199508Y339606D02*
Y343150D01*
X192618D02*
X199508D01*
X192618Y339606D02*
Y343150D01*
Y339606D02*
X199508D01*
Y354606D02*
Y358150D01*
X192618D02*
X199508D01*
X192618Y354606D02*
Y358150D01*
Y354606D02*
X199508D01*
X209744Y359606D02*
Y363150D01*
X202854D02*
X209744D01*
X202854Y359606D02*
Y363150D01*
Y359606D02*
X209744D01*
X101279Y320394D02*
Y323937D01*
Y320394D02*
X108169D01*
Y323937D01*
X101279D02*
X108169D01*
X101279Y313524D02*
Y317067D01*
Y313524D02*
X108169D01*
Y317067D01*
X101279D02*
X108169D01*
X504764Y348622D02*
Y354331D01*
X474409Y348622D02*
X504764D01*
X444055Y360039D02*
X474409D01*
X444055Y354331D02*
Y360039D01*
X504764Y354331D02*
Y360039D01*
X474409D02*
X504764D01*
X444055Y348622D02*
X474409D01*
X444055D02*
Y354331D01*
X176102Y2264D02*
Y7972D01*
Y2264D02*
X196457D01*
Y13681D02*
X216811D01*
Y7972D02*
Y13681D01*
X176102Y7972D02*
Y13681D01*
X196457D01*
Y2264D02*
X216811D01*
Y7972D01*
X361713Y16083D02*
Y31437D01*
X356004D02*
X361713D01*
X350295Y728D02*
X356004D01*
X350295D02*
Y16083D01*
Y31437D01*
X356004D01*
Y728D02*
X361713D01*
Y16083D01*
X466831Y316043D02*
X504134D01*
Y283563D02*
Y316043D01*
Y251083D02*
Y283563D01*
X466831Y251083D02*
X504134D01*
X429528D02*
Y283563D01*
Y251083D02*
X466831D01*
X429528Y283563D02*
Y316043D01*
X466831D01*
X126870Y52953D02*
X136220D01*
X126870D02*
Y62303D01*
X136220Y52953D02*
X145571D01*
Y62303D01*
X145571D02*
Y71653D01*
X136220D02*
X145571D01*
X126870Y71653D02*
X136220D01*
X126870Y62303D02*
Y71653D01*
X194882Y78642D02*
Y103543D01*
Y78642D02*
X200689D01*
X203839Y69685D02*
Y75492D01*
Y69685D02*
X228740D01*
X200689Y75492D02*
Y78642D01*
Y75492D02*
X203839D01*
Y137402D02*
X228740D01*
X203839Y131595D02*
Y137402D01*
X194882Y128445D02*
X200689D01*
X194882Y103543D02*
Y128445D01*
X200689Y131595D02*
X203839D01*
X200689Y128445D02*
Y131595D01*
X262598Y103543D02*
Y128445D01*
X260236D02*
X262598D01*
X253642Y135039D02*
Y137402D01*
X228740D02*
X253642D01*
X260236Y128445D02*
Y135039D01*
X253642D02*
X260236D01*
X256791Y75492D02*
Y78642D01*
X253642Y75492D02*
X256791D01*
X262598Y78642D02*
Y103543D01*
X256791Y78642D02*
X262598D01*
X253642Y69685D02*
Y75492D01*
X228740Y69685D02*
X253642D01*
X234842Y364567D02*
X265551Y364567D01*
X234842Y364567D02*
Y385039D01*
X265551Y364567D02*
Y385039D01*
X234842D02*
X265551D01*
X205413Y164075D02*
Y170866D01*
Y164075D02*
X229724D01*
X205413Y184744D02*
X229724D01*
X205413Y177953D02*
Y184744D01*
X229724Y164075D02*
X254035D01*
X229724Y184744D02*
X254035D01*
X196654Y174409D02*
Y175984D01*
X198622Y177953D01*
X205413D01*
X198622Y170866D02*
X205413D01*
X196654Y172835D02*
X198622Y170866D01*
X196654Y172835D02*
Y174409D01*
X262795D02*
Y175984D01*
X260827Y177953D02*
X262795Y175984D01*
X254035Y177953D02*
X260827D01*
X254035Y170866D02*
X260827D01*
X262795Y172835D01*
Y174409D01*
X254035Y164075D02*
Y170866D01*
Y177953D02*
Y184744D01*
D22*
X463779Y50886D02*
X464620Y51234D01*
X462939D02*
X463779Y50886D01*
X467224Y54331D02*
X466876Y55171D01*
Y53491D02*
X467224Y54331D01*
X463779Y57776D02*
X462939Y57428D01*
X464620D02*
X463779Y57776D01*
X460335Y54331D02*
X460683Y53491D01*
Y55171D02*
X460335Y54331D01*
X412651Y35676D02*
X411811Y36024D01*
X410971Y35676D01*
X414908Y31739D02*
X415256Y32579D01*
X414908Y33419D01*
X410971Y29482D02*
X411811Y29134D01*
X412651Y29482D01*
X408714Y33419D02*
X408366Y32579D01*
X408714Y31739D01*
X251279Y31791D02*
X250439Y31443D01*
X252120D02*
X251279Y31791D01*
X247835Y28346D02*
X248183Y27506D01*
Y29187D02*
X247835Y28346D01*
X251279Y24902D02*
X252120Y25250D01*
X250439D02*
X251279Y24902D01*
X254724Y28346D02*
X254376Y29187D01*
Y27506D02*
X254724Y28346D01*
X167172Y64317D02*
X167520Y65158D01*
X167172Y65998D01*
X163235Y62061D02*
X164075Y61713D01*
X164915Y62061D01*
X160978Y65998D02*
X160630Y65158D01*
X160978Y64317D01*
X164915Y68254D02*
X164075Y68602D01*
X163235Y68254D01*
X141142Y41437D02*
X141982Y41785D01*
X140302D02*
X141142Y41437D01*
X144587Y44882D02*
X144239Y45722D01*
Y44042D02*
X144587Y44882D01*
X141142Y48327D02*
X140302Y47979D01*
X141982D02*
X141142Y48327D01*
X137697Y44882D02*
X138045Y44042D01*
Y45722D02*
X137697Y44882D01*
X142861Y92959D02*
X143209Y93799D01*
X142861Y94639D01*
X138924Y90702D02*
X139764Y90354D01*
X140604Y90702D01*
X136667Y94639D02*
X136319Y93799D01*
X136667Y92959D01*
X140604Y96896D02*
X139764Y97244D01*
X138924Y96896D01*
X92126Y190059D02*
X91286Y189711D01*
X92966D02*
X92126Y190059D01*
X88681Y186614D02*
X89029Y185774D01*
Y187454D02*
X88681Y186614D01*
X92126Y183169D02*
X92966Y183517D01*
X91286D02*
X92126Y183169D01*
X95571Y186614D02*
X95223Y187454D01*
Y185774D02*
X95571Y186614D01*
X95026Y194337D02*
X95374Y195177D01*
X95026Y196018D01*
X91089Y192080D02*
X91929Y191733D01*
X92769Y192080D01*
X88832Y196018D02*
X88484Y195177D01*
X88832Y194337D01*
X92769Y198274D02*
X91929Y198622D01*
X91089Y198274D01*
X64567Y186122D02*
X63727Y185774D01*
X65407D02*
X64567Y186122D01*
X61122Y182677D02*
X61470Y181837D01*
Y183517D02*
X61122Y182677D01*
X64567Y179232D02*
X65407Y179580D01*
X63727D02*
X64567Y179232D01*
X68012Y182677D02*
X67664Y183517D01*
Y181837D02*
X68012Y182677D01*
X94140Y161857D02*
X94488Y162697D01*
X94140Y163537D01*
X90203Y159600D02*
X91043Y159252D01*
X91883Y159600D01*
X87946Y163537D02*
X87598Y162697D01*
X87946Y161857D01*
X91883Y165794D02*
X91043Y166142D01*
X90203Y165794D01*
X459449Y165059D02*
X458609Y164711D01*
X460289D02*
X459449Y165059D01*
X456004Y161614D02*
X456352Y160774D01*
Y162454D02*
X456004Y161614D01*
X459449Y158169D02*
X460289Y158517D01*
X458609D02*
X459449Y158169D01*
X462894Y161614D02*
X462546Y162454D01*
Y160774D02*
X462894Y161614D01*
X506595Y181890D02*
X506247Y182730D01*
Y181050D02*
X506595Y181890D01*
X503150Y185335D02*
X502310Y184987D01*
X503990D02*
X503150Y185335D01*
X499705Y181890D02*
X500053Y181050D01*
Y182730D02*
X499705Y181890D01*
X503150Y178445D02*
X503990Y178793D01*
X502310D02*
X503150Y178445D01*
X459055Y202854D02*
X458215Y202506D01*
X459895D02*
X459055Y202854D01*
X455610Y199409D02*
X455958Y198569D01*
Y200250D02*
X455610Y199409D01*
X459055Y195965D02*
X459895Y196312D01*
X458215D02*
X459055Y195965D01*
X462500Y199409D02*
X462152Y200250D01*
Y198569D02*
X462500Y199409D01*
X464764Y51378D02*
X466876Y53491D01*
X464620Y51234D02*
X464764Y51378D01*
X464620Y57428D02*
X466732Y55315D01*
X466876Y55171D01*
X460683D02*
X462795Y57284D01*
X462939Y57428D01*
X460827Y53347D02*
X462939Y51234D01*
X460683Y53491D02*
X460827Y53347D01*
X410827Y35531D02*
X410971Y35676D01*
X408714Y33419D02*
X410827Y35531D01*
X414764Y33563D02*
X414908Y33419D01*
X412651Y35676D02*
X414764Y33563D01*
X412651Y29482D02*
X412795Y29626D01*
X414908Y31739D01*
X408714D02*
X408858Y31594D01*
X410971Y29482D01*
X248183Y29187D02*
X250295Y31299D01*
X250439Y31443D01*
X248327Y27362D02*
X250439Y25250D01*
X248183Y27506D02*
X248327Y27362D01*
X252264Y25394D02*
X254376Y27506D01*
X252120Y25250D02*
X252264Y25394D01*
X252120Y31443D02*
X254232Y29331D01*
X254376Y29187D01*
X167028Y66142D02*
X167172Y65998D01*
X164915Y68254D02*
X167028Y66142D01*
X164915Y62061D02*
X165059Y62205D01*
X167172Y64317D01*
X160978D02*
X161122Y64173D01*
X163235Y62061D01*
X163091Y68110D02*
X163235Y68254D01*
X160978Y65998D02*
X163091Y68110D01*
X142126Y41929D02*
X144239Y44042D01*
X141982Y41785D02*
X142126Y41929D01*
X141982Y47979D02*
X144095Y45866D01*
X144239Y45722D01*
X138045D02*
X140157Y47835D01*
X140302Y47979D01*
X138189Y43898D02*
X140302Y41785D01*
X138045Y44042D02*
X138189Y43898D01*
X142717Y94784D02*
X142861Y94639D01*
X140604Y96896D02*
X142717Y94784D01*
X140604Y90702D02*
X140748Y90847D01*
X142861Y92959D01*
X136667D02*
X136811Y92815D01*
X138924Y90702D01*
X138779Y96752D02*
X138924Y96896D01*
X136667Y94639D02*
X138779Y96752D01*
X89029Y187454D02*
X91142Y189567D01*
X91286Y189711D01*
X89173Y185630D02*
X91286Y183517D01*
X89029Y185774D02*
X89173Y185630D01*
X93110Y183661D02*
X95223Y185774D01*
X92966Y183517D02*
X93110Y183661D01*
X92966Y189711D02*
X95079Y187598D01*
X95223Y187454D01*
X94882Y196162D02*
X95026Y196018D01*
X92769Y198274D02*
X94882Y196162D01*
X92769Y192080D02*
X92913Y192225D01*
X95026Y194337D01*
X88832D02*
X88976Y194193D01*
X91089Y192080D01*
X90945Y198130D02*
X91089Y198274D01*
X88832Y196018D02*
X90945Y198130D01*
X61470Y183517D02*
X63583Y185630D01*
X63727Y185774D01*
X61614Y181693D02*
X63727Y179580D01*
X61470Y181837D02*
X61614Y181693D01*
X65551Y179724D02*
X67664Y181837D01*
X65407Y179580D02*
X65551Y179724D01*
X65407Y185774D02*
X67520Y183661D01*
X67664Y183517D01*
X93996Y163681D02*
X94140Y163537D01*
X91883Y165794D02*
X93996Y163681D01*
X91883Y159600D02*
X92028Y159744D01*
X94140Y161857D01*
X87946D02*
X88090Y161713D01*
X90203Y159600D01*
X90059Y165650D02*
X90203Y165794D01*
X87946Y163537D02*
X90059Y165650D01*
X456352Y162454D02*
X458465Y164567D01*
X458609Y164711D01*
X456496Y160630D02*
X458609Y158517D01*
X456352Y160774D02*
X456496Y160630D01*
X460433Y158661D02*
X462546Y160774D01*
X460289Y158517D02*
X460433Y158661D01*
X460289Y164711D02*
X462402Y162598D01*
X462546Y162454D01*
X506102Y180905D02*
X506247Y181050D01*
X503990Y178793D02*
X506102Y180905D01*
X503990Y184987D02*
X504134Y184843D01*
X506247Y182730D01*
X500053D02*
X500197Y182874D01*
X502310Y184987D01*
X502165Y178937D02*
X502310Y178793D01*
X500053Y181050D02*
X502165Y178937D01*
X455958Y200250D02*
X458071Y202362D01*
X458215Y202506D01*
X456102Y198425D02*
X458215Y196312D01*
X455958Y198569D02*
X456102Y198425D01*
X460039Y196457D02*
X462152Y198569D01*
X459895Y196312D02*
X460039Y196457D01*
X459895Y202506D02*
X462008Y200394D01*
X462152Y200250D01*
X55118Y5512D02*
X85827D01*
X55118D02*
Y33071D01*
X85827Y5512D02*
Y33071D01*
X55118D02*
X85827D01*
X360039Y233465D02*
Y254724D01*
X338779Y233465D02*
X360039D01*
X338779D02*
Y254724D01*
X360039D01*
X425110Y185236D02*
Y189268D01*
Y193110D01*
X421095Y189268D02*
X425110D01*
X428968D01*
X452591Y155709D02*
Y222638D01*
X397472D02*
X452591D01*
X397472Y155709D02*
Y222638D01*
Y155709D02*
X452591D01*
D327*
X20079Y287008D02*
Y288386D01*
X46850D01*
Y287008D02*
Y288386D01*
Y287008D02*
X56102D01*
Y277165D02*
Y287008D01*
X46850Y277165D02*
X56102D01*
X46850Y275787D02*
Y277165D01*
X20079Y275787D02*
X46850D01*
X20079D02*
Y277165D01*
X10827D02*
X20079D01*
X10827D02*
Y287008D01*
X20079D01*
X10827Y259252D02*
X20079D01*
X10827Y249409D02*
Y259252D01*
Y249409D02*
X20079D01*
Y248031D02*
Y249409D01*
Y248031D02*
X46850D01*
Y249409D01*
X56102D01*
Y259252D01*
X46850D02*
X56102D01*
X46850D02*
Y260630D01*
X20079D02*
X46850D01*
X20079Y259252D02*
Y260630D01*
X46850Y329331D02*
Y330709D01*
X20079Y329331D02*
X46850D01*
X20079D02*
Y330709D01*
X10827D02*
X20079D01*
X10827D02*
Y340551D01*
X20079D01*
Y341929D01*
X46850D01*
Y340551D02*
Y341929D01*
Y340551D02*
X56102D01*
Y330709D02*
Y340551D01*
X46850Y330709D02*
X56102D01*
X46850Y294685D02*
X56102D01*
Y304528D01*
X46850D02*
X56102D01*
X46850D02*
Y305906D01*
X20079D02*
X46850D01*
X20079Y304528D02*
Y305906D01*
X10827Y304528D02*
X20079D01*
X10827Y294685D02*
Y304528D01*
Y294685D02*
X20079D01*
Y293307D02*
Y294685D01*
Y293307D02*
X46850D01*
Y294685D01*
X492717Y165059D02*
X502165D01*
Y162106D02*
Y165059D01*
Y162106D02*
X518898D01*
X492717Y165059D02*
Y199705D01*
X518898Y162106D02*
Y202658D01*
X502165D02*
X518898D01*
X502165Y199705D02*
Y202658D01*
X492717Y199705D02*
X502165D01*
X492717Y165059D02*
X502165D01*
X227461Y13583D02*
Y23031D01*
X262106Y13583D02*
Y23031D01*
Y13583D02*
X265059D01*
Y-3150D02*
Y13583D01*
X224508Y-3150D02*
X265059D01*
X227461Y23031D02*
X262106D01*
X224508Y-3150D02*
Y13583D01*
X227461D01*
Y23031D01*
D328*
X236910Y316831D02*
Y322736D01*
X224311Y316831D02*
Y322736D01*
Y316831D02*
X236910D01*
X224311Y322736D02*
X236910D01*
X212205Y67520D02*
X220866D01*
X212205Y63189D02*
X220866D01*
X212205D02*
Y67520D01*
X220866Y63189D02*
Y67520D01*
X194882Y69488D02*
X203543D01*
X194882Y73819D02*
X203543D01*
Y69488D02*
Y73819D01*
X194882Y69488D02*
Y73819D01*
X285697Y366438D02*
X296276Y377017D01*
X301426Y371866D01*
X285697Y366438D02*
X290847Y361288D01*
X301426Y371866D01*
X287907Y371411D02*
X297093Y380597D01*
X284009Y375308D02*
X293196Y384495D01*
X293196Y384495D02*
X297093Y380597D01*
X284009Y375308D02*
X287907Y371411D01*
X250689Y64370D02*
Y69882D01*
X263681Y64370D02*
Y69882D01*
X250689Y64370D02*
X263681D01*
X250689Y69882D02*
X263681D01*
X373327Y251870D02*
Y257382D01*
X360335Y251870D02*
Y257382D01*
X360335Y257382D02*
X373327D01*
X360335Y251870D02*
X373327D01*
X373425Y230413D02*
Y235925D01*
X360433Y230413D02*
Y235925D01*
X360433Y235925D02*
X373425D01*
X360433Y230413D02*
X373425D01*
X106496Y34843D02*
Y43504D01*
X110827Y34843D02*
Y43504D01*
X106496D02*
X110827D01*
X106496Y34843D02*
X110827D01*
X110236Y2362D02*
Y11024D01*
Y2362D02*
X129134D01*
Y11024D01*
X110236D02*
X129134D01*
X242717Y377067D02*
X257677D01*
X242717D02*
Y384350D01*
X257677Y377067D02*
Y384350D01*
X242717D02*
X257677D01*
X201870Y116339D02*
Y131299D01*
X209154D01*
X201870Y116339D02*
X209154D01*
Y131299D01*
X250295Y63878D02*
X265256D01*
X250295Y56595D02*
Y63878D01*
X265256Y56595D02*
Y63878D01*
X250295Y56595D02*
X265256D01*
X202658Y137795D02*
Y152756D01*
X195374D02*
X202658D01*
X195374Y137795D02*
X202658D01*
X195374D02*
Y152756D01*
X108366Y359449D02*
Y374410D01*
X101083D02*
X108366D01*
X101083Y359449D02*
X108366D01*
X101083D02*
Y374410D01*
X116732Y64272D02*
Y79232D01*
X109449D02*
X116732D01*
X109449Y64272D02*
X116732D01*
X109449D02*
Y79232D01*
X125591Y64272D02*
Y79232D01*
X118307D02*
X125591D01*
X118307Y64272D02*
X125591D01*
X118307D02*
Y79232D01*
X125492Y50984D02*
Y65945D01*
X118209D02*
X125492D01*
X118209Y50984D02*
X125492D01*
X118209D02*
Y65945D01*
X92126Y43012D02*
X107087D01*
X92126Y35728D02*
Y43012D01*
X107087Y35728D02*
Y43012D01*
X92126Y35728D02*
X107087D01*
X146555Y106595D02*
X161516D01*
Y113878D01*
X146555Y106595D02*
Y113878D01*
X161516D01*
X447539Y102559D02*
Y117520D01*
X454823D01*
X447539Y102559D02*
X454823D01*
Y117520D01*
X430709Y317618D02*
X445669D01*
Y324902D01*
X430709Y317618D02*
Y324902D01*
X445669D01*
X397244Y20079D02*
X412205D01*
X397244Y12795D02*
Y20079D01*
X412205Y12795D02*
Y20079D01*
X397244Y12795D02*
X412205D01*
X433563Y20669D02*
Y35630D01*
X426279D02*
X433563D01*
X426279Y20669D02*
X433563D01*
X426279D02*
Y35630D01*
X153150Y17520D02*
X168110D01*
X153150Y10236D02*
Y17520D01*
X168110Y10236D02*
Y17520D01*
X153150Y10236D02*
X168110D01*
X405709Y155610D02*
X420669D01*
X405709Y148327D02*
Y155610D01*
X420669Y148327D02*
Y155610D01*
X405709Y148327D02*
X420669D01*
X75394Y65059D02*
X90354D01*
X75394Y57776D02*
Y65059D01*
X90354Y57776D02*
Y65059D01*
X75394Y57776D02*
X90354D01*
X123425Y119291D02*
Y134252D01*
X130709D01*
X123425Y119291D02*
X130709D01*
Y134252D01*
X67027Y217028D02*
X81988D01*
X67027Y209744D02*
Y217028D01*
X81988Y209744D02*
Y217028D01*
X67027Y209744D02*
X81988D01*
X46654Y268701D02*
Y274213D01*
X33661Y268701D02*
Y274213D01*
X33661Y274213D02*
X46654D01*
X33661Y268701D02*
X46654D01*
X255807Y140551D02*
Y146063D01*
X242815Y140551D02*
Y146063D01*
X242815Y146063D02*
X255807D01*
X242815Y140551D02*
X255807D01*
Y146457D02*
Y151969D01*
X242815Y146457D02*
Y151969D01*
X242815Y151969D02*
X255807D01*
X242815Y146457D02*
X255807D01*
X46654Y262402D02*
Y267913D01*
X33661Y262402D02*
Y267913D01*
X33661Y267913D02*
X46654D01*
X33661Y262402D02*
X46654D01*
X244882Y157874D02*
Y163386D01*
X231890Y157874D02*
Y163386D01*
X231890Y163386D02*
X244882D01*
X231890Y157874D02*
X244882D01*
X214567Y157874D02*
Y163386D01*
X227559Y157874D02*
Y163386D01*
X214567Y157874D02*
X227559D01*
X214567Y163386D02*
X227559D01*
X156890Y229232D02*
X162401D01*
X156890Y242225D02*
X162401D01*
X162401Y229232D02*
Y242224D01*
X156890Y229232D02*
Y242224D01*
X207874Y151575D02*
X213386D01*
X207874Y138583D02*
X213386D01*
X207874Y138583D02*
Y151575D01*
X213386Y138583D02*
Y151575D01*
X202756D02*
X208268D01*
X202756Y138583D02*
X208268D01*
X202756Y138583D02*
Y151575D01*
X208268Y138583D02*
Y151575D01*
X130512Y242224D02*
X136024D01*
X130512Y229232D02*
X136024D01*
X130512Y229232D02*
Y242224D01*
X136024Y229232D02*
Y242224D01*
X187795Y134449D02*
X193307D01*
X187795Y121457D02*
X193307D01*
X187795Y121457D02*
Y134449D01*
X193307Y121457D02*
Y134449D01*
X249213Y118307D02*
X254724D01*
X249213Y131299D02*
X254724D01*
X249213Y118307D02*
Y131299D01*
X254724Y118307D02*
Y131299D01*
X262795Y124311D02*
X268307D01*
X262795Y137303D02*
X268307D01*
X268307Y124311D02*
Y137303D01*
X262795Y124311D02*
Y137303D01*
X239961Y123622D02*
Y129134D01*
X226969Y123622D02*
Y129134D01*
X226969Y123622D02*
X239961D01*
X226969Y129134D02*
X239961D01*
X112008Y277953D02*
Y283465D01*
X125000Y277953D02*
Y283465D01*
X112008Y277953D02*
X125000D01*
X112008Y283465D02*
X125000D01*
X188386Y277953D02*
Y283465D01*
X175394Y277953D02*
Y283465D01*
X175394Y283465D02*
X188386D01*
X175394Y277953D02*
X188386D01*
X101181Y332874D02*
X106693D01*
X101181Y345866D02*
X106693D01*
X106693Y332874D02*
Y345866D01*
X101181Y332874D02*
Y345866D01*
X37402Y323228D02*
Y328740D01*
X50394Y323228D02*
Y328740D01*
X37402Y323228D02*
X50394D01*
X37402Y328740D02*
X50394D01*
X37402Y306496D02*
Y312008D01*
X50394Y306496D02*
Y312008D01*
X37402Y306496D02*
X50394D01*
X37402Y312008D02*
X50394D01*
X166535Y115157D02*
Y120669D01*
X153543Y115157D02*
Y120669D01*
X153543Y120669D02*
X166535D01*
X153543Y115157D02*
X166535D01*
X431890Y121457D02*
X437402D01*
X431890Y108465D02*
X437402D01*
X431890Y108465D02*
Y121457D01*
X437402Y108465D02*
Y121457D01*
X505118Y277362D02*
X510630D01*
X505118Y290354D02*
X510630D01*
X510630Y277362D02*
Y290354D01*
X505118Y277362D02*
Y290354D01*
X397441Y7382D02*
Y12894D01*
X410433Y7382D02*
Y12894D01*
X397441Y7382D02*
X410433D01*
X397441Y12894D02*
X410433D01*
X392323Y7382D02*
X397835D01*
X392323Y20374D02*
X397835D01*
X397835Y7382D02*
Y20374D01*
X392323Y7382D02*
Y20374D01*
X437402Y21457D02*
X442913D01*
X437402Y8465D02*
X442913D01*
X437402Y8465D02*
Y21457D01*
X442913Y8465D02*
Y21457D01*
X445669Y29331D02*
X451181D01*
X445669Y42323D02*
X451181D01*
X451181Y29331D02*
Y42323D01*
X445669Y29331D02*
Y42323D01*
X163681Y30709D02*
X169193D01*
X163681Y17717D02*
X169193D01*
X163681Y17717D02*
Y30709D01*
X169193Y17717D02*
Y30709D01*
X406890Y141339D02*
Y146850D01*
X419882Y141339D02*
Y146850D01*
X406890Y141339D02*
X419882D01*
X406890Y146850D02*
X419882D01*
X55020Y81693D02*
Y87205D01*
X68012Y81693D02*
Y87205D01*
X55020Y81693D02*
X68012D01*
X55020Y87205D02*
X68012D01*
X62402Y37008D02*
Y42520D01*
X49409Y37008D02*
Y42520D01*
X49409Y42520D02*
X62402D01*
X49409Y37008D02*
X62402D01*
X195079Y87598D02*
X200591D01*
X195079Y74606D02*
X200591D01*
X200590Y74606D02*
Y87598D01*
X195079Y74606D02*
Y87598D01*
X243504Y387008D02*
Y392520D01*
X256496Y387008D02*
Y392520D01*
X243504Y387008D02*
X256496D01*
X243504Y392520D02*
X256496D01*
X383957Y255315D02*
X392618D01*
X383957Y259646D02*
X392618D01*
X383957Y255315D02*
Y259646D01*
X392618Y255315D02*
Y259646D01*
X457480Y234449D02*
Y243110D01*
X461811Y234449D02*
Y243110D01*
X457480D02*
X461811D01*
X457480Y234449D02*
X461811D01*
X466929Y206102D02*
Y214764D01*
X471260Y206102D02*
Y214764D01*
X466929D02*
X471260D01*
X466929Y206102D02*
X471260D01*
X228051Y382677D02*
Y388779D01*
X208366D02*
X228051D01*
X208366Y382677D02*
X228051D01*
X208366D02*
Y388779D01*
Y374803D02*
Y380906D01*
Y374803D02*
X228051D01*
X208366Y380906D02*
X228051D01*
Y374803D02*
Y380906D01*
Y366929D02*
Y373031D01*
X208366D02*
X228051D01*
X208366Y366929D02*
X228051D01*
X208366D02*
Y373031D01*
X462992Y13878D02*
Y19980D01*
X443307D02*
X462992D01*
X443307Y13878D02*
X462992D01*
X443307D02*
Y19980D01*
X451476Y20472D02*
X457579D01*
Y40157D01*
X451476Y20472D02*
Y40157D01*
X457579D01*
X146161Y92815D02*
X152264D01*
X146161Y73130D02*
Y92815D01*
X152264Y73130D02*
Y92815D01*
X146161Y73130D02*
X152264D01*
X377953Y15256D02*
X384055D01*
Y34941D01*
X377953Y15256D02*
Y34941D01*
X384055D01*
X384154D02*
X390256D01*
X384154Y15256D02*
Y34941D01*
X390256Y15256D02*
Y34941D01*
X384154Y15256D02*
X390256D01*
X442126Y148917D02*
Y155020D01*
X422441D02*
X442126D01*
X422441Y148917D02*
X442126D01*
X422441D02*
Y155020D01*
X143307Y15059D02*
X149409D01*
Y34744D01*
X143307Y15059D02*
Y34744D01*
X149409D01*
X47146Y163189D02*
Y179725D01*
Y163189D02*
X77264D01*
X47146Y179724D02*
X77264D01*
Y163189D02*
Y179724D01*
X76772Y31988D02*
X93307D01*
Y1870D02*
Y31988D01*
X76772Y1870D02*
Y31988D01*
Y1870D02*
X93307D01*
X132480Y97636D02*
X147440D01*
Y104919D01*
X132480Y97636D02*
Y104919D01*
X147440D01*
X153937Y130020D02*
X168898D01*
Y137303D01*
X153937Y130020D02*
Y137303D01*
X168897D01*
X130020Y114173D02*
X144980D01*
X130020Y106890D02*
Y114173D01*
X144980Y106890D02*
Y114173D01*
X130020Y106890D02*
X144980D01*
X161909Y140453D02*
Y155413D01*
Y140453D02*
X169193D01*
X161909Y155413D02*
X169193D01*
Y140453D02*
Y155413D01*
X148129Y97636D02*
X163090D01*
Y104919D01*
X148129Y97636D02*
Y104919D01*
X163090D01*
X153543Y128642D02*
X168504D01*
X153543Y121358D02*
Y128642D01*
X168504Y121358D02*
Y128642D01*
X153543Y121358D02*
X168504D01*
X374114Y236122D02*
Y251083D01*
X366831D02*
X374114D01*
X366831Y236122D02*
X374114D01*
X366831D02*
Y251083D01*
X193053Y31895D02*
X198959D01*
X193053Y44493D02*
X198959D01*
Y31895D02*
Y44493D01*
X193053Y31895D02*
Y44493D01*
X470866Y47835D02*
X483465D01*
X470866Y53740D02*
X483465D01*
X470866Y47835D02*
Y53740D01*
X483465Y47835D02*
Y53740D01*
X25394Y262205D02*
Y268110D01*
X12795Y262205D02*
Y268110D01*
X25394D01*
X12795Y262205D02*
X25394D01*
X155512Y229429D02*
Y242028D01*
X149606Y229429D02*
Y242028D01*
Y229429D02*
X155512D01*
X149606Y242028D02*
X155512D01*
X182973Y144882D02*
Y150787D01*
X195571Y144882D02*
Y150787D01*
X182973Y144882D02*
X195571D01*
X182973Y150787D02*
X195571D01*
X182973Y145275D02*
X195571D01*
X182973Y139370D02*
X195571D01*
Y145275D01*
X182973Y139370D02*
Y145275D01*
X156496Y259055D02*
X162402D01*
X156496Y271654D02*
X162402D01*
Y259055D02*
Y271654D01*
X156496Y259055D02*
Y271654D01*
X126772Y283661D02*
X139370D01*
X126772Y277756D02*
X139370D01*
Y283661D01*
X126772Y277756D02*
Y283661D01*
X173228Y277756D02*
Y283661D01*
X160630Y277756D02*
Y283661D01*
X173228D01*
X160630Y277756D02*
X173228D01*
X100984Y346457D02*
Y359055D01*
X106890Y346457D02*
Y359055D01*
X100984D02*
X106890D01*
X100984Y346457D02*
X106890D01*
X138779Y259055D02*
X144685D01*
X138779Y271654D02*
X144685D01*
Y259055D02*
Y271654D01*
X138779Y259055D02*
Y271654D01*
X24213Y320669D02*
X36811D01*
X24213Y326575D02*
X36811D01*
X24213Y320669D02*
Y326575D01*
X36811Y320669D02*
Y326575D01*
X36811Y308661D02*
Y314567D01*
X24213Y308661D02*
Y314567D01*
X36811D01*
X24213Y308661D02*
X36811D01*
X134449Y85728D02*
X140354D01*
X134449Y73130D02*
X140354D01*
X134449D02*
Y85728D01*
X140354Y73130D02*
Y85728D01*
X125984Y42028D02*
X138583D01*
X125984Y36122D02*
X138583D01*
Y42028D01*
X125984Y36122D02*
Y42028D01*
X139961Y73130D02*
X145866D01*
X139961Y85728D02*
X145866D01*
Y73130D02*
Y85728D01*
X139961Y73130D02*
Y85728D01*
X146063Y68701D02*
X158661D01*
X146063Y62795D02*
X158661D01*
Y68701D01*
X146063Y62795D02*
Y68701D01*
X151772Y73130D02*
X157677D01*
X151772Y85728D02*
X157677D01*
Y73130D02*
Y85728D01*
X151772Y73130D02*
Y85728D01*
X128543Y77165D02*
Y89764D01*
X134449Y77165D02*
Y89764D01*
X128543D02*
X134449D01*
X128543Y77165D02*
X134449D01*
X146063Y50886D02*
Y56791D01*
X158661Y50886D02*
Y56791D01*
X146063Y50886D02*
X158661D01*
X146063Y56791D02*
X158661D01*
X146063Y62303D02*
X158661D01*
X146063Y56398D02*
X158661D01*
Y62303D01*
X146063Y56398D02*
Y62303D01*
X160433Y61417D02*
X166339D01*
X160433Y48819D02*
X166339D01*
X160433D02*
Y61417D01*
X166339Y48819D02*
Y61417D01*
X113386Y88976D02*
X125984D01*
X113386Y83071D02*
X125984D01*
Y88976D01*
X113386Y83071D02*
Y88976D01*
X90695Y112750D02*
X96601D01*
X90695Y125349D02*
X96601D01*
Y112750D02*
Y125349D01*
X90695Y112750D02*
Y125349D01*
X82185Y179823D02*
Y192421D01*
X88091Y179823D02*
Y192421D01*
X82185D02*
X88091D01*
X82185Y179823D02*
X88091D01*
X81693Y218898D02*
X87598D01*
X81693Y206299D02*
X87598D01*
X81693D02*
Y218898D01*
X87598Y206299D02*
Y218898D01*
X419685Y61929D02*
X432283D01*
X419685Y67835D02*
X432283D01*
X419685Y61929D02*
Y67835D01*
X432283Y61929D02*
Y67835D01*
Y71929D02*
Y77835D01*
X419685Y71929D02*
Y77835D01*
X432283D01*
X419685Y71929D02*
X432283D01*
X419685Y81929D02*
X432283D01*
X419685Y87835D02*
X432283D01*
X419685Y81929D02*
Y87835D01*
X432283Y81929D02*
Y87835D01*
Y91929D02*
Y97835D01*
X419685Y91929D02*
Y97835D01*
X432283D01*
X419685Y91929D02*
X432283D01*
X419685Y101929D02*
X432283D01*
X419685Y107835D02*
X432283D01*
X419685Y101929D02*
Y107835D01*
X432283Y101929D02*
Y107835D01*
X420276Y108661D02*
X426181D01*
X420276Y121260D02*
X426181D01*
Y108661D02*
Y121260D01*
X420276Y108661D02*
Y121260D01*
X453543Y155315D02*
X466142D01*
X453543Y149409D02*
X466142D01*
Y155315D01*
X453543Y149409D02*
Y155315D01*
X495866Y346063D02*
X501772D01*
X495866Y333465D02*
X501772D01*
X495866D02*
Y346063D01*
X501772Y333465D02*
Y346063D01*
X453543Y149803D02*
X466142D01*
X453543Y143898D02*
X466142D01*
Y149803D01*
X453543Y143898D02*
Y149803D01*
X485866Y346063D02*
X491772D01*
X485866Y333465D02*
X491772D01*
X485866D02*
Y346063D01*
X491772Y333465D02*
Y346063D01*
X453543Y144291D02*
X466142D01*
X453543Y138386D02*
X466142D01*
Y144291D01*
X453543Y138386D02*
Y144291D01*
X475866Y346063D02*
X481772D01*
X475866Y333465D02*
X481772D01*
X475866D02*
Y346063D01*
X481772Y333465D02*
Y346063D01*
X471772Y333465D02*
Y346063D01*
X465866Y333465D02*
Y346063D01*
Y333465D02*
X471772D01*
X465866Y346063D02*
X471772D01*
X455866D02*
X461772D01*
X455866Y333465D02*
X461772D01*
X455866D02*
Y346063D01*
X461772Y333465D02*
Y346063D01*
X451772Y333465D02*
Y346063D01*
X445866Y333465D02*
Y346063D01*
Y333465D02*
X451772D01*
X445866Y346063D02*
X451772D01*
X435827Y42717D02*
Y48622D01*
X448425Y42717D02*
Y48622D01*
X435827Y42717D02*
X448425D01*
X435827Y48622D02*
X448425D01*
X423228Y39173D02*
X435827D01*
X423228Y45079D02*
X435827D01*
X423228Y39173D02*
Y45079D01*
X435827Y39173D02*
Y45079D01*
X424803Y14370D02*
Y20276D01*
X437402Y14370D02*
Y20276D01*
X424803Y14370D02*
X437402D01*
X424803Y20276D02*
X437402D01*
X422441Y147146D02*
X435039D01*
X422441Y141240D02*
X435039D01*
Y147146D01*
X422441Y141240D02*
Y147146D01*
X174409Y31496D02*
X180315D01*
X174409Y44094D02*
X180315D01*
Y31496D02*
Y44094D01*
X174409Y31496D02*
Y44094D01*
X92913Y74213D02*
X105512D01*
X92913Y80118D02*
X105512D01*
X92913Y74213D02*
Y80118D01*
X105512Y74213D02*
Y80118D01*
X80709Y73917D02*
Y79823D01*
X68110Y73917D02*
Y79823D01*
X80709D01*
X68110Y73917D02*
X80709D01*
X53740Y103543D02*
Y116142D01*
X47835Y103543D02*
Y116142D01*
Y103543D02*
X53740D01*
X47835Y116142D02*
X53740D01*
X47835Y129921D02*
X53740D01*
X47835Y117323D02*
X53740D01*
X47835D02*
Y129921D01*
X53740Y117323D02*
Y129921D01*
X75000Y51181D02*
Y63779D01*
X69095Y51181D02*
Y63779D01*
Y51181D02*
X75000D01*
X69095Y63779D02*
X75000D01*
X69095Y50394D02*
X75000D01*
X69095Y37795D02*
X75000D01*
X69095D02*
Y50394D01*
X75000Y37795D02*
Y50394D01*
X115551Y99606D02*
Y112205D01*
X121457Y99606D02*
Y112205D01*
X115551D02*
X121457D01*
X115551Y99606D02*
X121457D01*
X462402Y30709D02*
X468307D01*
X462402Y43307D02*
X468307D01*
Y30709D02*
Y43307D01*
X462402Y30709D02*
Y43307D01*
X372441Y388386D02*
X385039D01*
X372441Y382480D02*
X385039D01*
Y388386D01*
X372441Y382480D02*
Y388386D01*
X169291Y25787D02*
X175197D01*
X169291Y13189D02*
X175197D01*
X169291D02*
Y25787D01*
X175197Y13189D02*
Y25787D01*
X48228Y79528D02*
Y92126D01*
X54134Y79528D02*
Y92126D01*
X48228D02*
X54134D01*
X48228Y79528D02*
X54134D01*
X40354Y38976D02*
X46260D01*
X40354Y26378D02*
X46260D01*
X40354D02*
Y38976D01*
X46260Y26378D02*
Y38976D01*
X270866Y194685D02*
X283465D01*
X270866Y188779D02*
X283465D01*
Y194685D01*
X270866Y188779D02*
Y194685D01*
X25394Y268504D02*
Y274409D01*
X12795Y268504D02*
Y274409D01*
X25394D01*
X12795Y268504D02*
X25394D01*
X108957Y37205D02*
Y41535D01*
X100295Y37205D02*
Y41535D01*
Y37205D02*
X108957D01*
X100295Y41535D02*
X108957D01*
X247638Y59646D02*
Y68307D01*
X243307Y59646D02*
Y68307D01*
Y59646D02*
X247638D01*
X243307Y68307D02*
X247638D01*
X239370D02*
X243701D01*
X239370Y59646D02*
X243701D01*
X239370D02*
Y68307D01*
X243701Y59646D02*
Y68307D01*
X125984Y231398D02*
Y240059D01*
X130315Y231398D02*
Y240059D01*
X125984D02*
X130315D01*
X125984Y231398D02*
X130315D01*
X210630Y344783D02*
Y349114D01*
X201969Y344783D02*
Y349114D01*
X210630D01*
X201969Y344783D02*
X210630D01*
X201969Y348721D02*
X210630D01*
X201969Y353051D02*
X210630D01*
X201969Y348721D02*
Y353051D01*
X210630Y348721D02*
Y353051D01*
X461417Y242913D02*
X470079D01*
X461417Y238583D02*
X470079D01*
Y242913D01*
X461417Y238583D02*
Y242913D01*
X449213Y238583D02*
Y242913D01*
X457874Y238583D02*
Y242913D01*
X449213Y238583D02*
X457874D01*
X449213Y242913D02*
X457874D01*
X470866Y214567D02*
X479528D01*
X470866Y210236D02*
X479528D01*
Y214567D01*
X470866Y210236D02*
Y214567D01*
X458661Y210236D02*
Y214567D01*
X467323Y210236D02*
Y214567D01*
X458661Y210236D02*
X467323D01*
X458661Y214567D02*
X467323D01*
X453248Y185236D02*
X461909D01*
X453248Y180905D02*
X461909D01*
Y185236D01*
X453248Y180905D02*
Y185236D01*
X453248Y176969D02*
Y181299D01*
X461909Y176969D02*
Y181299D01*
X453248Y176969D02*
X461909D01*
X453248Y181299D02*
X461909D01*
X384154Y259252D02*
Y267913D01*
X388484Y259252D02*
Y267913D01*
X384154D02*
X388484D01*
X384154Y259252D02*
X388484D01*
X384154Y247047D02*
X388484D01*
X384154Y255709D02*
X388484D01*
Y247047D02*
Y255709D01*
X384154Y247047D02*
Y255709D01*
X59396Y91102D02*
X68058D01*
X59396Y86772D02*
X68058D01*
Y91102D01*
X59396Y86772D02*
Y91102D01*
X59396Y90709D02*
Y95039D01*
X68057Y90709D02*
Y95039D01*
X59396Y90709D02*
X68057D01*
X59396Y95039D02*
X68057D01*
X73228Y108858D02*
X81890D01*
X73228Y113189D02*
X81890D01*
X73228Y108858D02*
Y113189D01*
X81890Y108858D02*
Y113189D01*
X67913Y103937D02*
X72244D01*
X67913Y112598D02*
X72244D01*
Y103937D02*
Y112598D01*
X67913Y103937D02*
Y112598D01*
X146063Y46457D02*
X154724D01*
X146063Y50787D02*
X154724D01*
X146063Y46457D02*
Y50787D01*
X154724Y46457D02*
Y50787D01*
D329*
X108563Y354823D02*
X114961D01*
X108563D02*
Y363976D01*
X121358D02*
Y373130D01*
X114961D02*
X121358D01*
X108563D02*
X114961D01*
X108563Y363976D02*
Y373130D01*
X121358Y354823D02*
Y363976D01*
X114961Y354823D02*
X121358D01*
X47146Y209350D02*
Y215748D01*
Y209350D02*
X56299D01*
Y222146D02*
X65453D01*
Y215748D02*
Y222146D01*
Y209350D02*
Y215748D01*
X56299Y209350D02*
X65453D01*
X47146Y222146D02*
X56299D01*
X47146Y215748D02*
Y222146D01*
X77854Y166634D02*
Y173031D01*
Y166634D02*
X87008D01*
Y179429D02*
X96161D01*
Y173031D02*
Y179429D01*
Y166634D02*
Y173031D01*
X87008Y166634D02*
X96161D01*
X77854Y179429D02*
X87008D01*
X77854Y173031D02*
Y179429D01*
X113484Y166969D02*
X119882D01*
X113484Y157815D02*
Y166969D01*
X126279Y148661D02*
Y157815D01*
X119882Y148661D02*
X126279D01*
X113484D02*
X119882D01*
X113484D02*
Y157815D01*
X126279D02*
Y166969D01*
X119882D02*
X126279D01*
X125000Y118602D02*
X131398D01*
Y127756D01*
X118602D02*
Y136909D01*
X125000D01*
X131398D01*
Y127756D02*
Y136909D01*
X118602Y118602D02*
Y127756D01*
Y118602D02*
X125000D01*
X49410Y57631D02*
Y64029D01*
Y57631D02*
X58563D01*
Y70427D02*
X67717D01*
Y64029D02*
Y70427D01*
Y57631D02*
Y64029D01*
X58563Y57631D02*
X67717D01*
X49410Y70427D02*
X58563D01*
X49410Y64029D02*
Y70427D01*
Y43458D02*
Y49856D01*
Y43458D02*
X58563D01*
Y56253D02*
X67717D01*
Y49856D02*
Y56253D01*
Y43458D02*
Y49856D01*
X58563Y43458D02*
X67717D01*
X49410Y56253D02*
X58563D01*
X49410Y49856D02*
Y56253D01*
X98819Y43602D02*
X105217D01*
Y52756D01*
X92421D02*
Y61909D01*
X98819D01*
X105217D01*
Y52756D02*
Y61909D01*
X92421Y43602D02*
Y52756D01*
Y43602D02*
X98819D01*
M02*
