G04*
G04 #@! TF.GenerationSoftware,Altium Limited,Altium Designer,20.2.6 (244)*
G04*
G04 Layer_Color=32896*
%FSLAX25Y25*%
%MOIN*%
G70*
G04*
G04 #@! TF.SameCoordinates,AF831D56-8FB5-4C83-99E9-C392C7947E84*
G04*
G04*
G04 #@! TF.FilePolarity,Positive*
G04*
G01*
G75*
%ADD12C,0.01000*%
%ADD18C,0.00600*%
D12*
X-33496Y6000D02*
X-31496Y0D01*
X-29496Y6000D01*
X-31496Y400000D02*
X-29496Y394000D01*
X-33496D02*
X-31496Y400000D01*
Y0D02*
Y166298D01*
Y230502D02*
Y400000D01*
X-32496Y0D02*
X-1000D01*
X-32496Y400000D02*
X0D01*
X-0Y-31496D02*
X6000Y-29496D01*
X-0Y-31496D02*
X6000Y-33496D01*
X509748D02*
X515748Y-31496D01*
X509748Y-29496D02*
X515748Y-31496D01*
X-0D02*
X224172D01*
X288376D02*
X515748D01*
X-0Y-32496D02*
Y-1000D01*
X515748Y-32496D02*
Y-1000D01*
D18*
X-24993Y167898D02*
Y171834D01*
Y169866D01*
X-36800D01*
X-34832Y167898D01*
Y177737D02*
X-36800Y179705D01*
Y183641D01*
X-34832Y185609D01*
X-26960D01*
X-24993Y183641D01*
Y179705D01*
X-26960Y177737D01*
X-34832D01*
X-24993Y189545D02*
Y193480D01*
Y191513D01*
X-36800D01*
X-34832Y189545D01*
X-24993Y199384D02*
X-26960D01*
Y201352D01*
X-24993D01*
Y199384D01*
X-36800Y217095D02*
X-34832Y213159D01*
X-30896Y209223D01*
X-26960D01*
X-24993Y211191D01*
Y215127D01*
X-26960Y217095D01*
X-28928D01*
X-30896Y215127D01*
Y209223D01*
X-34832Y221030D02*
X-36800Y222998D01*
Y226934D01*
X-34832Y228902D01*
X-26960D01*
X-24993Y226934D01*
Y222998D01*
X-26960Y221030D01*
X-34832D01*
X225772Y-38000D02*
X229708D01*
X227740D01*
Y-26193D01*
X225772Y-28160D01*
X235611D02*
X237579Y-26193D01*
X241515D01*
X243483Y-28160D01*
Y-30128D01*
X241515Y-32096D01*
X239547D01*
X241515D01*
X243483Y-34064D01*
Y-36032D01*
X241515Y-38000D01*
X237579D01*
X235611Y-36032D01*
X247418Y-38000D02*
X251354D01*
X249386D01*
Y-26193D01*
X247418Y-28160D01*
X257258Y-38000D02*
Y-36032D01*
X259226D01*
Y-38000D01*
X257258D01*
X267097Y-28160D02*
X269065Y-26193D01*
X273001D01*
X274969Y-28160D01*
Y-36032D01*
X273001Y-38000D01*
X269065D01*
X267097Y-36032D01*
Y-28160D01*
X278904D02*
X280872Y-26193D01*
X284808D01*
X286776Y-28160D01*
Y-36032D01*
X284808Y-38000D01*
X280872D01*
X278904Y-36032D01*
Y-28160D01*
M02*
