G04*
G04 #@! TF.GenerationSoftware,Altium Limited,Altium Designer,20.2.6 (244)*
G04*
G04 Layer_Color=32896*
%FSLAX25Y25*%
%MOIN*%
G70*
G04*
G04 #@! TF.SameCoordinates,AF831D56-8FB5-4C83-99E9-C392C7947E84*
G04*
G04*
G04 #@! TF.FilePolarity,Positive*
G04*
G01*
G75*
%ADD11C,0.01181*%
%ADD20C,0.00500*%
%ADD22C,0.00394*%
%ADD324C,0.00200*%
%ADD325C,0.00000*%
%ADD326C,0.00781*%
G36*
X112398Y38228D02*
X109843D01*
Y40124D01*
X112398D01*
Y38228D01*
D02*
G37*
G36*
X120096Y36614D02*
X117520D01*
Y40134D01*
X120096D01*
Y36614D01*
D02*
G37*
G36*
X120089Y30748D02*
X117520D01*
Y32632D01*
X120089D01*
Y30748D01*
D02*
G37*
G36*
X112393D02*
X109843D01*
Y32629D01*
X112393D01*
Y30748D01*
D02*
G37*
G36*
X193993Y22579D02*
X191437D01*
Y24474D01*
X193993D01*
Y22579D01*
D02*
G37*
G36*
X193988Y15098D02*
X191437D01*
Y16979D01*
X193988D01*
Y15098D01*
D02*
G37*
G36*
X201691Y20965D02*
X199114D01*
Y24484D01*
X201691D01*
Y20965D01*
D02*
G37*
G36*
X348780Y17126D02*
X346895D01*
Y19695D01*
X348780D01*
Y17126D01*
D02*
G37*
G36*
X342913D02*
X339394D01*
Y19702D01*
X342913D01*
Y17126D01*
D02*
G37*
G36*
X201683Y15098D02*
X199114D01*
Y16983D01*
X201683D01*
Y15098D01*
D02*
G37*
G36*
X348780Y9449D02*
X346899D01*
Y11999D01*
X348780D01*
Y9449D01*
D02*
G37*
G36*
X341299D02*
X339404D01*
Y12005D01*
X341299D01*
Y9449D01*
D02*
G37*
G36*
X42471Y320284D02*
X40591D01*
Y322835D01*
X42471D01*
Y320284D01*
D02*
G37*
G36*
X49966Y320279D02*
X48071D01*
Y322835D01*
X49966D01*
Y320279D01*
D02*
G37*
G36*
X42475Y312588D02*
X40591D01*
Y315158D01*
X42475D01*
Y312588D01*
D02*
G37*
G36*
X49976Y312581D02*
X46457D01*
Y315158D01*
X49976D01*
Y312581D01*
D02*
G37*
G36*
X54282Y270875D02*
X52402D01*
Y273425D01*
X54282D01*
Y270875D01*
D02*
G37*
G36*
X54286Y263179D02*
X52402D01*
Y265748D01*
X54286D01*
Y263179D01*
D02*
G37*
G36*
X61777Y270869D02*
X59882D01*
Y273425D01*
X61777D01*
Y270869D01*
D02*
G37*
G36*
X61787Y263172D02*
X58268D01*
Y265748D01*
X61787D01*
Y263172D01*
D02*
G37*
G36*
X147835Y238130D02*
X145279D01*
Y240025D01*
X147835D01*
Y238130D01*
D02*
G37*
G36*
X140157Y236516D02*
X137581D01*
Y240036D01*
X140157D01*
Y236516D01*
D02*
G37*
G36*
X147835Y230650D02*
X145284D01*
Y232530D01*
X147835D01*
Y230650D01*
D02*
G37*
G36*
X140157D02*
X137588D01*
Y232534D01*
X140157D01*
Y230650D01*
D02*
G37*
D11*
X118339Y366291D02*
X117551D01*
X118339D01*
X117551D01*
X118339D01*
D20*
X51181Y314961D02*
Y320472D01*
X39370Y314961D02*
X51181D01*
X39370D02*
Y320472D01*
X51181D01*
Y314961D02*
Y320472D01*
X39370Y314961D02*
X51181D01*
X39370D02*
Y320472D01*
X51181D01*
X51181Y271063D02*
X62992D01*
X51181Y265551D02*
Y271063D01*
Y265551D02*
X62992D01*
Y271063D01*
X51181D02*
X62992D01*
X51181Y265551D02*
Y271063D01*
Y265551D02*
X62992D01*
Y271063D01*
X115256Y371063D02*
X185807D01*
X115098Y395866D02*
X185965D01*
X115256Y371063D02*
X185807D01*
X115098Y395866D02*
X185965D01*
X145472Y229429D02*
Y241240D01*
X139961Y229429D02*
X145472D01*
X139961D02*
Y241240D01*
X145472D01*
Y229429D02*
Y241240D01*
X139961Y229429D02*
X145472D01*
X139961D02*
Y241240D01*
X145472D01*
X193799Y25689D02*
X199311D01*
Y13878D02*
Y25689D01*
X193799Y13878D02*
X199311D01*
X193799D02*
Y25689D01*
X199311D01*
Y13878D02*
Y25689D01*
X193799Y13878D02*
X199311D01*
X193799D02*
Y25689D01*
X188132Y35044D02*
Y41344D01*
X191282D01*
Y35044D02*
Y41344D01*
X188132Y35044D02*
X191282D01*
X188132D02*
Y41344D01*
X191282D01*
Y35044D02*
Y41344D01*
X188132Y35044D02*
X191282D01*
X182087Y35039D02*
X185236D01*
Y41339D01*
X182087D02*
X185236D01*
X182087Y35039D02*
Y41339D01*
Y35039D02*
X185236D01*
Y41339D01*
X182087D02*
X185236D01*
X182087Y35039D02*
Y41339D01*
X235827Y303445D02*
Y309744D01*
X232677Y303445D02*
X235827D01*
X232677D02*
Y309744D01*
X235827D01*
Y303445D02*
Y309744D01*
X232677Y303445D02*
X235827D01*
X232677D02*
Y309744D01*
X235827D01*
X83169Y201870D02*
X86319D01*
X83169Y195571D02*
Y201870D01*
Y195571D02*
X86319D01*
Y201870D01*
X83169D02*
X86319D01*
X83169Y195571D02*
Y201870D01*
Y195571D02*
X86319D01*
Y201870D01*
X435138Y387008D02*
X441437D01*
Y383858D02*
Y387008D01*
X435138Y383858D02*
X441437D01*
X435138D02*
Y387008D01*
X441437D01*
Y383858D02*
Y387008D01*
X435138Y383858D02*
X441437D01*
X435138D02*
Y387008D01*
X89764Y75590D02*
Y78740D01*
X83465D02*
X89764D01*
X83465Y75590D02*
Y78740D01*
Y75590D02*
X89764D01*
Y78740D01*
X83465D02*
X89764D01*
X83465Y75590D02*
Y78740D01*
Y75590D02*
X89764D01*
X55905Y126378D02*
Y132677D01*
X59055D01*
Y126378D02*
Y132677D01*
X55905Y126378D02*
X59055D01*
X55905D02*
Y132677D01*
X59055D01*
Y126378D02*
Y132677D01*
X55905Y126378D02*
X59055D01*
X55905Y114567D02*
X59055D01*
Y120866D01*
X55905D02*
X59055D01*
X55905Y114567D02*
Y120866D01*
Y114567D02*
X59055D01*
Y120866D01*
X55905D02*
X59055D01*
X55905Y114567D02*
Y120866D01*
X46358Y95965D02*
X52658D01*
X46358D02*
Y99114D01*
X52658D01*
Y95965D02*
Y99114D01*
X46358Y95965D02*
X52658D01*
X46358D02*
Y99114D01*
X52658D01*
Y95965D02*
Y99114D01*
X42913Y15354D02*
Y18504D01*
Y15354D02*
X49213D01*
Y18504D01*
X42913D02*
X49213D01*
X42913Y15354D02*
Y18504D01*
Y15354D02*
X49213D01*
Y18504D01*
X42913D02*
X49213D01*
X290158Y193307D02*
X296457D01*
Y190157D02*
Y193307D01*
X290158Y190157D02*
X296457D01*
X290158D02*
Y193307D01*
X296457D01*
Y190157D02*
Y193307D01*
X290158Y190157D02*
X296457D01*
X290158D02*
Y193307D01*
X515354Y169980D02*
X517717Y167618D01*
X500197D02*
X503986D01*
X511565D02*
X515354D01*
Y169980D01*
Y192224D02*
X517717D01*
X515354Y172539D02*
X517717D01*
X516536Y198327D02*
X517717Y197146D01*
X515354Y194783D02*
X517717Y197146D01*
X515354D02*
X516536Y198327D01*
Y166437D02*
X517717Y167618D01*
X515354D02*
X516536Y166437D01*
X500197Y197146D02*
X515354D01*
X503986Y167618D02*
X511565D01*
X517717Y172539D02*
Y192224D01*
X515354Y167618D02*
Y169980D01*
Y172539D01*
Y192224D01*
Y194783D01*
Y197146D01*
X495669Y174508D02*
X496654Y175295D01*
X495669Y190256D02*
Y197146D01*
Y167618D02*
Y174508D01*
Y197146D02*
X500197D01*
X495669Y167618D02*
X500197D01*
X495669Y190256D02*
X496654Y189469D01*
Y175295D02*
Y189469D01*
X515354Y192224D02*
X517717D01*
X515354Y172539D02*
X517717D01*
X516536Y198327D02*
X517717Y197146D01*
X515354Y194783D02*
X517717Y197146D01*
X515354D02*
X516536Y198327D01*
Y166437D02*
X517717Y167618D01*
X515354Y169980D02*
X517717Y167618D01*
X515354D02*
X516536Y166437D01*
X500197Y197146D02*
X515354D01*
X500197Y167618D02*
X515354D01*
X517717Y172539D02*
Y192224D01*
X515354Y169980D02*
Y172539D01*
Y192224D01*
Y194783D01*
Y197146D01*
X495669Y174508D02*
X496654Y175295D01*
X495669Y190256D02*
Y197146D01*
Y167618D02*
Y174508D01*
Y197146D02*
X500197D01*
X495669Y167618D02*
X500197D01*
X495669Y190256D02*
X496654Y189469D01*
Y175295D02*
Y189469D01*
X237697Y19094D02*
X251870D01*
X252658Y20079D01*
X230020Y15551D02*
Y20079D01*
X259547Y15551D02*
Y20079D01*
X230020D02*
X236910D01*
X252658D02*
X259547D01*
X236910D02*
X237697Y19094D01*
X257185Y394D02*
X259547D01*
X254626D02*
X257185D01*
X234941D02*
X254626D01*
X232382D02*
X234941D01*
Y-1969D02*
X254626D01*
X230020Y394D02*
Y15551D01*
X259547Y394D02*
Y15551D01*
X228839Y-787D02*
X230020Y394D01*
Y-1969D02*
X232382Y394D01*
X228839Y-787D02*
X230020Y-1969D01*
X259547Y394D02*
X260728Y-787D01*
X257185Y394D02*
X259547Y-1969D01*
X260728Y-787D01*
X234941Y-1969D02*
Y394D01*
X254626Y-1969D02*
Y394D01*
X237697Y19094D02*
X251870D01*
X252658Y20079D01*
X230020Y15551D02*
Y20079D01*
X259547Y15551D02*
Y20079D01*
X230020D02*
X236910D01*
X252658D02*
X259547D01*
X236910D02*
X237697Y19094D01*
X257185Y394D02*
X259547D01*
X254626D02*
X257185D01*
X234941D02*
X254626D01*
X232382D02*
X234941D01*
X230020D02*
X232382D01*
X234941Y-1969D02*
X254626D01*
X230020Y4183D02*
Y11762D01*
X259547Y394D02*
Y15551D01*
X228839Y-787D02*
X230020Y394D01*
X228839Y-787D02*
X230020Y-1969D01*
X259547Y394D02*
X260728Y-787D01*
X257185Y394D02*
X259547Y-1969D01*
X260728Y-787D01*
X234941Y-1969D02*
Y394D01*
X254626Y-1969D02*
Y394D01*
X230020D02*
X232382D01*
X230020D02*
Y4183D01*
Y11762D02*
Y15551D01*
Y-1969D02*
X232382Y394D01*
X112205Y29528D02*
Y41339D01*
Y29528D02*
X117717D01*
Y41339D01*
X112205D02*
X117717D01*
X112205Y29528D02*
Y41339D01*
Y29528D02*
X117717D01*
Y41339D01*
X112205D02*
X117717D01*
X338189Y11811D02*
Y17323D01*
X350000D01*
Y11811D02*
Y17323D01*
X338189Y11811D02*
X350000D01*
X338189D02*
Y17323D01*
X350000D01*
Y11811D02*
Y17323D01*
X338189Y11811D02*
X350000D01*
D22*
X502953Y197146D02*
X510827D01*
X502953Y167618D02*
X510827D01*
X502953Y197146D02*
X510827D01*
X502953Y167618D02*
X510827D01*
X230020Y4921D02*
Y12795D01*
X259547Y4921D02*
Y12795D01*
X230020Y4921D02*
Y12795D01*
X259547Y4921D02*
Y12795D01*
D324*
X333585Y124409D02*
X333291Y125313D01*
X332522Y125872D01*
X331572D01*
X330803Y125313D01*
X330510Y124409D01*
X330803Y123506D01*
X331572Y122947D01*
X332522D01*
X333291Y123506D01*
X333585Y124409D01*
X333291Y125313D01*
X332522Y125872D01*
X331572D01*
X330803Y125313D01*
X330510Y124409D01*
X330803Y123506D01*
X331572Y122947D01*
X332522D01*
X333291Y123506D01*
X333585Y124409D01*
D325*
X248997Y384603D02*
X249348Y383755D01*
X250197Y383403D01*
X251045Y383755D01*
X251397Y384603D01*
X248997D02*
X249348Y383755D01*
X250197Y383403D01*
X251045Y383755D01*
X251397Y384603D01*
X248997D02*
X251397D01*
X248997D02*
X251397D01*
D326*
X133616Y378743D02*
X130805Y386123D01*
X127993Y378743D01*
X129048Y381203D02*
X132562D01*
X135338Y386123D02*
Y378743D01*
Y386123D02*
X140259Y378743D01*
Y386123D02*
Y378743D01*
X144757Y386123D02*
Y378743D01*
X142297Y386123D02*
X147217D01*
X152664D02*
X148096D01*
Y378743D01*
X152664D01*
X148096Y382609D02*
X150907D01*
X153895Y386123D02*
Y378743D01*
Y386123D02*
X158815Y378743D01*
Y386123D02*
Y378743D01*
X160853Y386123D02*
Y378743D01*
Y386123D02*
X165773Y378743D01*
Y386123D02*
Y378743D01*
X173435D02*
X170623Y386123D01*
X167812Y378743D01*
X168866Y381203D02*
X172380D01*
X133616Y378743D02*
X130805Y386123D01*
X127993Y378743D01*
X129048Y381203D02*
X132562D01*
X135338Y386123D02*
Y378743D01*
Y386123D02*
X140259Y378743D01*
Y386123D02*
Y378743D01*
X144757Y386123D02*
Y378743D01*
X142297Y386123D02*
X147217D01*
X152664D02*
X148096D01*
Y378743D01*
X152664D01*
X148096Y382609D02*
X150907D01*
X153895Y386123D02*
Y378743D01*
Y386123D02*
X158815Y378743D01*
Y386123D02*
Y378743D01*
X160853Y386123D02*
Y378743D01*
Y386123D02*
X165773Y378743D01*
Y386123D02*
Y378743D01*
X173435D02*
X170623Y386123D01*
X167812Y378743D01*
X168866Y381203D02*
X172380D01*
M02*
