G04*
G04 #@! TF.GenerationSoftware,Altium Limited,Altium Designer,20.0.9 (164)*
G04*
G04 Layer_Physical_Order=3*
G04 Layer_Color=128*
%FSLAX25Y25*%
%MOIN*%
G70*
G01*
G75*
%ADD10C,0.00787*%
%ADD12C,0.01000*%
%ADD22C,0.00394*%
%ADD23C,0.00984*%
%ADD270C,0.04000*%
%ADD271C,0.08724*%
%ADD272O,0.06362X0.10693*%
%ADD274C,0.06559*%
%ADD275O,0.11874X0.23685*%
%ADD276C,0.17779*%
%ADD277C,0.11087*%
%ADD278C,0.19748*%
%ADD279C,0.11874*%
%ADD280C,0.07000*%
%ADD281C,0.06362*%
%ADD282C,0.07150*%
%ADD283C,0.07937*%
%ADD284C,0.06756*%
%ADD285C,0.05181*%
%ADD286C,0.05575*%
%ADD287C,0.08000*%
G36*
X188976Y370472D02*
X112205D01*
Y398031D01*
X188976D01*
Y370472D01*
D02*
G37*
G36*
X358661Y240945D02*
X340158D01*
Y247244D01*
X358661D01*
Y240945D01*
D02*
G37*
G36*
X161122Y167126D02*
Y154134D01*
X150984Y143701D01*
X138189D01*
X128051Y154134D01*
Y167126D01*
X138189Y177559D01*
X150984D01*
X161122Y167126D01*
D02*
G37*
G36*
X75197Y5906D02*
X65748D01*
Y32677D01*
X75197D01*
Y5906D01*
D02*
G37*
D10*
X106693Y108268D02*
X107480D01*
X108661Y107087D01*
X35236Y80088D02*
X35660D01*
X486467Y170669D02*
X493110D01*
X484498Y172638D02*
X486467Y170669D01*
X464567Y172638D02*
X473179D01*
X485236Y180512D02*
X486221Y179528D01*
X470472Y180512D02*
X485236D01*
X460630Y190354D02*
X470472Y180512D01*
X443898Y190354D02*
X460630D01*
X442913Y189370D02*
X443898Y190354D01*
X442913Y185433D02*
Y189370D01*
Y185433D02*
X443898Y184449D01*
X452756D01*
X464567Y172638D01*
X473179D02*
X484498D01*
X493110Y170669D02*
X495079Y172638D01*
Y176575D01*
X492126Y179528D02*
X495079Y176575D01*
X486221Y179528D02*
X492126D01*
X18504Y125984D02*
X20472Y127953D01*
X35433Y79921D02*
Y122835D01*
X31890Y76378D02*
X35433Y79921D01*
X25591Y76378D02*
X31890D01*
X18504Y83465D02*
X25591Y76378D01*
X18504Y83465D02*
Y125984D01*
X121949Y36909D02*
X122835Y37795D01*
X168110Y98819D02*
Y102362D01*
X113975Y118309D02*
X115059Y117224D01*
X126969D02*
X132185Y112008D01*
Y107185D02*
Y112008D01*
Y107185D02*
X141240Y98130D01*
X150787D01*
X152461Y96457D01*
X165748D01*
X168110Y98819D01*
X164469Y106004D02*
X168110Y102362D01*
X159646Y106004D02*
X164469D01*
X153740Y111909D02*
X159646Y106004D01*
X143504Y111909D02*
X153740D01*
X136221Y119193D02*
X143504Y111909D01*
X136221Y119193D02*
Y119291D01*
X211811Y0D02*
X216535D01*
X182283Y18504D02*
Y22047D01*
Y18504D02*
X186221Y14567D01*
X184252Y0D02*
Y4232D01*
X186221Y6201D01*
X176378Y0D02*
X184252D01*
X186221Y6201D02*
Y14567D01*
X182283Y22047D02*
X186221Y25984D01*
X203937D01*
X216929Y5118D02*
Y12992D01*
X203937Y25984D02*
X216929Y12992D01*
X211811Y0D02*
X216929Y5118D01*
X47539Y185728D02*
X55905Y194095D01*
X74803D01*
X76378Y195669D01*
Y197244D01*
Y197244D01*
X73228Y200394D02*
X76378Y197244D01*
X73228Y200394D02*
Y205512D01*
X69685Y209055D02*
X73228Y205512D01*
X62205Y209055D02*
X69685D01*
X55512Y215748D02*
X62205Y209055D01*
X55512Y215748D02*
Y220866D01*
X29232Y138227D02*
X33685D01*
X69291Y132283D02*
Y148425D01*
X68602Y149114D02*
X69291Y148425D01*
X45374Y149114D02*
X68602D01*
X44094Y150394D02*
X45374Y149114D01*
X44094Y150394D02*
Y161122D01*
X47539Y164567D01*
Y185728D01*
X53937Y222441D02*
X55512Y220866D01*
X37795Y222441D02*
X53937D01*
X21457Y206102D02*
X37795Y222441D01*
X21457Y153248D02*
Y206102D01*
Y153248D02*
X29232Y145472D01*
Y138227D02*
Y145472D01*
X37008Y138189D02*
X42913Y132283D01*
X19685Y138189D02*
X37008D01*
X54626Y74508D02*
Y96752D01*
X58071Y100197D01*
X66339D01*
X69685Y96850D01*
Y74803D02*
Y96850D01*
X67028Y72146D02*
X69685Y74803D01*
X56988Y72146D02*
X67028D01*
X54626Y74508D02*
X56988Y72146D01*
X122047Y62106D02*
Y68110D01*
X119193Y59252D02*
X122047Y62106D01*
X112500Y59252D02*
X119193D01*
X110236Y41437D02*
X114370Y45571D01*
X110236Y33858D02*
Y41437D01*
X83858Y68996D02*
X86122Y71260D01*
X90158D01*
X122835Y37795D02*
Y44488D01*
X121752Y45571D02*
X122835Y44488D01*
X114370Y45571D02*
X121752D01*
X108169Y31791D02*
X110236Y33858D01*
X108169Y29035D02*
Y31791D01*
X106693Y27559D02*
X108169Y29035D01*
X103937Y27559D02*
X106693D01*
X102854Y28642D02*
X103937Y27559D01*
X102854Y28642D02*
Y38878D01*
X98819Y42913D02*
X102854Y38878D01*
X93307Y42913D02*
X98819D01*
X83858Y52362D02*
X93307Y42913D01*
X83858Y52362D02*
Y68996D01*
X90158Y71260D02*
X93701Y74803D01*
Y105905D01*
X96063Y108268D01*
X106693D01*
X108661Y96850D02*
Y107087D01*
X104724Y92913D02*
X108661Y96850D01*
X104724Y67028D02*
Y92913D01*
Y67028D02*
X112500Y59252D01*
X122047Y68110D02*
X123721Y69784D01*
Y76772D01*
X126673Y79724D01*
X131496D01*
X133268Y77953D01*
Y70866D02*
Y77953D01*
X130315Y67913D02*
X133268Y70866D01*
X130315Y50394D02*
Y67913D01*
X127461Y47539D02*
X130315Y50394D01*
X127461Y36516D02*
Y47539D01*
X125821Y29167D02*
X127461Y30807D01*
X123195Y29167D02*
X125821D01*
X121949Y30413D02*
X123195Y29167D01*
X127461Y30807D02*
Y36516D01*
X121949Y30413D02*
Y36909D01*
X118898Y129134D02*
X120472Y127559D01*
X118898Y129134D02*
Y137795D01*
X76378Y132283D02*
X88189Y144095D01*
X112598D01*
X118898Y137795D01*
X120472Y127559D02*
X130315D01*
X135433D01*
X136221Y126772D01*
Y119291D02*
Y126772D01*
X115059Y117224D02*
X126969D01*
X111024Y121260D02*
X113975Y118309D01*
X111024Y121260D02*
Y133465D01*
X109055Y135433D02*
X111024Y133465D01*
X98819Y135433D02*
X109055D01*
X86221Y122835D02*
X98819Y135433D01*
X35433Y122835D02*
X86221D01*
X30315Y127953D02*
X35433Y122835D01*
X28150Y127953D02*
X30315D01*
X42913Y132283D02*
X76378D01*
X20079Y127953D02*
X28150D01*
X17717Y130315D02*
X20079Y127953D01*
X17717Y130315D02*
Y136221D01*
X19685Y138189D01*
D12*
X58071Y100197D02*
Y122835D01*
X35660Y80088D02*
X39862Y75886D01*
X54626D01*
D22*
X135827Y1969D02*
X136614D01*
X93307D02*
X94095D01*
D23*
X437795Y400000D02*
X459634D01*
X377953D02*
X382677D01*
X437795Y383858D02*
Y400000D01*
X428740Y374803D02*
X437795Y383858D01*
X387008Y374803D02*
X428740D01*
X384252Y377559D02*
X387008Y374803D01*
X384252Y377559D02*
Y382283D01*
X382677Y383858D02*
X384252Y382283D01*
X382677Y383858D02*
Y400000D01*
X94095Y1969D02*
Y10236D01*
X98032Y14173D01*
X131890D01*
X131890D02*
X135827Y10236D01*
Y1969D02*
Y10236D01*
D270*
X-0Y0D02*
X-0Y400000D01*
X515748D01*
X515748Y0D02*
X515748Y400000D01*
X-0Y0D02*
X515748Y0D01*
D271*
X230591Y28346D02*
D03*
X220590D02*
D03*
X495768Y135079D02*
D03*
Y145079D02*
D03*
Y155079D02*
D03*
X24213Y282087D02*
D03*
X42717D02*
D03*
X42717Y254331D02*
D03*
X24213D02*
D03*
X42717Y335630D02*
D03*
X24213D02*
D03*
Y299606D02*
D03*
X42717D02*
D03*
X28346Y61890D02*
D03*
X272441Y6811D02*
D03*
X367717Y6024D02*
D03*
Y16024D02*
D03*
X412205Y95118D02*
D03*
Y105118D02*
D03*
Y115118D02*
D03*
Y65118D02*
D03*
Y75118D02*
D03*
Y85118D02*
D03*
X479410Y354331D02*
D03*
X489409D02*
D03*
X499409D02*
D03*
X449409D02*
D03*
X459410D02*
D03*
X469410D02*
D03*
X201457Y7972D02*
D03*
X191457D02*
D03*
X356004Y26083D02*
D03*
Y16083D02*
D03*
Y6083D02*
D03*
D272*
X97953Y22766D02*
D03*
X131968D02*
D03*
D274*
X103583Y20679D02*
D03*
X126339D02*
D03*
D275*
X335335Y172343D02*
D03*
X27461Y228642D02*
D03*
D276*
X72736Y231988D02*
D03*
X290059Y168996D02*
D03*
X23622Y376378D02*
D03*
X492126Y376378D02*
D03*
X492126Y23622D02*
D03*
X23622Y23622D02*
D03*
D277*
X40256Y168996D02*
D03*
X322539Y231988D02*
D03*
D278*
X181398Y200492D02*
D03*
D279*
X322146D02*
D03*
D280*
X315748Y14110D02*
D03*
X310748D02*
D03*
X305748D02*
D03*
X300748D02*
D03*
X295748D02*
D03*
X315748Y9110D02*
D03*
X305748D02*
D03*
X300748D02*
D03*
X310748D02*
D03*
X295748D02*
D03*
X320748D02*
D03*
Y14110D02*
D03*
X325748Y9110D02*
D03*
Y14110D02*
D03*
D281*
X239764Y148819D02*
D03*
Y143701D02*
D03*
D282*
X121850Y94784D02*
D03*
X461417Y378740D02*
D03*
X469291Y18110D02*
D03*
X149606Y253937D02*
D03*
X144095Y9055D02*
D03*
X279528Y144882D02*
D03*
X237795Y346850D02*
D03*
X505905Y135433D02*
D03*
X114961Y180315D02*
D03*
X80315Y275984D02*
D03*
X191732Y67716D02*
D03*
X16142Y317520D02*
D03*
X368898Y208268D02*
D03*
X161811Y177165D02*
D03*
X498917Y189784D02*
D03*
Y174980D02*
D03*
X237382Y16831D02*
D03*
X252185D02*
D03*
X493898Y256004D02*
D03*
Y263878D02*
D03*
Y271752D02*
D03*
Y279626D02*
D03*
Y295374D02*
D03*
Y303248D02*
D03*
Y311122D02*
D03*
X439764Y256004D02*
D03*
Y263878D02*
D03*
Y271752D02*
D03*
Y279626D02*
D03*
Y287500D02*
D03*
Y295374D02*
D03*
Y303248D02*
D03*
Y311122D02*
D03*
D283*
X280098Y250445D02*
D03*
Y260445D02*
D03*
Y270445D02*
D03*
Y280445D02*
D03*
Y290445D02*
D03*
Y300445D02*
D03*
Y310445D02*
D03*
Y380445D02*
D03*
Y370445D02*
D03*
Y360445D02*
D03*
Y350445D02*
D03*
Y340445D02*
D03*
Y330445D02*
D03*
Y320445D02*
D03*
X420098Y250445D02*
D03*
Y320445D02*
D03*
Y310445D02*
D03*
Y300445D02*
D03*
Y290445D02*
D03*
Y280445D02*
D03*
Y270445D02*
D03*
Y260445D02*
D03*
Y330445D02*
D03*
Y350445D02*
D03*
Y360445D02*
D03*
Y370445D02*
D03*
Y380445D02*
D03*
Y390445D02*
D03*
X24016Y143071D02*
D03*
X295276Y124409D02*
D03*
X305118D02*
D03*
D284*
X505748Y66791D02*
D03*
Y74665D02*
D03*
Y82539D02*
D03*
Y90413D02*
D03*
Y98287D02*
D03*
Y106161D02*
D03*
Y114035D02*
D03*
Y121909D02*
D03*
X442756Y66791D02*
D03*
Y74665D02*
D03*
Y82539D02*
D03*
Y90413D02*
D03*
Y98287D02*
D03*
Y114035D02*
D03*
Y121909D02*
D03*
D285*
X204724Y79528D02*
D03*
X222835Y181890D02*
D03*
X183465Y187795D02*
D03*
X195669Y202756D02*
D03*
X503937Y31496D02*
D03*
Y11811D02*
D03*
Y21654D02*
D03*
X59055Y388189D02*
D03*
X59055Y382283D02*
D03*
X59055Y376378D02*
D03*
X59055Y370472D02*
D03*
X59055Y364567D02*
D03*
X74803D02*
D03*
X74803Y370472D02*
D03*
X74803Y376378D02*
D03*
X74803Y382283D02*
D03*
X74803Y388189D02*
D03*
X289331Y320000D02*
D03*
X395669Y388189D02*
D03*
X504331Y350000D02*
D03*
X509331Y300000D02*
D03*
X504331Y130000D02*
D03*
Y110000D02*
D03*
X509331Y60000D02*
D03*
X494331Y350000D02*
D03*
Y230000D02*
D03*
X499331Y180000D02*
D03*
Y160000D02*
D03*
Y120000D02*
D03*
X494331Y110000D02*
D03*
X499331Y60000D02*
D03*
X484331Y350000D02*
D03*
X489331Y120000D02*
D03*
Y40000D02*
D03*
X479331Y380000D02*
D03*
X474331Y370000D02*
D03*
X479331Y200000D02*
D03*
Y120000D02*
D03*
Y80000D02*
D03*
Y40000D02*
D03*
X474331Y30000D02*
D03*
X479331Y20000D02*
D03*
X469331Y380000D02*
D03*
X464331Y370000D02*
D03*
Y350000D02*
D03*
Y330000D02*
D03*
Y310000D02*
D03*
Y290000D02*
D03*
X469331Y80000D02*
D03*
Y40000D02*
D03*
X454331Y370000D02*
D03*
Y350000D02*
D03*
X459331Y320000D02*
D03*
Y300000D02*
D03*
X454331Y170000D02*
D03*
X444331Y390000D02*
D03*
X449331Y380000D02*
D03*
X444331Y370000D02*
D03*
Y350000D02*
D03*
Y270000D02*
D03*
X449331Y100000D02*
D03*
Y80000D02*
D03*
X439331Y380000D02*
D03*
X434331Y370000D02*
D03*
X439331Y360000D02*
D03*
X434331Y350000D02*
D03*
X439331Y340000D02*
D03*
X434331Y90000D02*
D03*
X429331Y380000D02*
D03*
Y360000D02*
D03*
Y340000D02*
D03*
Y320000D02*
D03*
Y180000D02*
D03*
Y160000D02*
D03*
X424331Y90000D02*
D03*
Y70000D02*
D03*
X414331Y370000D02*
D03*
Y350000D02*
D03*
Y330000D02*
D03*
X419331Y80000D02*
D03*
X409331Y380000D02*
D03*
X404331Y370000D02*
D03*
X409331Y360000D02*
D03*
X399331Y380000D02*
D03*
X394331Y370000D02*
D03*
Y210000D02*
D03*
Y190000D02*
D03*
X389331Y380000D02*
D03*
X384331Y370000D02*
D03*
X389331Y360000D02*
D03*
X384331Y350000D02*
D03*
X389331Y340000D02*
D03*
Y320000D02*
D03*
X384331Y310000D02*
D03*
X389331Y220000D02*
D03*
X384331Y210000D02*
D03*
X389331Y180000D02*
D03*
X379331Y380000D02*
D03*
X374331Y370000D02*
D03*
X379331Y360000D02*
D03*
X374331Y350000D02*
D03*
X379331Y340000D02*
D03*
X374331Y330000D02*
D03*
X379331Y320000D02*
D03*
Y220000D02*
D03*
X374331Y30000D02*
D03*
X364331Y370000D02*
D03*
X369331Y360000D02*
D03*
X364331Y350000D02*
D03*
X369331Y340000D02*
D03*
X364331Y330000D02*
D03*
Y270000D02*
D03*
X369331Y260000D02*
D03*
X359331Y380000D02*
D03*
X354331Y370000D02*
D03*
X359331Y360000D02*
D03*
X354331Y350000D02*
D03*
X359331Y340000D02*
D03*
X354331Y330000D02*
D03*
X359331Y320000D02*
D03*
X354331Y270000D02*
D03*
Y230000D02*
D03*
X359331Y220000D02*
D03*
Y200000D02*
D03*
X349331Y380000D02*
D03*
X344331Y370000D02*
D03*
Y350000D02*
D03*
X349331Y340000D02*
D03*
X344331Y330000D02*
D03*
X349331Y320000D02*
D03*
X344331Y270000D02*
D03*
X349331Y260000D02*
D03*
X344331Y230000D02*
D03*
X349331Y220000D02*
D03*
Y180000D02*
D03*
X344331Y10000D02*
D03*
X339331Y380000D02*
D03*
X334331Y370000D02*
D03*
X339331Y360000D02*
D03*
X334331Y350000D02*
D03*
X339331Y340000D02*
D03*
X334331Y330000D02*
D03*
X339331Y320000D02*
D03*
X334331Y270000D02*
D03*
X339331Y260000D02*
D03*
X334331Y250000D02*
D03*
Y230000D02*
D03*
X339331Y220000D02*
D03*
X329331Y380000D02*
D03*
X324331Y370000D02*
D03*
X329331Y360000D02*
D03*
X324331Y350000D02*
D03*
Y330000D02*
D03*
X329331Y320000D02*
D03*
X324331Y270000D02*
D03*
X329331Y260000D02*
D03*
X324331Y250000D02*
D03*
X329331Y220000D02*
D03*
X324331Y210000D02*
D03*
Y190000D02*
D03*
X329331Y180000D02*
D03*
X319331Y380000D02*
D03*
X314331Y370000D02*
D03*
X319331Y360000D02*
D03*
X314331Y350000D02*
D03*
X319331Y340000D02*
D03*
X314331Y330000D02*
D03*
X319331Y320000D02*
D03*
X314331Y270000D02*
D03*
X319331Y260000D02*
D03*
X314331Y250000D02*
D03*
X319331Y220000D02*
D03*
X309331Y380000D02*
D03*
Y360000D02*
D03*
Y340000D02*
D03*
X304331Y270000D02*
D03*
X309331Y260000D02*
D03*
X304331Y250000D02*
D03*
Y230000D02*
D03*
X299331Y380000D02*
D03*
X294331Y270000D02*
D03*
Y250000D02*
D03*
Y230000D02*
D03*
Y210000D02*
D03*
X299331Y200000D02*
D03*
X289331Y260000D02*
D03*
X284331Y230000D02*
D03*
X289331Y200000D02*
D03*
Y20000D02*
D03*
X284331Y10000D02*
D03*
X274331Y310000D02*
D03*
X279331Y200000D02*
D03*
Y20000D02*
D03*
X269331Y380000D02*
D03*
Y320000D02*
D03*
X264331Y310000D02*
D03*
X269331Y300000D02*
D03*
X264331Y290000D02*
D03*
X269331Y280000D02*
D03*
X264331Y270000D02*
D03*
X269331Y260000D02*
D03*
X264331Y250000D02*
D03*
Y230000D02*
D03*
X269331Y200000D02*
D03*
Y160000D02*
D03*
X259331Y360000D02*
D03*
Y200000D02*
D03*
Y40000D02*
D03*
X249331Y200000D02*
D03*
X244331Y170000D02*
D03*
X249331Y140000D02*
D03*
X234331Y370000D02*
D03*
Y310000D02*
D03*
Y250000D02*
D03*
Y230000D02*
D03*
Y210000D02*
D03*
X229331Y320000D02*
D03*
X224331Y310000D02*
D03*
Y250000D02*
D03*
Y130000D02*
D03*
X229331Y120000D02*
D03*
X214331Y350000D02*
D03*
Y170000D02*
D03*
Y30000D02*
D03*
X219331Y20000D02*
D03*
X199331Y380000D02*
D03*
X194331Y250000D02*
D03*
X199331Y240000D02*
D03*
X194331Y230000D02*
D03*
X199331Y220000D02*
D03*
X184331Y290000D02*
D03*
Y270000D02*
D03*
Y250000D02*
D03*
X189331Y240000D02*
D03*
X184331Y230000D02*
D03*
X189331Y220000D02*
D03*
X179331Y360000D02*
D03*
X174331Y350000D02*
D03*
X179331Y340000D02*
D03*
X174331Y330000D02*
D03*
Y310000D02*
D03*
X179331Y260000D02*
D03*
X174331Y250000D02*
D03*
X179331Y220000D02*
D03*
Y20000D02*
D03*
X169331Y360000D02*
D03*
Y340000D02*
D03*
X164331Y310000D02*
D03*
Y270000D02*
D03*
Y250000D02*
D03*
X169331Y240000D02*
D03*
X164331Y170000D02*
D03*
Y90000D02*
D03*
X159331Y360000D02*
D03*
Y320000D02*
D03*
X154331Y310000D02*
D03*
Y110000D02*
D03*
X149331Y320000D02*
D03*
X144331Y310000D02*
D03*
Y250000D02*
D03*
X139331Y320000D02*
D03*
X134331Y310000D02*
D03*
Y270000D02*
D03*
Y250000D02*
D03*
X129331Y340000D02*
D03*
X124331Y330000D02*
D03*
X129331Y320000D02*
D03*
X124331Y310000D02*
D03*
Y270000D02*
D03*
Y250000D02*
D03*
Y110000D02*
D03*
Y90000D02*
D03*
X114331Y270000D02*
D03*
X119331Y260000D02*
D03*
X114331Y250000D02*
D03*
X119331Y240000D02*
D03*
X114331Y230000D02*
D03*
X119331Y200000D02*
D03*
X109331Y380000D02*
D03*
X104331Y270000D02*
D03*
Y250000D02*
D03*
X109331Y240000D02*
D03*
X104331Y230000D02*
D03*
X109331Y220000D02*
D03*
Y180000D02*
D03*
Y160000D02*
D03*
X104331Y90000D02*
D03*
Y70000D02*
D03*
X99331Y380000D02*
D03*
X94331Y330000D02*
D03*
Y290000D02*
D03*
X99331Y260000D02*
D03*
X94331Y250000D02*
D03*
X99331Y240000D02*
D03*
X94331Y210000D02*
D03*
X99331Y80000D02*
D03*
Y40000D02*
D03*
X89331Y280000D02*
D03*
X84331Y270000D02*
D03*
X89331Y20000D02*
D03*
X74331Y350000D02*
D03*
X79331Y340000D02*
D03*
X74331Y330000D02*
D03*
Y290000D02*
D03*
Y270000D02*
D03*
Y250000D02*
D03*
X79331Y120000D02*
D03*
X64331Y350000D02*
D03*
X69331Y340000D02*
D03*
X64331Y290000D02*
D03*
X69331Y280000D02*
D03*
X64331Y250000D02*
D03*
Y170000D02*
D03*
X69331Y160000D02*
D03*
Y120000D02*
D03*
X54331Y350000D02*
D03*
X59331Y340000D02*
D03*
X54331Y290000D02*
D03*
X59331Y280000D02*
D03*
Y260000D02*
D03*
Y240000D02*
D03*
X54331Y230000D02*
D03*
X59331Y200000D02*
D03*
X54331Y190000D02*
D03*
X59331Y160000D02*
D03*
Y60000D02*
D03*
X49331Y380000D02*
D03*
X44331Y370000D02*
D03*
X49331Y360000D02*
D03*
X44331Y350000D02*
D03*
Y290000D02*
D03*
X49331Y240000D02*
D03*
X44331Y230000D02*
D03*
Y190000D02*
D03*
Y110000D02*
D03*
Y90000D02*
D03*
Y70000D02*
D03*
Y50000D02*
D03*
Y10000D02*
D03*
X39331Y380000D02*
D03*
X34331Y370000D02*
D03*
X39331Y360000D02*
D03*
X34331Y330000D02*
D03*
Y290000D02*
D03*
Y250000D02*
D03*
X39331Y240000D02*
D03*
X34331Y230000D02*
D03*
X39331Y220000D02*
D03*
X34331Y210000D02*
D03*
Y190000D02*
D03*
X39331Y180000D02*
D03*
Y160000D02*
D03*
X34331Y150000D02*
D03*
X39331Y120000D02*
D03*
X34331Y110000D02*
D03*
X39331Y100000D02*
D03*
Y80000D02*
D03*
X34331Y70000D02*
D03*
X39331Y60000D02*
D03*
X34331Y50000D02*
D03*
X39331Y40000D02*
D03*
X34331Y30000D02*
D03*
X39331Y20000D02*
D03*
X29331Y360000D02*
D03*
X24331Y290000D02*
D03*
X29331Y280000D02*
D03*
Y260000D02*
D03*
Y240000D02*
D03*
Y180000D02*
D03*
X24331Y170000D02*
D03*
X29331Y160000D02*
D03*
X24331Y150000D02*
D03*
Y110000D02*
D03*
X29331Y100000D02*
D03*
X24331Y70000D02*
D03*
Y50000D02*
D03*
X29331Y40000D02*
D03*
X19331Y360000D02*
D03*
X14331Y310000D02*
D03*
X19331Y260000D02*
D03*
Y240000D02*
D03*
Y220000D02*
D03*
Y180000D02*
D03*
Y160000D02*
D03*
Y100000D02*
D03*
Y80000D02*
D03*
Y60000D02*
D03*
Y40000D02*
D03*
X294560Y141488D02*
D03*
X293701Y148819D02*
D03*
X260236Y158268D02*
D03*
X278740Y157087D02*
D03*
X265354Y164961D02*
D03*
X276378Y163779D02*
D03*
X402756Y90158D02*
D03*
X362992Y82284D02*
D03*
X349213Y87008D02*
D03*
X432480Y6988D02*
D03*
X415354Y12205D02*
D03*
X463386Y157283D02*
D03*
X473601Y146761D02*
D03*
X468504Y141339D02*
D03*
X150984Y362894D02*
D03*
X142028D02*
D03*
X133071D02*
D03*
X326378Y173622D02*
D03*
X326772Y166535D02*
D03*
X345276Y167323D02*
D03*
X344882Y174409D02*
D03*
X354724Y167323D02*
D03*
Y174409D02*
D03*
X375984Y88583D02*
D03*
X329134Y81102D02*
D03*
X338189Y83071D02*
D03*
X51181Y388189D02*
D03*
X41339D02*
D03*
X31496Y388189D02*
D03*
X80709Y388189D02*
D03*
X111221Y49606D02*
D03*
X108268Y82087D02*
D03*
X94488D02*
D03*
X108268Y90945D02*
D03*
X94488D02*
D03*
X70866Y155905D02*
D03*
X59055D02*
D03*
X74803Y159843D02*
D03*
X66929Y163779D02*
D03*
X59055D02*
D03*
X66929Y175591D02*
D03*
X59055D02*
D03*
X219291Y11811D02*
D03*
X376181Y7924D02*
D03*
X386024D02*
D03*
X454724Y11811D02*
D03*
X464567D02*
D03*
X474409D02*
D03*
X484252D02*
D03*
X494095D02*
D03*
X503937Y151969D02*
D03*
Y211024D02*
D03*
Y220866D02*
D03*
Y230709D02*
D03*
Y240551D02*
D03*
X503937Y319291D02*
D03*
X503937Y338976D02*
D03*
Y329134D02*
D03*
X503937Y378346D02*
D03*
X503937Y368504D02*
D03*
X503937Y388189D02*
D03*
X484252D02*
D03*
X494095D02*
D03*
X464567D02*
D03*
X474409D02*
D03*
X454724D02*
D03*
X405512D02*
D03*
X366142D02*
D03*
X356299D02*
D03*
X346457D02*
D03*
X336614D02*
D03*
X326772D02*
D03*
X316929D02*
D03*
X307087D02*
D03*
X297244D02*
D03*
X267717D02*
D03*
X238189D02*
D03*
X198819D02*
D03*
X100394D02*
D03*
X90551D02*
D03*
X31496Y11811D02*
D03*
X11811D02*
D03*
X21654D02*
D03*
X11811Y21654D02*
D03*
Y31496D02*
D03*
Y348819D02*
D03*
Y358661D02*
D03*
X11811Y368504D02*
D03*
Y388189D02*
D03*
Y378346D02*
D03*
Y326772D02*
D03*
Y228346D02*
D03*
Y238189D02*
D03*
Y179134D02*
D03*
Y169291D02*
D03*
Y159449D02*
D03*
Y149606D02*
D03*
Y139764D02*
D03*
Y129921D02*
D03*
Y120079D02*
D03*
Y110236D02*
D03*
Y100394D02*
D03*
Y90551D02*
D03*
Y80709D02*
D03*
Y70866D02*
D03*
Y61024D02*
D03*
Y51181D02*
D03*
Y41339D02*
D03*
X139075Y214370D02*
D03*
X133563Y217913D02*
D03*
X203150Y68504D02*
D03*
X276476Y29331D02*
D03*
X285630Y25098D02*
D03*
X318307Y4232D02*
D03*
X165354Y8268D02*
D03*
X140945Y18898D02*
D03*
X145177Y48622D02*
D03*
X169685Y255118D02*
D03*
X304921Y79823D02*
D03*
X433268Y247441D02*
D03*
X433071Y234547D02*
D03*
X392028Y213189D02*
D03*
X463583Y54331D02*
D03*
X161811Y70177D02*
D03*
X159547Y73130D02*
D03*
X399902Y147933D02*
D03*
X90256Y109449D02*
D03*
X500098Y184449D02*
D03*
X222441Y145964D02*
D03*
X15748Y248622D02*
D03*
X273622Y138189D02*
D03*
X255118D02*
D03*
X240524Y139003D02*
D03*
X473622Y133858D02*
D03*
X463386Y136614D02*
D03*
X362205Y139423D02*
D03*
X468504Y130709D02*
D03*
X101575Y116142D02*
D03*
X104528D02*
D03*
X113091Y112697D02*
D03*
X110531Y120669D02*
D03*
X97146Y119980D02*
D03*
X95768Y112500D02*
D03*
X73032Y136614D02*
D03*
X75787D02*
D03*
X79331Y139961D02*
D03*
X79232Y142717D02*
D03*
X77165Y138583D02*
D03*
Y141339D02*
D03*
X74410Y138583D02*
D03*
X77165Y144095D02*
D03*
X71653Y138583D02*
D03*
X49016Y158760D02*
D03*
X51870Y158957D02*
D03*
X53248Y156988D02*
D03*
X96837Y127461D02*
D03*
Y130315D02*
D03*
Y133169D02*
D03*
X114272Y98228D02*
D03*
X107394Y103750D02*
D03*
Y100797D02*
D03*
X109363Y105227D02*
D03*
X107475Y97928D02*
D03*
X109396Y99364D02*
D03*
Y102219D02*
D03*
X106640Y95526D02*
D03*
X109297Y96313D02*
D03*
X107475Y106491D02*
D03*
X96355D02*
D03*
X94435Y105073D02*
D03*
X94533Y96313D02*
D03*
X94435Y102219D02*
D03*
Y99364D02*
D03*
X98672Y134605D02*
D03*
Y131751D02*
D03*
Y128897D02*
D03*
X107382Y135236D02*
D03*
X101083D02*
D03*
X104232D02*
D03*
X102657Y137008D02*
D03*
X105807D02*
D03*
X99508Y137008D02*
D03*
X108858D02*
D03*
X96850Y136221D02*
D03*
X98672Y126042D02*
D03*
X109792D02*
D03*
X111713Y127461D02*
D03*
X111614Y136221D02*
D03*
X111713Y130315D02*
D03*
Y133169D02*
D03*
X109792Y128897D02*
D03*
Y131751D02*
D03*
Y134605D02*
D03*
X58071Y147146D02*
D03*
X67265Y138436D02*
D03*
Y149556D02*
D03*
X65846Y151476D02*
D03*
X62992D02*
D03*
X60138D02*
D03*
X64411Y149556D02*
D03*
X61556D02*
D03*
X58702D02*
D03*
X53198Y147383D02*
D03*
X155118Y201181D02*
D03*
X129921Y204331D02*
D03*
X168898Y231890D02*
D03*
Y207874D02*
D03*
X160630Y207480D02*
D03*
X134055Y258858D02*
D03*
X287795Y153937D02*
D03*
X119685Y19685D02*
D03*
X113386D02*
D03*
X116535D02*
D03*
X110236D02*
D03*
X66929Y394094D02*
D03*
X74803D02*
D03*
X59055D02*
D03*
X164173Y63484D02*
D03*
X440256Y29035D02*
D03*
X435335Y32480D02*
D03*
X384154Y14075D02*
D03*
X240604Y69095D02*
D03*
X61714Y85827D02*
D03*
X117815Y76575D02*
D03*
X108366Y76476D02*
D03*
X126673Y56791D02*
D03*
X128150Y54921D02*
D03*
X124409Y48130D02*
D03*
X212697Y106496D02*
D03*
X202478Y111132D02*
D03*
X205413Y112500D02*
D03*
X211319Y129429D02*
D03*
X214469Y126181D02*
D03*
X201969Y136221D02*
D03*
X198622Y136393D02*
D03*
X201772Y132480D02*
D03*
X111614Y280709D02*
D03*
X33465Y271457D02*
D03*
X33465Y265158D02*
D03*
X102756Y258858D02*
D03*
X197776Y258845D02*
D03*
X200000Y52362D02*
D03*
X191732Y49606D02*
D03*
X220866Y53937D02*
D03*
X225984Y48031D02*
D03*
X220472Y46457D02*
D03*
X221654Y59055D02*
D03*
X229528Y54671D02*
D03*
X165748Y35433D02*
D03*
X164173Y41732D02*
D03*
X116142Y144095D02*
D03*
Y140157D02*
D03*
X131890D02*
D03*
X127953Y144095D02*
D03*
X124016D02*
D03*
X120079D02*
D03*
Y140157D02*
D03*
X124016D02*
D03*
X127953D02*
D03*
X213386Y204331D02*
D03*
X300000D02*
D03*
X285827Y187402D02*
D03*
X278346Y184252D02*
D03*
X264567Y41732D02*
D03*
X253051Y64173D02*
D03*
X255512D02*
D03*
X272441Y72441D02*
D03*
X269685Y69291D02*
D03*
X270079Y63386D02*
D03*
X272441Y66142D02*
D03*
X275590Y59842D02*
D03*
X272047Y58268D02*
D03*
X281102Y59449D02*
D03*
X261417Y26378D02*
D03*
X270866Y35827D02*
D03*
X238583Y35335D02*
D03*
X266535Y37795D02*
D03*
X268504Y48031D02*
D03*
X291142Y32874D02*
D03*
X351969Y35433D02*
D03*
X325630Y20827D02*
D03*
X320866Y20866D02*
D03*
X315650Y20965D02*
D03*
X305827Y21575D02*
D03*
X310630Y21260D02*
D03*
X224803Y43701D02*
D03*
X229134Y50787D02*
D03*
X232677Y52756D02*
D03*
X208268Y59108D02*
D03*
X238188Y56299D02*
D03*
X234252Y57874D02*
D03*
X230512Y38484D02*
D03*
X227854Y40748D02*
D03*
X208019Y31350D02*
D03*
X368898Y28346D02*
D03*
X329658Y20210D02*
D03*
X277165Y44783D02*
D03*
X372047Y43307D02*
D03*
X259842Y51968D02*
D03*
X150787Y40650D02*
D03*
X15748Y287795D02*
D03*
X207185Y369980D02*
D03*
Y377854D02*
D03*
Y385728D02*
D03*
X66929Y358661D02*
D03*
X59055D02*
D03*
X74803D02*
D03*
X390945Y73622D02*
D03*
X352362Y78347D02*
D03*
X367716Y88189D02*
D03*
X467323Y51575D02*
D03*
X458268Y43370D02*
D03*
X455905Y51091D02*
D03*
X429921Y46457D02*
D03*
X373622Y170079D02*
D03*
X374803Y202362D02*
D03*
X380315D02*
D03*
X390945Y191708D02*
D03*
X393307Y199909D02*
D03*
X398819Y195669D02*
D03*
X300744Y138232D02*
D03*
X300787Y159449D02*
D03*
X360236Y159764D02*
D03*
Y179528D02*
D03*
X372250Y179730D02*
D03*
X372441Y199909D02*
D03*
X328740Y134949D02*
D03*
X335251D02*
D03*
X272835Y129590D02*
D03*
X278346Y131890D02*
D03*
X368110Y130012D02*
D03*
X368504Y197638D02*
D03*
X371195Y175505D02*
D03*
X394488Y179921D02*
D03*
X390551Y175591D02*
D03*
X394488Y174409D02*
D03*
X365354Y191732D02*
D03*
X265354Y115670D02*
D03*
X281102Y117020D02*
D03*
X248310Y125312D02*
D03*
X244094Y124016D02*
D03*
X355709Y108661D02*
D03*
X373308Y153861D02*
D03*
X371036Y107257D02*
D03*
X368307Y122638D02*
D03*
X365354Y112992D02*
D03*
X359512Y113464D02*
D03*
X380315Y132283D02*
D03*
X392520Y160236D02*
D03*
X379528D02*
D03*
X382677Y148819D02*
D03*
X379528D02*
D03*
X359055D02*
D03*
X358944Y139764D02*
D03*
X311811D02*
D03*
X311963Y115354D02*
D03*
X284646Y117717D02*
D03*
X321654Y106693D02*
D03*
X324016Y104724D02*
D03*
X325590Y115292D02*
D03*
X328740Y115354D02*
D03*
X268504Y113205D02*
D03*
X240945Y117717D02*
D03*
X238583Y115354D02*
D03*
X264961Y110933D02*
D03*
X236614Y112902D02*
D03*
X214173Y110236D02*
D03*
X321260Y178347D02*
D03*
X321654Y137402D02*
D03*
X362205Y142520D02*
D03*
X394882Y185433D02*
D03*
X227953Y185039D02*
D03*
X335433Y156299D02*
D03*
X231102Y182283D02*
D03*
X233768Y192216D02*
D03*
X216051Y151225D02*
D03*
X219291Y151574D02*
D03*
X222440Y151181D02*
D03*
X244094Y194882D02*
D03*
X236221D02*
D03*
X253149Y189369D02*
D03*
X238583Y215748D02*
D03*
X240945Y209449D02*
D03*
X272147Y151575D02*
D03*
X346063Y148425D02*
D03*
X343700Y146456D02*
D03*
X341339Y101878D02*
D03*
X348425Y146063D02*
D03*
Y142520D02*
D03*
X313385Y149212D02*
D03*
X341339Y144488D02*
D03*
X311416Y146850D02*
D03*
X306299Y144488D02*
D03*
X389750Y151589D02*
D03*
X374016Y146063D02*
D03*
X362598Y195276D02*
D03*
X404724Y103937D02*
D03*
X406693Y78740D02*
D03*
X376378D02*
D03*
X324016Y120213D02*
D03*
X310630Y104815D02*
D03*
X264583Y103465D02*
D03*
X322047Y124016D02*
D03*
X391339Y129921D02*
D03*
X477953Y127559D02*
D03*
X421654Y124803D02*
D03*
X459842Y124409D02*
D03*
X433858Y129921D02*
D03*
X444882Y132283D02*
D03*
X224803Y241732D02*
D03*
X312205D02*
D03*
X376969Y230709D02*
D03*
X312598Y238189D02*
D03*
X227953D02*
D03*
X314961Y227559D02*
D03*
X396850Y225590D02*
D03*
X309449Y124409D02*
D03*
X276377Y212598D02*
D03*
X273192Y212562D02*
D03*
X303937Y216142D02*
D03*
X306299Y218898D02*
D03*
X260630Y227165D02*
D03*
X308661Y222047D02*
D03*
X311417Y225197D02*
D03*
X257087D02*
D03*
X276378Y209055D02*
D03*
X243538Y212562D02*
D03*
X152362Y219685D02*
D03*
X186614Y164567D02*
D03*
X183858Y162205D02*
D03*
X194488Y162598D02*
D03*
X198819Y159449D02*
D03*
X191732Y157480D02*
D03*
Y172441D02*
D03*
X248031Y153937D02*
D03*
X245669Y139764D02*
D03*
X222047Y102756D02*
D03*
X218898Y99213D02*
D03*
X208661Y105905D02*
D03*
X396063Y148819D02*
D03*
X405346Y141898D02*
D03*
X390642Y110236D02*
D03*
X382677Y92126D02*
D03*
X362205Y91732D02*
D03*
X302756Y95760D02*
D03*
X190157Y107480D02*
D03*
X251181Y364173D02*
D03*
X254331Y367323D02*
D03*
X246457Y364961D02*
D03*
X244488Y334252D02*
D03*
X247638Y336614D02*
D03*
X215354Y334252D02*
D03*
X190641Y104421D02*
D03*
X213386Y99213D02*
D03*
X182480Y147835D02*
D03*
X374016Y102362D02*
D03*
X352362Y99606D02*
D03*
X372047Y94882D02*
D03*
X303543Y142520D02*
D03*
X297441Y95760D02*
D03*
X301575Y314567D02*
D03*
X247638Y216535D02*
D03*
X250811Y218898D02*
D03*
X253937Y222047D02*
D03*
X179134Y123622D02*
D03*
X176378Y128740D02*
D03*
X208661Y88976D02*
D03*
X211024Y96850D02*
D03*
X221260Y86614D02*
D03*
X215639D02*
D03*
X409842Y191732D02*
D03*
X387402Y142520D02*
D03*
X385524Y118898D02*
D03*
X393701Y76378D02*
D03*
X254331Y84646D02*
D03*
X252362Y81496D02*
D03*
X247922Y81799D02*
D03*
X181890Y112992D02*
D03*
X184567Y102524D02*
D03*
X190142Y92126D02*
D03*
X246062Y93700D02*
D03*
X250393Y91338D02*
D03*
X346063Y52362D02*
D03*
X368110Y39764D02*
D03*
X206281Y95972D02*
D03*
X409055Y212992D02*
D03*
X416142Y197638D02*
D03*
X417626Y201272D02*
D03*
X428740Y191732D02*
D03*
X385550Y44972D02*
D03*
X408268D02*
D03*
X340158Y50787D02*
D03*
X297244Y56906D02*
D03*
X287795Y61024D02*
D03*
X238894Y59531D02*
D03*
X224410Y65354D02*
D03*
X404810Y41031D02*
D03*
X398819Y38976D02*
D03*
X379921Y59177D02*
D03*
X388189Y53937D02*
D03*
X428740Y218110D02*
D03*
X424974Y215131D02*
D03*
X424803Y196063D02*
D03*
X405905Y151969D02*
D03*
X409055Y147638D02*
D03*
X421654Y144095D02*
D03*
X399213Y63386D02*
D03*
X243701Y79134D02*
D03*
X307874Y65748D02*
D03*
X396457Y67929D02*
D03*
X218898Y340158D02*
D03*
X206693Y315354D02*
D03*
X221260Y330315D02*
D03*
X245768Y373327D02*
D03*
X245794Y375874D02*
D03*
X183071Y284646D02*
D03*
X102362Y280709D02*
D03*
X243307Y326772D02*
D03*
X318504Y184646D02*
D03*
X315732Y187098D02*
D03*
X318504Y85524D02*
D03*
X315732Y83555D02*
D03*
X315748Y79921D02*
D03*
X376378Y44882D02*
D03*
X460629Y51574D02*
D03*
X455905Y157480D02*
D03*
X436614D02*
D03*
X436221Y151969D02*
D03*
X427165Y122047D02*
D03*
X413091Y208465D02*
D03*
X408268Y183252D02*
D03*
Y187795D02*
D03*
X413445Y156278D02*
D03*
X412598Y160236D02*
D03*
X408268Y161024D02*
D03*
X411024Y171260D02*
D03*
X416535Y174803D02*
D03*
X368110Y85039D02*
D03*
X415059Y225590D02*
D03*
X418384Y215202D02*
D03*
X413091Y215256D02*
D03*
X239655Y323228D02*
D03*
X250772Y356378D02*
D03*
X253937Y361417D02*
D03*
X265059Y330413D02*
D03*
Y340445D02*
D03*
X199943Y41737D02*
D03*
X173425Y41339D02*
D03*
X219685Y42520D02*
D03*
X184252Y47244D02*
D03*
X205118Y59842D02*
D03*
X177953Y61024D02*
D03*
X173917Y59055D02*
D03*
X179528Y44882D02*
D03*
X163417Y30283D02*
D03*
X152559Y14665D02*
D03*
X150098Y17421D02*
D03*
X178937Y64567D02*
D03*
X177953Y69685D02*
D03*
X169685Y62598D02*
D03*
X168110Y51968D02*
D03*
X161811Y76772D02*
D03*
X164793Y78908D02*
D03*
X176378Y75197D02*
D03*
X167717Y57087D02*
D03*
X168110Y82677D02*
D03*
X190945Y100787D02*
D03*
X190551Y96063D02*
D03*
X181405Y116016D02*
D03*
X191051Y87098D02*
D03*
Y84146D02*
D03*
X187598Y109646D02*
D03*
X182866Y108661D02*
D03*
X450786Y24409D02*
D03*
X442083Y33902D02*
D03*
X381186Y329134D02*
D03*
X182776Y120472D02*
D03*
X188273Y113039D02*
D03*
X178831Y85728D02*
D03*
X181496Y78740D02*
D03*
X183858Y74803D02*
D03*
X433268Y244488D02*
D03*
X448819Y307874D02*
D03*
X444488Y246063D02*
D03*
X450000Y244094D02*
D03*
X455512D02*
D03*
X458268Y263878D02*
D03*
X454331Y301969D02*
D03*
X474803Y281890D02*
D03*
X451968Y46457D02*
D03*
X419685Y18110D02*
D03*
X416732Y34055D02*
D03*
X435039Y12992D02*
D03*
X435433Y24803D02*
D03*
X447244Y22835D02*
D03*
X446063Y11417D02*
D03*
X422342Y22441D02*
D03*
X444488Y20866D02*
D03*
X388583Y97244D02*
D03*
X435827Y36220D02*
D03*
X401665Y37205D02*
D03*
X372047Y33071D02*
D03*
Y38976D02*
D03*
X417717Y56693D02*
D03*
X420033Y43353D02*
D03*
X377953Y27953D02*
D03*
X384055Y32185D02*
D03*
X177559Y141339D02*
D03*
X181496Y129921D02*
D03*
X180543Y137630D02*
D03*
X449213Y118504D02*
D03*
X422441Y41043D02*
D03*
X448622Y45669D02*
D03*
X398819Y27559D02*
D03*
X394173Y35827D02*
D03*
X312992Y70079D02*
D03*
X242520Y129134D02*
D03*
X268801Y77953D02*
D03*
X300787Y75681D02*
D03*
X333071Y94095D02*
D03*
X325699Y87492D02*
D03*
X463386Y90158D02*
D03*
X468504Y98425D02*
D03*
X473622Y106299D02*
D03*
X485433Y59055D02*
D03*
X461114Y209252D02*
D03*
Y215551D02*
D03*
X494303Y62020D02*
D03*
X494232Y82421D02*
D03*
X201870Y28445D02*
D03*
X57087Y317075D02*
D03*
X53937Y317323D02*
D03*
X38386Y312402D02*
D03*
Y322835D02*
D03*
X44882Y315354D02*
D03*
X56890Y266142D02*
D03*
X52953Y275000D02*
D03*
Y261614D02*
D03*
X67716Y315748D02*
D03*
X62205D02*
D03*
X50787Y309055D02*
D03*
X102362Y338976D02*
D03*
X141732Y252362D02*
D03*
X480709Y208268D02*
D03*
X485433Y206299D02*
D03*
X482283Y245276D02*
D03*
X477953Y298819D02*
D03*
X481496Y321260D02*
D03*
X473622Y299606D02*
D03*
X485039Y217323D02*
D03*
X486614Y249606D02*
D03*
X480118Y251279D02*
D03*
X483366Y254921D02*
D03*
X482283Y275984D02*
D03*
X487795Y257579D02*
D03*
X478740Y190551D02*
D03*
X491732Y189764D02*
D03*
X462205Y237008D02*
D03*
X456693D02*
D03*
X443307Y208661D02*
D03*
X451870Y216339D02*
D03*
X441732Y212205D02*
D03*
X443307Y216142D02*
D03*
X433071Y237402D02*
D03*
X265748Y89764D02*
D03*
X457677Y274016D02*
D03*
X460876Y282874D02*
D03*
X458661Y289764D02*
D03*
X472047Y243701D02*
D03*
X476280Y247342D02*
D03*
X478346Y241339D02*
D03*
X466535Y244094D02*
D03*
X473622Y238583D02*
D03*
X461024Y244094D02*
D03*
X465854Y209055D02*
D03*
Y215650D02*
D03*
X470571Y215748D02*
D03*
X467717Y237008D02*
D03*
X477665Y209252D02*
D03*
X472933D02*
D03*
X479921Y216142D02*
D03*
X475295Y215551D02*
D03*
X201476Y316378D02*
D03*
X103937Y345866D02*
D03*
X208268Y353937D02*
D03*
X204699Y343897D02*
D03*
X178091Y321378D02*
D03*
X157283Y247244D02*
D03*
X128032Y300787D02*
D03*
X142028Y280709D02*
D03*
X94095Y371260D02*
D03*
X153051Y274508D02*
D03*
X87598Y344094D02*
D03*
X97835Y320669D02*
D03*
X82087Y323189D02*
D03*
X98425Y315354D02*
D03*
X82677Y309842D02*
D03*
X80709Y302756D02*
D03*
X51181Y325984D02*
D03*
X418405Y208366D02*
D03*
X370423Y251378D02*
D03*
X176575Y81890D02*
D03*
X153740Y71457D02*
D03*
X152362Y62598D02*
D03*
X143110Y90158D02*
D03*
X139764Y94193D02*
D03*
X153347Y94488D02*
D03*
X88189Y112598D02*
D03*
X66929Y102756D02*
D03*
X74803Y106102D02*
D03*
X109646Y31693D02*
D03*
X74912Y209464D02*
D03*
X132185Y125689D02*
D03*
X152362Y56299D02*
D03*
X98387Y286262D02*
D03*
X98761Y293219D02*
D03*
X155217Y343012D02*
D03*
Y340551D02*
D03*
Y338090D02*
D03*
Y335630D02*
D03*
Y333169D02*
D03*
Y330709D02*
D03*
Y328248D02*
D03*
X152756Y343012D02*
D03*
Y340551D02*
D03*
Y338090D02*
D03*
Y335630D02*
D03*
Y333169D02*
D03*
Y330709D02*
D03*
Y328248D02*
D03*
X150295Y343012D02*
D03*
Y340551D02*
D03*
Y338090D02*
D03*
Y335630D02*
D03*
Y333169D02*
D03*
Y330709D02*
D03*
Y328248D02*
D03*
X147835Y343012D02*
D03*
Y340551D02*
D03*
Y338090D02*
D03*
Y335630D02*
D03*
Y333169D02*
D03*
Y330709D02*
D03*
Y328248D02*
D03*
X145374Y343012D02*
D03*
Y340551D02*
D03*
Y338090D02*
D03*
Y335630D02*
D03*
Y333169D02*
D03*
Y330709D02*
D03*
Y328248D02*
D03*
X142913Y343012D02*
D03*
Y340551D02*
D03*
Y338090D02*
D03*
Y335630D02*
D03*
Y333169D02*
D03*
Y330709D02*
D03*
Y328248D02*
D03*
X140453Y343012D02*
D03*
Y340551D02*
D03*
Y338090D02*
D03*
Y335630D02*
D03*
Y333169D02*
D03*
Y330709D02*
D03*
Y328248D02*
D03*
X137992Y343012D02*
D03*
Y340551D02*
D03*
Y338090D02*
D03*
Y335630D02*
D03*
Y333169D02*
D03*
Y330709D02*
D03*
Y328248D02*
D03*
X155217Y345472D02*
D03*
X152756D02*
D03*
X150295D02*
D03*
X147835D02*
D03*
X145374D02*
D03*
X142913D02*
D03*
X140453D02*
D03*
X137992D02*
D03*
X87697Y360925D02*
D03*
X495866Y218799D02*
D03*
Y206201D02*
D03*
X496063Y209055D02*
D03*
Y216142D02*
D03*
X380315Y242126D02*
D03*
X390945D02*
D03*
X389764Y231496D02*
D03*
X382677D02*
D03*
X393701Y282677D02*
D03*
X389764Y278740D02*
D03*
X400787Y290157D02*
D03*
X405905Y288976D02*
D03*
X407480Y284252D02*
D03*
X403543Y281496D02*
D03*
X398524D02*
D03*
X137401Y86221D02*
D03*
X93110Y180315D02*
D03*
X88189Y182579D02*
D03*
X117717Y53248D02*
D03*
X149311Y73032D02*
D03*
X58661Y89429D02*
D03*
X73228Y122638D02*
D03*
X142905Y79114D02*
D03*
X137383Y79059D02*
D03*
X129527Y75590D02*
D03*
X99705Y74016D02*
D03*
X63583Y77461D02*
D03*
X58661Y92382D02*
D03*
X61495Y75373D02*
D03*
X132677Y65847D02*
D03*
X135039D02*
D03*
X137401D02*
D03*
X139764D02*
D03*
Y58760D02*
D03*
X137401D02*
D03*
X135039D02*
D03*
X132677D02*
D03*
Y61122D02*
D03*
Y63484D02*
D03*
X139764D02*
D03*
Y61122D02*
D03*
X137401D02*
D03*
Y63484D02*
D03*
X135039Y61122D02*
D03*
Y63484D02*
D03*
X53937Y71260D02*
D03*
X51181D02*
D03*
X66929Y211811D02*
D03*
Y214961D02*
D03*
X52953Y154527D02*
D03*
X50590Y156890D02*
D03*
X52953Y151772D02*
D03*
X47441Y156890D02*
D03*
X130905Y101279D02*
D03*
X133858Y115256D02*
D03*
X133760Y133071D02*
D03*
X132579Y129528D02*
D03*
X456398Y215256D02*
D03*
Y209547D02*
D03*
X447146Y208465D02*
D03*
Y216339D02*
D03*
X505512Y256791D02*
D03*
X503150Y251969D02*
D03*
X497638Y251280D02*
D03*
X492126Y250984D02*
D03*
X451181Y237008D02*
D03*
X445669Y235827D02*
D03*
X388976Y273228D02*
D03*
X389370Y267717D02*
D03*
X389764Y262205D02*
D03*
Y253937D02*
D03*
X382874Y256693D02*
D03*
Y262205D02*
D03*
X383268Y267717D02*
D03*
X383465Y273228D02*
D03*
X383858Y278740D02*
D03*
X386220Y283465D02*
D03*
X390157Y287008D02*
D03*
X395276Y289764D02*
D03*
X382087Y245669D02*
D03*
X390551D02*
D03*
X389764Y250000D02*
D03*
X382874Y251181D02*
D03*
X395669Y167028D02*
D03*
X395768Y164469D02*
D03*
X101620Y113636D02*
D03*
X104573D02*
D03*
X101522Y118656D02*
D03*
X104474D02*
D03*
X252756Y20669D02*
D03*
X451968Y208268D02*
D03*
X478740Y185531D02*
D03*
X390945Y364567D02*
D03*
X393300Y364574D02*
D03*
X406299Y329134D02*
D03*
X403641Y10531D02*
D03*
X435645Y28564D02*
D03*
X403642Y13287D02*
D03*
X411811Y26772D02*
D03*
X252854Y146260D02*
D03*
X120276Y31693D02*
D03*
X108661Y34646D02*
D03*
X119587Y42126D02*
D03*
X146925Y123031D02*
D03*
X144366D02*
D03*
Y125591D02*
D03*
Y120473D02*
D03*
X141857Y123089D02*
D03*
Y125648D02*
D03*
Y120530D02*
D03*
X146925Y120473D02*
D03*
Y125591D02*
D03*
Y128150D02*
D03*
X144366D02*
D03*
X141857Y128208D02*
D03*
X139298D02*
D03*
Y125648D02*
D03*
Y123089D02*
D03*
Y120530D02*
D03*
X76178Y87629D02*
D03*
Y90385D02*
D03*
Y93141D02*
D03*
Y96290D02*
D03*
X78934D02*
D03*
X81640Y96232D02*
D03*
X84396Y95839D02*
D03*
Y93083D02*
D03*
Y87571D02*
D03*
X78934Y87629D02*
D03*
Y93141D02*
D03*
Y90385D02*
D03*
X81640Y87571D02*
D03*
Y93083D02*
D03*
Y90327D02*
D03*
X84396D02*
D03*
D286*
X291339Y359842D02*
D03*
X108465Y8858D02*
D03*
X142126Y225590D02*
D03*
X137992Y195965D02*
D03*
X236614Y21752D02*
D03*
X254724Y122343D02*
D03*
X108465Y4527D02*
D03*
X70768Y82284D02*
D03*
X163189Y239272D02*
D03*
X62500Y42323D02*
D03*
X43307Y40860D02*
D03*
X269291Y191732D02*
D03*
X225590Y140944D02*
D03*
X217520Y164173D02*
D03*
X202958Y125691D02*
D03*
X348728Y124409D02*
D03*
X156102Y239272D02*
D03*
X399606Y229528D02*
D03*
X241929Y164173D02*
D03*
X193372Y81735D02*
D03*
X453937Y34252D02*
D03*
X165551Y138386D02*
D03*
X192657Y366378D02*
D03*
X179272D02*
D03*
X100000Y371063D02*
D03*
X151870Y132283D02*
D03*
X162205Y110236D02*
D03*
X131398Y34843D02*
D03*
Y31299D02*
D03*
X64626Y56942D02*
D03*
X122835Y366535D02*
D03*
X96358Y34744D02*
D03*
X100000Y31594D02*
D03*
X98327Y63583D02*
D03*
X235150Y129637D02*
D03*
X73032Y67913D02*
D03*
X94390Y63583D02*
D03*
X81496Y37402D02*
D03*
D287*
X334646Y124409D02*
D03*
M02*
