M48
;Layer_Color=9474304
;FILE_FORMAT=2:5
INCH,TZ
;TYPE=PLATED
T1F00S00C0.01181
T2F00S00C0.01575
T3F00S00C0.02362
T5F00S00C0.02756
T6F00S00C0.03000
T7F00S00C0.03150
T8F00S00C0.03937
T9F00S00C0.04000
T10F00S00C0.04724
T11F00S00C0.07874
T12F00S00C0.13780
;TYPE=NON_PLATED
T13F00S00C0.02559
T14F00S00C0.03150
T15F00S00C0.03937
T16F00S00C0.04724
T17F00S00C0.07087
T19F00S00C0.13780
T20F00S00C0.15748
%
T01
X11811Y11811
X21654
X31496
X44331Y10000
X39331Y20000
X34331Y30000
X39331Y40000
X29331
X19331
X11811Y41339
Y51181
X24331Y50000
X34331
X44331
X90440Y52029
X106201Y48031
X106201Y45472
X111221Y49606
X117717Y53248
X124409Y48130
X128150Y54921
X119587Y42126
X120276Y31693
X109646
X108661Y34646
X99331Y40000
X89331Y20000
X110236Y19685
X113386
X116535
X119685
X140945Y18898
X150098Y17421
X152559Y14665
X165354Y8268
X163417Y30283
X165748Y35433
X164173Y41732
X150787Y40650
X146457Y36220
X145177Y48622
X160039Y53543
X11811Y31496
Y21654
X168504Y17421
X169488Y12992
X179331Y20000
X184646Y20079
X188583Y23622
X203937Y21260
X201870Y28445
X208019Y31350
X214331Y30000
X219331Y20000
X219291Y11811
X210236Y15354
X186614Y3150
X184252Y47244
X179528Y44882
X173425Y41339
X168110Y51968
X191732Y49606
X200000Y52362
X199943Y41737
X219685Y42520
X220472Y46457
X224803Y43701
X225984Y48031
X229134Y50787
X229528Y54671
X232677Y52756
X220866Y53937
X227854Y40748
X230512Y38484
X238583Y35335
X248425Y35138
X259331Y40000
X264567Y41732
X266535Y37795
X270866Y35827
X276476Y29331
X279331Y20000
X289331
X285630Y25098
X291142Y32874
X277165Y44783
X268504Y48031
X259842Y51968
X261417Y26378
X252756Y20669
X284331Y10000
X305827Y21575
X310630Y21260
X315650Y20965
X320866Y20866
X318307Y4232
X325630Y20827
X329658Y20210
X337992Y12205
Y9350
X344331Y10000
X351969Y35433
X368110Y39764
X372047Y38976
Y43307
X376378Y44882
X385550Y44972
X388189Y53937
X394173Y35827
X398819Y38976
X401665Y37205
X404810Y41031
X408268Y44972
X420033Y43353
X422441Y41043
X416732Y34055
X411811Y26772
X406791Y21555
X406282Y31809
X398819Y27559
X394810Y20774
X382071Y18012
X384154Y14075
X386024Y7924
X376181
X377953Y27953
X374331Y30000
X372047Y33071
X368898Y28346
X384055Y32185
X403642Y13287
X403641Y10531
X409941Y12894
X415354Y12205
X419685Y18110
X422342Y22441
X435433Y24803
X435645Y28564
X435335Y32480
X435827Y36220
X442083Y33902
X440256Y29035
X441142Y23425
X444488Y20866
X447244Y22835
X450786Y24409
X460236Y23228
X465354Y28346
X474331Y30000
X469331Y40000
X467323Y51575
X463583Y54331
X460629Y51574
X455905Y51091
X451968Y46457
X448622Y45669
X458268Y43370
X435335Y45571
X429921Y46457
X435039Y12992
X432480Y6988
X446063Y11417
X454724Y11811
X464567
X474409
X346063Y52362
X340158Y50787
X485827
X489331Y40000
X479331
Y20000
X484252Y11811
X494095
X503937
Y21654
Y31496
X499331Y60000
X494303Y62020
X485433Y59055
X509331Y60000
X494232Y82421
X479331Y80000
Y120000
X489331
X499331
X504331Y130000
Y110000
X494331
X503937Y151969
X499331Y160000
Y180000
X500098Y184449
X491732Y189764
X491634Y174705
X495866Y206201
X496063Y209055
X503937Y211024
X485433Y206299
X480709Y208268
X479331Y200000
X478740Y190551
Y185531
X478937Y176575
X458858Y187598
X454528
X454331Y170000
X455905Y157480
X463386Y157283
Y136614
X468504Y141339
X473601Y146761
X473622Y133858
X468504Y130709
X477953Y127559
X459842Y124409
X449213Y118504
X444882Y132283
X433858Y129921
X427165Y122047
X421654Y124803
Y144095
X421425Y151803
X417291Y147669
X409055Y147638
X405905Y151969
X399902Y147933
X396063Y148819
X389750Y151589
X382677Y148819
X379528
X374016Y146063
X373308Y153861
X379528Y160236
X392520
X390453Y164272
Y167618
X395669Y167028
X395768Y164469
X394488Y174409
X390551Y175591
X389331Y180000
X394488Y179921
X394882Y185433
X394331Y190000
X390945Y191708
X393307Y199909
X398819Y195669
X409842Y191732
X408268Y187795
Y183252
X411024Y171260
X416535Y174803
X429331Y180000
X428740Y191732
X424803Y196063
X416142Y197638
X417626Y201272
X418405Y208366
X413091Y208465
X394331Y210000
X384331
X380315Y202362
X374803
X372441Y199909
X368504Y197638
X362598Y195276
X365354Y191732
X359331Y200000
X360236Y179528
X354724Y174409
Y167323
X345276
X344882Y174409
X349331Y180000
X329331
X326378Y173622
X326772Y166535
X335433Y156299
X341339Y144488
X343700Y146456
X346063Y148425
X348425Y146063
Y142520
X358944Y139764
X362205Y139423
Y142520
X359055Y148819
X360236Y159764
X373622Y170079
X371195Y175505
X372250Y179730
X387402Y142520
X391339Y129921
X380315Y132283
X368110Y130012
X368307Y122638
X365354Y112992
X359512Y113464
X355709Y108661
X352362Y99606
X341339Y101878
X333071Y94095
X325699Y87492
X329134Y81102
X338189Y83071
X349213Y87008
X352362Y78347
X362992Y82284
X368110Y85039
X367716Y88189
X375984Y88583
X372047Y94882
X374016Y102362
X371036Y107257
X390642Y110236
X385524Y118898
X388583Y97244
X382677Y92126
X376378Y78740
X390945Y73622
X393701Y76378
X396457Y67929
X399213Y63386
X406693Y78740
X419331Y80000
X426378Y77165
X424331Y70000
X426772Y68110
X431890Y81890
X434331Y90000
X432283Y94882
X434252Y105118
X429134Y110236
X424331Y90000
X402756Y90158
X404724Y103937
X405346Y141898
X408268Y161024
X412598Y160236
X413445Y156278
X429331Y160000
X436614Y157480
X436221Y151969
X450394Y149606
Y144095
X449331Y100000
Y80000
X469331
X463386Y90158
X468504Y98425
X473622Y106299
X472933Y209252
X477665
X465854Y209055
X461114Y209252
X456398Y209547
X451968Y208268
X447146Y208465
X443307Y208661
X441732Y212205
X324331Y210000
Y190000
X328740Y134949
X335251
X324016Y120213
X325590Y115292
X328740Y115354
X324016Y104724
X362205Y91732
X379921Y59177
X417717Y56693
X312992Y70079
X307874Y65748
X300787Y75681
X304921Y79823
X315748Y79921
X315732Y83555
X318504Y85524
X321654Y106693
X310630Y104815
X311963Y115354
X309449Y124409
X322047Y124016
X321654Y137402
X311811Y139764
X311416Y146850
X313385Y149212
X306299Y144488
X303543Y142520
X300744Y138232
X294560Y141488
X293701Y148819
X287795Y153937
X278740Y157087
X276378Y163779
X269331Y160000
X265354Y164961
X260236Y158268
X248031Y153937
X252854Y146260
X249331Y140000
X245669Y139764
X240524Y139003
X242520Y129134
X244094Y124016
X248310Y125312
X240945Y117717
X238583Y115354
X236614Y112902
X229331Y120000
X224331Y130000
X211319Y129429
X214469Y126181
X214173Y110236
X212697Y106496
X208661Y105905
X205413Y112500
X202478Y111132
X190157Y107480
X190641Y104421
X190945Y100787
X190551Y96063
X190142Y92126
X191051Y87098
Y84146
X178831Y85728
X176575Y81890
X176378Y75197
X177953Y69685
X178937Y64567
X177953Y61024
X173917Y59055
X169685Y62598
X167717Y57087
X168110Y82677
X181496Y78740
X183858Y74803
X204724Y79528
X203150Y68504
X205118Y59842
X208268Y59108
X221654Y59055
X224410Y65354
X234252Y57874
X238188Y56299
X238894Y59531
X240604Y69095
X243701Y79134
X247922Y81799
X252362Y81496
X254331Y84646
X250393Y91338
X246062Y93700
X265748Y89764
X268801Y77953
X272441Y72441
X269685Y69291
X272441Y66142
X270079Y63386
X272047Y58268
X275590Y59842
X281102Y59449
X287795Y61024
X297244Y56906
X297441Y95760
X302756
X284646Y117717
X281102Y117020
X268504Y113205
X265354Y115670
X264961Y110933
X264583Y103465
X272835Y129590
X278346Y131890
X273622Y138189
X272147Y151575
X255118Y138189
X222441Y145964
X222440Y151181
X219291Y151574
X216051Y151225
X214331Y170000
X222835Y181890
X227953Y185039
X231102Y182283
X233768Y192216
X236221Y194882
X244094
X249331Y200000
X259331
X269331
X279331
X289331
X299331
X300000Y204331
X294331Y210000
X276378Y209055
X278346Y184252
X285827Y187402
X315732Y187098
X318504Y184646
X321260Y178347
X300787Y159449
X244331Y170000
X253149Y189369
X240945Y209449
X234331Y210000
X213386Y204331
X195669Y202756
X183465Y187795
X191732Y172441
X194488Y162598
X198819Y159449
X191732Y157480
X186614Y164567
X183858Y162205
X182480Y147835
X182677Y142323
X177559Y141339
X180543Y137630
X181496Y129921
X176378Y128740
X179134Y123622
X182776Y120472
X181405Y116016
X181890Y112992
X182866Y108661
X187598Y109646
X188273Y113039
X184567Y102524
X206281Y95972
X211024Y96850
X213386Y99213
X218898
X222047Y102756
X221260Y86614
X215639
X208661Y88976
X201772Y132480
X201969Y136221
X198622Y136393
X168898Y207874
X254820Y71258
X255512Y64173
X253051
X260236
X164173Y63484
X159024Y64929
X159252Y59153
X152362Y56299
Y62598
X153740Y71457
X149311Y73032
X159547Y73130
X161811Y70177
Y76772
X164793Y78908
X164331Y90000
X153051Y86024
X145177Y86221
X143110Y90158
X139764Y94193
X137401Y86221
X137383Y79059
X142905Y79114
X139764Y65847
X137401
X135039
X132677
Y63484
Y61122
Y58760
X135039
X137401
X139764
Y61122
Y63484
X137401
Y61122
X135039
Y63484
X126673Y56791
X117323Y62598
X117815Y76575
X108366Y76476
X108268Y82087
X108268Y90945
X104331Y90000
X103490Y95526
X100341
X97191Y95526
X96355Y97928
Y100783
Y103637
Y106491
X94435Y105073
Y102219
Y99364
X94533Y96313
X98766Y97297
X101915
X105065
X107475Y97928
X107394Y100797
Y103750
X107475Y106491
X109363Y105227
X109396Y102219
Y99364
X109297Y96313
X106640Y95526
X114272Y98228
X113091Y112697
X104573Y113636
X104528Y116142
X104474Y118656
X101522
X101575Y116142
X101620Y113636
X95768Y112500
X88189Y112598
X90256Y109449
X97146Y119980
X98672Y126042
Y128897
Y131751
Y134605
X101083Y135236
X104232
X107382
X109792Y134605
Y131751
Y128897
Y126042
X111713Y127461
Y130315
Y133169
X111614Y136221
X108858Y137008
X105807Y137008
X102657
X99508Y137008
X96850Y136221
X96837Y133169
Y130315
Y127461
X110531Y120669
X117717Y120866
Y124409
X132185Y125689
X132185Y123031
X132185Y119488
X133858Y115256
X139298Y120530
X141857
Y123089
Y125648
Y128208
X139298
Y125648
Y123089
X144366Y123031
X146925
Y120473
X144366
Y125591
X146925
Y128150
X144366
X132579Y129528
X133760Y133071
X131890Y140157
X127953
Y144095
X124016
X120079
X116142
Y140157
X120079
X124016
X124331Y110000
X130905Y101279
X124331Y90000
X129527Y75590
X104331Y70000
X99705Y74016
X99331Y80000
X94488Y82087
X94488Y90945
X84396Y90327
Y93083
Y95839
X81640Y96232
X78934Y96290
X76178
Y93141
Y90385
Y87629
X78934
Y90385
Y93141
X81640Y93083
Y90327
Y87571
X84396
X87402Y68110
Y65551
X66831Y76279
X63583Y77461
X61495Y75373
X57677Y75787
X57087Y81496
X61714Y85827
X58661Y89429
Y92382
X65158Y97933
X66929Y102756
X74803Y106102
X73228Y122638
X69331Y120000
X79331
X79331Y139961
X79232Y142717
X77165Y144095
Y141339
Y138583
X74410
X71653
X73032Y136614
X75787
X65846Y136516
X62992
X60138
X61556Y138436
X64411
X67265
X58702
X58071Y140846
Y143996
Y147146
X58702Y149556
X61556
X64411
X67265
X65846Y151476
X62992
X60138
X59055Y155905
X59331Y160000
X59055Y163779
X66929
X69331Y160000
X70866Y155905
X74803Y159843
X64331Y170000
X66929Y175591
X59055
X54331Y190000
X44331
X34331
X39331Y180000
X29331
X19331
X11811Y179134
Y169291
Y159449
X19331Y160000
X29331
X39331
X49016Y158760
X51870Y158957
X53248Y156988
X52953Y154527
Y151772
X53198Y147383
Y144529
Y141674
Y138820
X50787Y138189
X47638
X44488
X42078Y138820
Y141674
Y144529
Y147383
X40157Y145965
Y143110
Y140256
X43012Y136417
X46063Y136417
X49213
X52362Y136417
X56299Y137008
X55512Y139764
X55905Y142520
Y145669
X50590Y156890
X47441
X34331Y150000
X24331
X11811Y149606
Y139764
Y129921
Y120079
Y110236
Y100394
X19331Y100000
X29331
X39331
X46457Y93701
X44331Y90000
X47047Y85827
X49606
X39331Y80000
X44331Y70000
X51181Y71260
X53937
X59331Y60000
X39331
X34331Y70000
X24331
X11811Y70866
Y80709
X19331Y80000
X11811Y90551
Y61024
X19331Y60000
X24331Y110000
X34331
X44331
X39331Y120000
X24331Y170000
X34331Y210000
X45276Y211811
X66929
X65748Y206693
X74912Y209464
X73228Y196850
X59331Y200000
X94331Y210000
X93110Y180315
X88189Y182579
X109331Y180000
X125591Y177165
X129528
X133465
X129528Y173228
X125591
X121653
Y169291
X125591
X117717
X109331Y160000
X119331Y200000
X129921Y204331
X155118Y201181
X160630Y207480
X164331Y170000
X154331Y110000
X151772Y106398
X157382Y105118
X153347Y94488
X152362Y219685
X139075Y214370
X133563Y217913
X109331Y220000
X114331Y230000
X104331
X109331Y240000
X119331
X124331Y250000
X134331
X134055Y258858
X134331Y270000
X124331
X114331
X104331
X102362Y280709
X111614
X98387Y286262
X98761Y293219
X94331Y290000
X89331Y280000
X84331Y270000
X74331
X69331Y280000
X59331
X52953Y275000
X56890Y270472
Y266142
X52953Y261614
X59331Y260000
X64331Y250000
X74331
X94331
X104331
X114331
X119331Y260000
X102756Y258858
X99331Y260000
Y240000
X59331
X49331
X39331
X29331
X19331
X11811Y238189
Y228346
X19331Y220000
X39331
X45276Y220079
Y216142
X44331Y230000
X54331
X34331
Y250000
X29331Y260000
X33465Y265158
X33465Y271457
X29331Y280000
X34331Y290000
X44331
X54331
X64331
X74331
X80709Y302756
X82677Y309842
X82087Y323189
X74331Y330000
X79331Y340000
X69331
X59331
X64331Y350000
X74331
X74803Y358661
X74803Y364567
X66929Y358661
X59055
X59055Y364567
X49331Y360000
X39331
X29331
X19331
X11811Y358661
Y348819
X11811Y368504
Y326772
X23524Y323622
X23622Y311811
X14331Y310000
X15748Y287795
X24331Y290000
X12402Y271457
X12402Y265158
X19331Y260000
X15748Y248622
X66929Y214961
X67716Y315748
X62205
X57087Y317075
X53937Y317323
X44882Y315354
Y320079
X38386Y322835
Y312402
X50787Y309055
X51181Y325984
X34331Y330000
X44331Y350000
X54331
X87598Y344094
X87697Y360925
X103937Y345866
X102362Y338976
X94331Y330000
X97835Y320669
X98425Y315354
X124331Y310000
X134331
X144331
X154331
X164331
X159331Y320000
X149331
X150295Y328248
X152756
X155217
Y330709
Y333169
Y335630
Y338090
Y340551
Y343012
X152756
Y340551
Y338090
Y335630
Y333169
Y330709
X150295
Y333169
Y335630
Y338090
Y340551
Y343012
X147835
Y340551
Y338090
Y335630
Y333169
Y330709
Y328248
X145374
Y330709
Y333169
Y335630
Y338090
Y340551
Y343012
X142913
Y340551
Y338090
Y335630
Y333169
Y330709
Y328248
X140453
Y330709
Y333169
Y335630
Y338090
Y340551
Y343012
X137992
Y340551
Y338090
Y335630
Y333169
Y330709
Y328248
X139331Y320000
X129331
X124331Y330000
X129331Y340000
X137992Y345472
X140453
X142913
X145374
X147835
X150295
X152756
X155217
X159331Y360000
X150984Y362894
X142028
X133071
X128032Y300787
X142028Y280709
X153051Y274508
X164331Y270000
Y250000
X157283Y247244
X144331Y250000
X141732Y252362
X169685Y255118
X174331Y250000
X184331
X194331
X197776Y258845
X179331Y260000
X184331Y270000
X183071Y284646
X184331Y290000
X174331Y310000
X178091Y321378
X174331Y330000
X179331Y340000
X169331
X174331Y350000
X179331Y360000
X169331
X208268Y353937
X214331Y350000
X218898Y340158
X215354Y334252
X221260Y330315
X229331Y320000
X239655Y323228
X243307Y326772
X244488Y334252
X247638Y336614
X265059Y340445
Y330413
X269331Y320000
X274331Y310000
X264331
X269331Y300000
X264331Y290000
X269331Y280000
X264331Y270000
X269331Y260000
X264331Y250000
Y230000
X260630Y227165
X257087Y225197
X253937Y222047
X250811Y218898
X247638Y216535
X243538Y212562
X238583Y215748
X234331Y230000
X227953Y238189
X224803Y241732
X224331Y250000
X234331
X199331Y240000
X189331
X194331Y230000
X184331
X189331Y220000
X199331
X179331
X168898Y231890
X169331Y240000
X201476Y316378
X206693Y315354
X224331Y310000
X234331
X250772Y356378
X251181Y364173
X246457Y364961
X254331Y367323
X253937Y361417
X259331Y360000
X309331
X319331
X314331Y350000
X319331Y340000
X309331
X314331Y330000
X319331Y320000
X301575Y314567
X289331Y320000
X294331Y270000
X304331
X314331
X319331Y260000
X309331
X314331Y250000
X304331
X294331
X289331Y260000
X294331Y230000
X304331
X311417Y225197
X308661Y222047
X306299Y218898
X303937Y216142
X319331Y220000
X314961Y227559
X312598Y238189
X312205Y241732
X284331Y230000
X276377Y212598
X273192Y212562
X204699Y343897
X324331Y350000
X334331
X344331
X354331
X364331
X374331
X384331
X389331Y360000
X390945Y364567
X393300Y364574
X379331Y360000
X369331
X359331
Y340000
X369331
X379331
X389331
X381186Y329134
X374331Y330000
X364331
X354331
X344331
X334331
X324331
X329331Y320000
X339331
X349331
X359331
X379331
X389331
X384331Y310000
X386220Y283465
X383858Y278740
X383465Y273228
X388976
X389370Y267717
X389764Y262205
X382874
Y256693
Y251181
X382087Y245669
X380315Y242126
X390945
X390551Y245669
X389764Y250000
Y253937
X383268Y267717
X389764Y278740
X393701Y282677
X398524Y281496
X403543
X407480Y284252
X405905Y288976
X400787Y290157
X395276Y289764
X390157Y287008
X364331Y270000
X354331
X344331
X334331
X324331
X329331Y260000
X339331
X349331
X354331Y256693
X359449
X362992Y251181
X370423Y251378
X369331Y260000
X376969Y230709
X382677Y231496
X389764
X389331Y220000
X392028Y213189
X396850Y225590
X415059
X413091Y215256
X418384Y215202
X424974Y215131
X428740Y218110
X443307Y216142
X447146Y216339
X451870
X456398Y215256
X461114Y215551
X465854Y215650
X470571Y215748
X475295Y215551
X473622Y238583
X472047Y243701
X466535Y244094
X461024
X455512
X450000
X444488Y246063
X445669Y235827
X451181Y237008
X456693
X462205
X467717
X478346Y241339
X476280Y247342
X458268Y263878
X457677Y274016
X460876Y282874
X458661Y289764
X464331Y290000
X459331Y300000
X454331Y301969
X448819Y307874
X464331Y310000
X459331Y320000
X458858Y332382
X464331Y330000
X468799Y332382
X478839Y332382
X448858Y332382
X439331Y340000
X429331
X434331Y350000
X444331
X454331
X464331
X439331Y360000
X429331
X409331
X414331Y350000
Y330000
X406299Y329134
X429331Y320000
X473622Y299606
X477953Y298819
X474803Y281890
X444331Y270000
X433268Y247441
Y244488
X433071Y237402
Y234547
X409055Y212992
X379331Y220000
X359331
X349331
X339331
X329331
X334331Y230000
X344331
X354331
X334331Y250000
X324331
X339331Y340000
X349331
X339331Y360000
X329331
X484331Y350000
X494331
X504331
X503937Y338976
Y329134
X498858Y332382
X488779Y332382
X481496Y321260
X503937Y319291
X509331Y300000
X505512Y256791
X503150Y251969
X497638Y251280
X492126Y250984
X486614Y249606
X480118Y251279
X483366Y254921
X487795Y257579
X482283Y245276
X503937Y240551
Y230709
Y220866
X495866Y218799
X496063Y216142
X485039Y217323
X479921Y216142
X494331Y230000
X482283Y275984
X503937Y368504
X503937Y378346
Y388189
X494095
X484252
X479331Y380000
X469331
X464567Y388189
X474409
X474331Y370000
X464331
X454331
X444331
X434331
X439331Y380000
X449331
X446063Y385039
X444331Y390000
X454724Y388189
X432283Y391339
X429331Y380000
X409331
X399331
X389331
X386614Y387008
X395669Y388189
X405512
X404331Y370000
X414331
X394331
X384331
X374331
X364331
X354331
X344331
X334331
X324331
X329331Y380000
X339331
X349331
X359331
X356299Y388189
X366142
X346457
X336614
X326772
X379331Y380000
X319331
X309331
X299331
X297244Y388189
X307087
X316929
X314331Y370000
X269331Y380000
X267717Y388189
X257283Y385630
X254528
X245794Y375874
X245768Y373327
X234331Y370000
X228382Y369980
Y377854
Y385728
X238189Y388189
X207185Y385728
Y377854
Y369980
X199331Y380000
X198819Y388189
X109331Y380000
X99331
X100394Y388189
X90551
X80709
X74803Y388189
X74803Y382283
X74803Y376378
X74803Y370472
X59055
X59055Y376378
X59055Y382283
X59055Y388189
X59055Y394094
X66929
X74803
X51181Y388189
X41339
X31496Y388189
X39331Y380000
X49331
X44331Y370000
X34331
X11811Y378346
Y388189
X94095Y371260
T02
X43307Y40860
X62500Y42323
X81496Y37402
X96358Y34744
X100000Y31594
X105512Y31496
Y35039
X124522Y35615
X124412Y32380
X131398Y31299
Y34843
X108465Y8858
Y4527
X236614Y21752
X453937Y34252
X453080Y42527
X348728Y124409
X254724Y122343
X256299Y128347
X235150Y129637
X231410
X225590Y140944
X217520Y164173
X241929
X269291Y191732
X299606Y191732
X202958Y125691
X202755Y121957
X193372Y81735
X193915Y78034
X162205Y110236
X161909Y121653
X165551Y138386
X165551Y157677
X151870Y132283
X129134Y110531
X127165Y86024
X129134Y72047
X98327Y63583
X94390Y63583
X73032Y67913
X70768Y82284
X64626Y56942
X31102Y88583
X25591
X26772Y116378
X21260
X47541Y120084
Y106304
X137992Y195965
X162205Y195965
Y220374
X163189Y239272
X156102
X137894Y244094
X142126Y225590
X80216Y220472
X63386Y330906
X60236
X100000Y362106
X122902Y361288
X122835Y366535
X179272Y366378
X192657
X291339Y359842
X433662Y326673
X399606Y229528
X301969Y370866
X100000Y371063
T03
X239764Y143701
Y148819
T05
X505748Y66791
Y74665
Y82539
Y90413
Y98287
Y106161
Y114035
Y121909
X442756
Y114035
Y106161
Y98287
Y90413
Y82539
Y74665
Y66791
T06
X295748Y9110
Y14110
X300748
X305748
X310748
X315748
Y9110
X310748
X305748
X300748
X320748
Y14110
X325748
Y9110
T07
X144095Y9055
X469291Y18110
X505905Y135433
X368898Y208268
X279528Y144882
X191732Y67716
X121850Y94784
X114961Y180315
X161811Y177165
X149606Y253937
X80315Y275984
X16142Y317520
X237795Y346850
X439764Y311122
Y303248
Y295374
Y287500
Y279626
Y271752
Y263878
Y256004
X493898
Y263878
Y271752
Y279626
Y287500
Y295374
Y303248
Y311122
X461417Y378740
T08
X295276Y124409
X24016Y123071
Y133071
Y143071
X280098Y250445
Y260445
Y270445
Y280445
Y290445
Y300445
Y310445
Y320445
Y330445
Y340445
Y350445
Y360445
X420098
Y350445
Y340445
Y330445
Y320445
Y310445
Y300445
Y290445
Y280445
Y270445
Y260445
Y250445
Y370445
Y380445
Y390445
X280098
Y380445
Y370445
T09
X334646Y124409
T10
X181457Y7972
X191457
X201457
X211457
X220590Y28346
X230591
X272441Y16811
Y6811
X356004Y6083
Y16083
Y26083
X367717Y16024
Y6024
X495768Y135079
Y145079
Y155079
X412205Y115118
Y105118
Y95118
Y85118
Y75118
Y65118
X28346Y61890
Y81890
X449409Y354331
X459410
X469410
X479410
X489409
X499409
T11
X322146Y200492
X40650
T12
X23622Y23622
X492126Y23622
X492126Y376378
X23622Y376378
T13
X103583Y20679
X126339
T14
X237382Y16831
X252185
X498917Y174980
Y189784
T15
X305118Y124409
T16
X24213Y254331
X42717
X42717Y282087
Y299606
X24213
Y282087
Y335630
X42717
T17
X40256Y168996
X322539Y231988
T19
X290059Y168996
X72736Y231988
T20
X181398Y200492
M30
