G04*
G04 #@! TF.GenerationSoftware,Altium Limited,Altium Designer,20.0.9 (164)*
G04*
G04 Layer_Color=65535*
%FSLAX25Y25*%
%MOIN*%
G70*
G01*
G75*
%ADD10C,0.00787*%
%ADD11C,0.01181*%
%ADD12C,0.01000*%
%ADD13C,0.00591*%
%ADD14C,0.01654*%
%ADD15C,0.01000*%
%ADD16C,0.01496*%
%ADD17C,0.01496*%
%ADD18C,0.00600*%
%ADD19C,0.01378*%
%ADD20C,0.00500*%
%ADD21C,0.01968*%
%ADD22C,0.00394*%
%ADD23C,0.00984*%
%ADD24C,0.02756*%
%ADD25C,0.00630*%
%ADD26R,0.04724X0.00787*%
%ADD27R,0.02000X0.10000*%
%ADD28R,0.09843X0.03937*%
%ADD29R,0.00787X0.04724*%
%ADD30R,1.34124X0.73937*%
G36*
X228389Y300623D02*
X229373D01*
Y299639D01*
X230357D01*
Y298655D01*
X231342D01*
Y297670D01*
X232326D01*
Y296686D01*
X233310D01*
Y295702D01*
Y289796D01*
Y283891D01*
X232326D01*
Y284875D01*
X231342D01*
Y285859D01*
X230357D01*
Y286844D01*
X229373D01*
Y287828D01*
X228389D01*
Y288812D01*
X227404D01*
Y289796D01*
Y295702D01*
Y301607D01*
X228389D01*
Y300623D01*
D02*
G37*
G36*
X241142Y295669D02*
Y289764D01*
Y288779D01*
X240158D01*
Y287795D01*
X239173D01*
Y286811D01*
X238189D01*
Y285827D01*
X237205D01*
Y284842D01*
X236221D01*
Y283858D01*
X235236D01*
Y289764D01*
Y295669D01*
Y296654D01*
X236221D01*
Y297638D01*
X237205D01*
Y298622D01*
X238189D01*
Y299606D01*
X239173D01*
Y300590D01*
X240158D01*
Y301575D01*
X241142D01*
Y295669D01*
D02*
G37*
G36*
X227362Y287795D02*
X228346D01*
Y286811D01*
X229331D01*
Y285827D01*
X230315D01*
Y284842D01*
X231299D01*
Y283858D01*
X232283D01*
Y282874D01*
X219488D01*
Y283858D01*
X218504D01*
Y284842D01*
X217520D01*
Y285827D01*
X216535D01*
Y286811D01*
X215551D01*
Y287795D01*
X214567D01*
Y288779D01*
X227362D01*
Y287795D01*
D02*
G37*
G36*
X253970Y287753D02*
X252985D01*
Y286769D01*
X252001D01*
Y285785D01*
X251017D01*
Y284800D01*
X250033D01*
Y283816D01*
X249048D01*
Y282832D01*
X236253D01*
Y283816D01*
X237237D01*
Y284800D01*
X238222D01*
Y285785D01*
X239206D01*
Y286769D01*
X240190D01*
Y287753D01*
X241174D01*
Y288737D01*
X253970D01*
Y287753D01*
D02*
G37*
G36*
X232251Y279963D02*
X231267D01*
Y278979D01*
X230282D01*
Y277995D01*
X229298D01*
Y277011D01*
X228314D01*
Y276027D01*
X227330D01*
Y275042D01*
X214534D01*
Y276027D01*
X215518D01*
Y277011D01*
X216503D01*
Y277995D01*
X217487D01*
Y278979D01*
X218471D01*
Y279963D01*
X219456D01*
Y280948D01*
X232251D01*
Y279963D01*
D02*
G37*
G36*
X249016Y279921D02*
X250000D01*
Y278937D01*
X250984D01*
Y277953D01*
X251969D01*
Y276969D01*
X252953D01*
Y275984D01*
X253937D01*
Y275000D01*
X241142D01*
Y275984D01*
X240158D01*
Y276969D01*
X239173D01*
Y277953D01*
X238189D01*
Y278937D01*
X237205D01*
Y279921D01*
X236221D01*
Y280906D01*
X249016D01*
Y279921D01*
D02*
G37*
G36*
X233268Y274016D02*
Y268110D01*
Y267126D01*
X232283D01*
Y266142D01*
X231299D01*
Y265158D01*
X230315D01*
Y264173D01*
X229331D01*
Y263189D01*
X228346D01*
Y262205D01*
X227362D01*
Y268110D01*
Y274016D01*
Y275000D01*
X228346D01*
Y275984D01*
X229331D01*
Y276969D01*
X230315D01*
Y277953D01*
X231299D01*
Y278937D01*
X232283D01*
Y279921D01*
X233268D01*
Y274016D01*
D02*
G37*
G36*
X236178Y278904D02*
X237162D01*
Y277920D01*
X238147D01*
Y276936D01*
X239131D01*
Y275952D01*
X240115D01*
Y274967D01*
X241100D01*
Y273983D01*
Y268078D01*
Y262172D01*
X240115D01*
Y263156D01*
X239131D01*
Y264141D01*
X238147D01*
Y265125D01*
X237162D01*
Y266109D01*
X236178D01*
Y267093D01*
X235194D01*
Y268078D01*
Y273983D01*
Y279889D01*
X236178D01*
Y278904D01*
D02*
G37*
G36*
X54035Y221555D02*
X55315D01*
Y209842D01*
X53937D01*
Y221654D01*
X54035Y221555D01*
D02*
G37*
G36*
X84744Y178839D02*
X86024D01*
Y167126D01*
X84646D01*
Y178937D01*
X84744Y178839D01*
D02*
G37*
G36*
X125689Y160079D02*
Y158799D01*
X113976D01*
Y160177D01*
X125787D01*
X125689Y160079D01*
D02*
G37*
G36*
X130905Y125394D02*
X119095D01*
X119193Y125492D01*
Y126772D01*
X130905D01*
Y125394D01*
D02*
G37*
G36*
X56299Y69836D02*
X57579D01*
Y58124D01*
X56201D01*
Y69935D01*
X56299Y69836D01*
D02*
G37*
G36*
X104724Y50394D02*
X92913D01*
X93012Y50492D01*
Y51772D01*
X104724D01*
Y50394D01*
D02*
G37*
G36*
X56299Y55663D02*
X57579D01*
Y43950D01*
X56201D01*
Y55761D01*
X56299Y55663D01*
D02*
G37*
G36*
X456630Y300496D02*
X456690Y300490D01*
X456750Y300485D01*
X456821Y300479D01*
X456974Y300457D01*
X457143Y300425D01*
X457312Y300375D01*
X457476Y300315D01*
X457481D01*
X457492Y300304D01*
X457520Y300299D01*
X457547Y300283D01*
X457580Y300261D01*
X457623Y300239D01*
X457716Y300184D01*
X457825Y300108D01*
X457935Y300015D01*
X458038Y299911D01*
X458131Y299786D01*
X458137Y299780D01*
X458142Y299769D01*
X458153Y299753D01*
X458169Y299726D01*
X458186Y299693D01*
X458208Y299655D01*
X458224Y299605D01*
X458251Y299556D01*
X458295Y299442D01*
X458333Y299305D01*
X458366Y299158D01*
X458382Y298994D01*
X457744Y298945D01*
Y298950D01*
X457738Y298967D01*
Y298989D01*
X457733Y299021D01*
X457722Y299065D01*
X457711Y299109D01*
X457678Y299212D01*
X457634Y299327D01*
X457569Y299447D01*
X457492Y299562D01*
X457443Y299611D01*
X457389Y299660D01*
X457383Y299666D01*
X457378Y299671D01*
X457356Y299682D01*
X457334Y299698D01*
X457301Y299715D01*
X457263Y299736D01*
X457219Y299758D01*
X457170Y299786D01*
X457110Y299808D01*
X457045Y299829D01*
X456974Y299851D01*
X456897Y299868D01*
X456810Y299884D01*
X456717Y299895D01*
X456619Y299906D01*
X456460D01*
X456417Y299900D01*
X456368D01*
X456313Y299895D01*
X456248Y299889D01*
X456182Y299879D01*
X456035Y299851D01*
X455893Y299813D01*
X455756Y299758D01*
X455690Y299720D01*
X455636Y299682D01*
X455630D01*
X455625Y299671D01*
X455592Y299644D01*
X455549Y299595D01*
X455499Y299529D01*
X455450Y299453D01*
X455407Y299360D01*
X455374Y299261D01*
X455368Y299207D01*
X455363Y299147D01*
Y299141D01*
Y299136D01*
X455368Y299103D01*
X455374Y299054D01*
X455385Y298994D01*
X455412Y298923D01*
X455445Y298847D01*
X455488Y298776D01*
X455554Y298705D01*
X455565Y298699D01*
X455576Y298688D01*
X455598Y298672D01*
X455625Y298656D01*
X455658Y298639D01*
X455701Y298617D01*
X455751Y298590D01*
X455811Y298563D01*
X455882Y298535D01*
X455964Y298508D01*
X456056Y298475D01*
X456166Y298443D01*
X456280Y298410D01*
X456411Y298372D01*
X456559Y298339D01*
X456570D01*
X456597Y298333D01*
X456635Y298322D01*
X456690Y298306D01*
X456755Y298295D01*
X456832Y298273D01*
X456914Y298257D01*
X457001Y298230D01*
X457187Y298180D01*
X457372Y298131D01*
X457460Y298104D01*
X457536Y298077D01*
X457613Y298049D01*
X457673Y298022D01*
X457678D01*
X457694Y298011D01*
X457716Y298000D01*
X457744Y297984D01*
X457782Y297968D01*
X457825Y297940D01*
X457918Y297880D01*
X458027Y297809D01*
X458131Y297722D01*
X458235Y297618D01*
X458279Y297564D01*
X458322Y297509D01*
Y297503D01*
X458333Y297493D01*
X458344Y297476D01*
X458355Y297454D01*
X458371Y297427D01*
X458388Y297389D01*
X458431Y297301D01*
X458470Y297198D01*
X458502Y297077D01*
X458524Y296941D01*
X458535Y296794D01*
Y296788D01*
Y296777D01*
Y296755D01*
X458530Y296728D01*
Y296690D01*
X458524Y296652D01*
X458508Y296548D01*
X458481Y296433D01*
X458437Y296308D01*
X458377Y296177D01*
X458344Y296106D01*
X458300Y296040D01*
Y296035D01*
X458289Y296024D01*
X458279Y296007D01*
X458257Y295980D01*
X458208Y295920D01*
X458131Y295838D01*
X458038Y295751D01*
X457924Y295658D01*
X457793Y295571D01*
X457640Y295489D01*
X457634D01*
X457618Y295478D01*
X457596Y295472D01*
X457563Y295456D01*
X457525Y295445D01*
X457476Y295429D01*
X457421Y295407D01*
X457356Y295390D01*
X457290Y295374D01*
X457214Y295352D01*
X457050Y295325D01*
X456870Y295303D01*
X456673Y295292D01*
X456608D01*
X456559Y295298D01*
X456499D01*
X456433Y295303D01*
X456357Y295308D01*
X456269Y295319D01*
X456089Y295341D01*
X455898Y295374D01*
X455707Y295423D01*
X455521Y295489D01*
X455516D01*
X455499Y295500D01*
X455478Y295511D01*
X455445Y295527D01*
X455407Y295549D01*
X455363Y295571D01*
X455259Y295636D01*
X455145Y295718D01*
X455024Y295822D01*
X454904Y295942D01*
X454801Y296084D01*
X454795Y296089D01*
X454790Y296100D01*
X454779Y296122D01*
X454762Y296155D01*
X454740Y296193D01*
X454719Y296237D01*
X454691Y296291D01*
X454670Y296351D01*
X454642Y296411D01*
X454620Y296482D01*
X454577Y296641D01*
X454544Y296810D01*
X454533Y296903D01*
X454528Y296996D01*
X455156Y297050D01*
Y297045D01*
Y297034D01*
X455161Y297012D01*
X455166Y296985D01*
X455172Y296952D01*
X455177Y296919D01*
X455199Y296826D01*
X455226Y296728D01*
X455259Y296624D01*
X455303Y296521D01*
X455358Y296422D01*
X455363Y296411D01*
X455390Y296384D01*
X455429Y296340D01*
X455483Y296286D01*
X455554Y296220D01*
X455641Y296160D01*
X455745Y296095D01*
X455865Y296035D01*
X455871D01*
X455882Y296029D01*
X455898Y296024D01*
X455925Y296013D01*
X455958Y296002D01*
X455996Y295986D01*
X456040Y295975D01*
X456089Y295964D01*
X456204Y295936D01*
X456340Y295909D01*
X456482Y295893D01*
X456641Y295887D01*
X456706D01*
X456739Y295893D01*
X456777D01*
X456864Y295904D01*
X456968Y295915D01*
X457083Y295931D01*
X457198Y295958D01*
X457307Y295996D01*
X457312D01*
X457318Y296002D01*
X457334Y296007D01*
X457356Y296018D01*
X457405Y296046D01*
X457471Y296078D01*
X457542Y296122D01*
X457618Y296177D01*
X457683Y296237D01*
X457744Y296308D01*
X457749Y296319D01*
X457765Y296340D01*
X457793Y296384D01*
X457820Y296439D01*
X457842Y296504D01*
X457869Y296575D01*
X457886Y296657D01*
X457891Y296739D01*
Y296744D01*
Y296750D01*
Y296777D01*
X457886Y296826D01*
X457874Y296881D01*
X457858Y296947D01*
X457831Y297018D01*
X457798Y297088D01*
X457749Y297154D01*
X457744Y297159D01*
X457722Y297181D01*
X457689Y297214D01*
X457640Y297258D01*
X457580Y297301D01*
X457498Y297351D01*
X457405Y297400D01*
X457296Y297449D01*
X457285Y297454D01*
X457274Y297460D01*
X457252Y297465D01*
X457230Y297471D01*
X457198Y297482D01*
X457154Y297498D01*
X457110Y297509D01*
X457050Y297525D01*
X456990Y297547D01*
X456914Y297564D01*
X456832Y297585D01*
X456739Y297613D01*
X456641Y297634D01*
X456526Y297667D01*
X456400Y297694D01*
X456395D01*
X456373Y297700D01*
X456335Y297711D01*
X456291Y297722D01*
X456231Y297738D01*
X456166Y297755D01*
X456100Y297776D01*
X456024Y297798D01*
X455860Y297847D01*
X455701Y297902D01*
X455625Y297929D01*
X455554Y297957D01*
X455488Y297984D01*
X455434Y298011D01*
X455429D01*
X455417Y298022D01*
X455401Y298033D01*
X455374Y298044D01*
X455308Y298082D01*
X455232Y298137D01*
X455139Y298208D01*
X455052Y298284D01*
X454964Y298377D01*
X454893Y298475D01*
Y298481D01*
X454888Y298486D01*
X454877Y298503D01*
X454866Y298524D01*
X454839Y298585D01*
X454806Y298661D01*
X454773Y298754D01*
X454746Y298863D01*
X454724Y298983D01*
X454719Y299109D01*
Y299114D01*
Y299125D01*
Y299147D01*
X454724Y299174D01*
Y299207D01*
X454730Y299245D01*
X454746Y299343D01*
X454773Y299453D01*
X454806Y299567D01*
X454861Y299693D01*
X454932Y299818D01*
Y299824D01*
X454943Y299835D01*
X454953Y299851D01*
X454970Y299873D01*
X455024Y299933D01*
X455095Y300009D01*
X455183Y300091D01*
X455292Y300173D01*
X455417Y300255D01*
X455565Y300326D01*
X455570D01*
X455581Y300332D01*
X455609Y300343D01*
X455636Y300354D01*
X455674Y300364D01*
X455723Y300381D01*
X455778Y300397D01*
X455838Y300414D01*
X455903Y300430D01*
X455974Y300446D01*
X456127Y300474D01*
X456302Y300496D01*
X456488Y300501D01*
X456580D01*
X456630Y300496D01*
D02*
G37*
G36*
X461658Y298017D02*
X463548Y295374D01*
X462734D01*
X461456Y297170D01*
X461451Y297176D01*
X461440Y297198D01*
X461418Y297225D01*
X461391Y297269D01*
X461358Y297312D01*
X461325Y297361D01*
X461249Y297476D01*
Y297471D01*
X461243Y297465D01*
X461222Y297432D01*
X461194Y297389D01*
X461156Y297334D01*
X461074Y297219D01*
X461041Y297165D01*
X461009Y297121D01*
X459731Y295374D01*
X458928D01*
X460878Y297984D01*
X459158Y300414D01*
X459949D01*
X460872Y299120D01*
X460878Y299114D01*
X460883Y299103D01*
X460899Y299081D01*
X460921Y299054D01*
X460943Y299021D01*
X460970Y298983D01*
X461030Y298896D01*
X461096Y298792D01*
X461162Y298694D01*
X461227Y298590D01*
X461276Y298503D01*
Y298508D01*
X461282Y298514D01*
X461293Y298530D01*
X461309Y298552D01*
X461342Y298601D01*
X461391Y298672D01*
X461451Y298759D01*
X461516Y298857D01*
X461598Y298961D01*
X461680Y299070D01*
X462685Y300414D01*
X463411D01*
X461658Y298017D01*
D02*
G37*
G36*
X475019Y299862D02*
X475013Y299857D01*
X474997Y299840D01*
X474970Y299808D01*
X474937Y299769D01*
X474893Y299715D01*
X474839Y299655D01*
X474784Y299584D01*
X474719Y299502D01*
X474648Y299409D01*
X474571Y299305D01*
X474489Y299190D01*
X474407Y299070D01*
X474326Y298945D01*
X474238Y298803D01*
X474145Y298656D01*
X474058Y298503D01*
X474052Y298492D01*
X474036Y298464D01*
X474014Y298421D01*
X473982Y298355D01*
X473943Y298279D01*
X473894Y298186D01*
X473845Y298082D01*
X473790Y297968D01*
X473736Y297842D01*
X473676Y297705D01*
X473616Y297558D01*
X473556Y297411D01*
X473496Y297252D01*
X473435Y297088D01*
X473332Y296755D01*
Y296750D01*
X473326Y296728D01*
X473315Y296690D01*
X473305Y296646D01*
X473288Y296586D01*
X473272Y296515D01*
X473250Y296433D01*
X473234Y296346D01*
X473212Y296248D01*
X473195Y296138D01*
X473174Y296024D01*
X473157Y295904D01*
X473135Y295778D01*
X473119Y295647D01*
X473097Y295374D01*
X472464D01*
Y295379D01*
Y295401D01*
Y295434D01*
X472469Y295478D01*
X472475Y295538D01*
X472480Y295603D01*
X472485Y295685D01*
X472496Y295773D01*
X472507Y295876D01*
X472524Y295980D01*
X472540Y296100D01*
X472562Y296226D01*
X472589Y296362D01*
X472616Y296504D01*
X472655Y296652D01*
X472693Y296804D01*
X472698Y296815D01*
X472704Y296843D01*
X472715Y296886D01*
X472737Y296947D01*
X472758Y297023D01*
X472786Y297116D01*
X472819Y297214D01*
X472857Y297323D01*
X472900Y297443D01*
X472950Y297574D01*
X472999Y297711D01*
X473059Y297847D01*
X473184Y298137D01*
X473332Y298432D01*
X473337Y298443D01*
X473354Y298464D01*
X473376Y298508D01*
X473403Y298563D01*
X473447Y298628D01*
X473490Y298705D01*
X473545Y298792D01*
X473599Y298890D01*
X473665Y298989D01*
X473736Y299098D01*
X473889Y299316D01*
X474052Y299540D01*
X474140Y299649D01*
X474227Y299753D01*
X471759D01*
Y300348D01*
X475019D01*
Y299862D01*
D02*
G37*
G36*
X469592Y300425D02*
X469652Y300419D01*
X469723Y300408D01*
X469805Y300397D01*
X469886Y300381D01*
X469979Y300359D01*
X470072Y300332D01*
X470170Y300299D01*
X470263Y300261D01*
X470362Y300212D01*
X470454Y300157D01*
X470542Y300097D01*
X470624Y300026D01*
X470629Y300021D01*
X470640Y300009D01*
X470662Y299982D01*
X470689Y299955D01*
X470722Y299917D01*
X470760Y299868D01*
X470798Y299813D01*
X470837Y299747D01*
X470875Y299682D01*
X470913Y299605D01*
X470951Y299524D01*
X470984Y299436D01*
X471011Y299338D01*
X471033Y299240D01*
X471044Y299136D01*
X471049Y299027D01*
Y299021D01*
Y299016D01*
Y298999D01*
Y298978D01*
X471044Y298918D01*
X471033Y298841D01*
X471017Y298748D01*
X470995Y298650D01*
X470968Y298541D01*
X470924Y298432D01*
Y298426D01*
X470919Y298421D01*
X470913Y298404D01*
X470902Y298382D01*
X470869Y298322D01*
X470826Y298246D01*
X470766Y298153D01*
X470695Y298049D01*
X470613Y297940D01*
X470509Y297820D01*
X470504Y297815D01*
X470498Y297804D01*
X470476Y297787D01*
X470454Y297760D01*
X470422Y297727D01*
X470383Y297689D01*
X470340Y297640D01*
X470285Y297591D01*
X470220Y297531D01*
X470149Y297465D01*
X470072Y297389D01*
X469985Y297312D01*
X469892Y297225D01*
X469788Y297138D01*
X469674Y297039D01*
X469554Y296936D01*
X469548Y296930D01*
X469532Y296914D01*
X469499Y296892D01*
X469466Y296859D01*
X469417Y296821D01*
X469368Y296777D01*
X469253Y296679D01*
X469133Y296575D01*
X469018Y296466D01*
X468964Y296417D01*
X468915Y296373D01*
X468871Y296329D01*
X468838Y296297D01*
X468833Y296291D01*
X468811Y296269D01*
X468784Y296237D01*
X468745Y296193D01*
X468702Y296144D01*
X468658Y296089D01*
X468571Y295969D01*
X471055D01*
Y295374D01*
X467719D01*
Y295385D01*
Y295412D01*
Y295456D01*
X467724Y295511D01*
X467730Y295576D01*
X467746Y295647D01*
X467763Y295723D01*
X467790Y295800D01*
Y295805D01*
X467795Y295816D01*
X467801Y295833D01*
X467812Y295860D01*
X467828Y295887D01*
X467844Y295925D01*
X467888Y296013D01*
X467943Y296117D01*
X468014Y296231D01*
X468096Y296351D01*
X468194Y296472D01*
X468199Y296477D01*
X468205Y296488D01*
X468221Y296504D01*
X468249Y296532D01*
X468276Y296559D01*
X468314Y296597D01*
X468352Y296641D01*
X468401Y296690D01*
X468456Y296744D01*
X468516Y296799D01*
X468582Y296865D01*
X468658Y296930D01*
X468735Y297001D01*
X468822Y297072D01*
X468909Y297148D01*
X469007Y297230D01*
X469018Y297236D01*
X469046Y297263D01*
X469084Y297296D01*
X469138Y297345D01*
X469204Y297400D01*
X469280Y297465D01*
X469368Y297536D01*
X469455Y297618D01*
X469641Y297787D01*
X469821Y297968D01*
X469908Y298055D01*
X469990Y298142D01*
X470061Y298224D01*
X470121Y298301D01*
X470127Y298306D01*
X470132Y298317D01*
X470149Y298339D01*
X470165Y298366D01*
X470192Y298404D01*
X470214Y298443D01*
X470269Y298541D01*
X470323Y298656D01*
X470372Y298781D01*
X470405Y298912D01*
X470411Y298978D01*
X470416Y299043D01*
Y299049D01*
Y299060D01*
Y299081D01*
X470411Y299103D01*
Y299136D01*
X470400Y299174D01*
X470383Y299256D01*
X470351Y299354D01*
X470301Y299458D01*
X470274Y299513D01*
X470236Y299562D01*
X470198Y299611D01*
X470149Y299660D01*
X470143Y299666D01*
X470138Y299671D01*
X470121Y299682D01*
X470099Y299698D01*
X470072Y299720D01*
X470039Y299742D01*
X469963Y299791D01*
X469859Y299835D01*
X469745Y299879D01*
X469608Y299906D01*
X469532Y299917D01*
X469412D01*
X469379Y299911D01*
X469341D01*
X469297Y299900D01*
X469199Y299884D01*
X469084Y299851D01*
X468964Y299802D01*
X468904Y299769D01*
X468844Y299736D01*
X468789Y299693D01*
X468735Y299644D01*
X468729Y299638D01*
X468724Y299633D01*
X468713Y299616D01*
X468691Y299595D01*
X468674Y299567D01*
X468653Y299535D01*
X468625Y299496D01*
X468603Y299453D01*
X468576Y299404D01*
X468554Y299349D01*
X468511Y299218D01*
X468478Y299076D01*
X468472Y298994D01*
X468467Y298907D01*
X467834Y298972D01*
Y298983D01*
X467839Y299005D01*
X467844Y299038D01*
X467850Y299087D01*
X467861Y299147D01*
X467877Y299218D01*
X467894Y299294D01*
X467921Y299376D01*
X467948Y299458D01*
X467981Y299551D01*
X468025Y299638D01*
X468068Y299726D01*
X468123Y299818D01*
X468183Y299900D01*
X468249Y299982D01*
X468325Y300053D01*
X468330Y300059D01*
X468347Y300070D01*
X468369Y300086D01*
X468401Y300113D01*
X468445Y300141D01*
X468500Y300173D01*
X468560Y300206D01*
X468631Y300244D01*
X468707Y300277D01*
X468794Y300310D01*
X468887Y300343D01*
X468991Y300370D01*
X469100Y300397D01*
X469215Y300414D01*
X469341Y300425D01*
X469472Y300430D01*
X469543D01*
X469592Y300425D01*
D02*
G37*
G36*
X466217Y295374D02*
X465600D01*
Y299311D01*
X465590Y299300D01*
X465562Y299272D01*
X465513Y299234D01*
X465442Y299180D01*
X465360Y299114D01*
X465257Y299043D01*
X465142Y298967D01*
X465011Y298885D01*
X465005D01*
X464994Y298874D01*
X464978Y298863D01*
X464951Y298852D01*
X464918Y298830D01*
X464880Y298814D01*
X464792Y298765D01*
X464694Y298715D01*
X464585Y298661D01*
X464470Y298612D01*
X464361Y298568D01*
Y299163D01*
X464366Y299169D01*
X464383Y299174D01*
X464410Y299190D01*
X464448Y299207D01*
X464492Y299229D01*
X464547Y299261D01*
X464607Y299294D01*
X464667Y299327D01*
X464809Y299414D01*
X464962Y299518D01*
X465120Y299627D01*
X465267Y299753D01*
X465273Y299758D01*
X465284Y299769D01*
X465306Y299786D01*
X465333Y299813D01*
X465360Y299846D01*
X465398Y299879D01*
X465480Y299971D01*
X465573Y300070D01*
X465666Y300184D01*
X465748Y300304D01*
X465819Y300430D01*
X466217D01*
Y295374D01*
D02*
G37*
G36*
X479332Y293976D02*
X475232D01*
Y294424D01*
X479332D01*
Y293976D01*
D02*
G37*
D10*
X119488Y37697D02*
X118701D01*
X119488D01*
X53543Y273228D02*
X52756D01*
X53543D01*
X41339Y322539D02*
X40551D01*
X41339D01*
X155847Y269291D02*
X155059D01*
X155847D01*
X394130Y34138D02*
X393342D01*
X394130D01*
X239764Y39173D02*
X238976D01*
X239764D01*
X494095Y174902D02*
X493504D01*
X494095D01*
X68272Y184524D02*
X67484D01*
X68272D01*
X436307Y33669D02*
X435520D01*
X436307D01*
X237598Y21949D02*
X237008D01*
X237598D01*
X475197Y176969D02*
X474409D01*
X475197D01*
X78740Y161811D02*
X87402D01*
X77559Y160630D02*
X78740Y161811D01*
X115256Y371063D02*
X185807D01*
X90158Y34252D02*
Y43701D01*
X87992Y45866D02*
X90158Y43701D01*
X64961Y114173D02*
X69291D01*
X62992Y112205D02*
X64961Y114173D01*
X61811Y107874D02*
Y111024D01*
X62992Y112205D01*
X42913Y101575D02*
X44094Y100394D01*
X39370Y101575D02*
X42913D01*
X117126Y94784D02*
X117913Y94784D01*
X115945Y94390D02*
Y95177D01*
X117126Y93602D02*
Y94784D01*
Y95965D01*
X460236Y374016D02*
X461417D01*
X462598D01*
X461024Y372835D02*
X461811D01*
X461417Y374016D02*
X461417Y374803D01*
X469291Y13386D02*
X469291Y14173D01*
X468898Y12205D02*
X469685D01*
X469291Y13386D02*
X470472D01*
X468110D02*
X469291D01*
X148425Y249213D02*
X149606D01*
X150787D01*
X149213Y248031D02*
X150000D01*
X149606Y249213D02*
X149606Y250000D01*
X144095Y4331D02*
X144095Y5118D01*
X143701Y3150D02*
X144488D01*
X144095Y4331D02*
X145276D01*
X142913D02*
X144095D01*
X278346Y140157D02*
X279528D01*
X280709D01*
X279134Y138976D02*
X279921D01*
X279528Y140157D02*
X279528Y140945D01*
X237795Y342126D02*
X237795Y342913D01*
X237402Y340945D02*
X238189D01*
X237795Y342126D02*
X238976D01*
X236614D02*
X237795D01*
X504724Y130709D02*
X505905D01*
X507087D01*
X505512Y129528D02*
X506299D01*
X505905Y130709D02*
X505905Y131496D01*
X114961Y175591D02*
X114961Y176378D01*
X114567Y174409D02*
X115354D01*
X114961Y175591D02*
X116142D01*
X113779D02*
X114961D01*
X78740Y275197D02*
X79921D01*
X81102D01*
X79528Y274016D02*
X80315D01*
X79921Y275197D02*
X79921Y275984D01*
X191732Y62992D02*
X191732Y63779D01*
X191339Y61811D02*
X192126D01*
X191732Y62992D02*
X192913D01*
X190551D02*
X191732D01*
X14961Y312795D02*
X16142D01*
X17323D01*
X15748Y311614D02*
X16535D01*
X16142Y312795D02*
X16142Y313583D01*
X368898Y203543D02*
X368898Y204331D01*
X368504Y202362D02*
X369291D01*
X368898Y203543D02*
X370079D01*
X367717D02*
X368898D01*
X160630Y172441D02*
X161811D01*
X162992D01*
X161417Y171260D02*
X162205D01*
X161811Y172441D02*
X161811Y173228D01*
X110379Y120034D02*
X110380Y131648D01*
X98372Y120034D02*
X98373Y131648D01*
X107820Y100742D02*
X107821Y112356D01*
X95813Y100742D02*
X95814Y112356D01*
X41535Y141634D02*
X41536Y153248D01*
X53543Y141634D02*
X53543Y153248D01*
X61516Y138091D02*
X73130Y138091D01*
X61516Y150098D02*
X73130Y150098D01*
X161516Y28346D02*
Y28740D01*
X153051Y28740D02*
X161516D01*
X151476Y18701D02*
Y19094D01*
X161516Y18701D02*
Y19094D01*
X151476Y18701D02*
X161516D01*
X93701Y154331D02*
X103937D01*
Y143307D02*
Y158268D01*
X93701Y143307D02*
Y158268D01*
X89862Y137894D02*
Y152854D01*
X79626Y137894D02*
Y152854D01*
Y141831D02*
X89862D01*
X54331Y221654D02*
X58268D01*
X54331Y209842D02*
X58268D01*
X85039Y178937D02*
X88976D01*
X85039Y167126D02*
X88976D01*
X125787Y155847D02*
Y159783D01*
X113976Y155847D02*
Y159783D01*
X119095Y125787D02*
Y129724D01*
X130905Y125787D02*
Y129724D01*
X56595Y69935D02*
X60532D01*
X56595Y58124D02*
X60532D01*
X56595Y55761D02*
X60532D01*
X56595Y43950D02*
X60532D01*
X92913Y50787D02*
Y54724D01*
X104724Y50787D02*
Y54724D01*
X221752Y384744D02*
Y386713D01*
X215158Y384744D02*
Y386713D01*
X214173Y384744D02*
Y386713D01*
Y376870D02*
Y378839D01*
X215158Y376870D02*
Y378839D01*
X221752Y376870D02*
Y378839D01*
Y368996D02*
Y370965D01*
X215158Y368996D02*
Y370965D01*
X214173Y368996D02*
Y370965D01*
X457185Y15945D02*
Y17913D01*
X456201Y15945D02*
Y17913D01*
X449606Y15945D02*
Y17913D01*
X453543Y26772D02*
X455512D01*
X453543Y33366D02*
X455512D01*
X453543Y34350D02*
X455512D01*
X148228Y87008D02*
X150197D01*
X148228Y86024D02*
X150197D01*
X148228Y79429D02*
X150197D01*
X380020Y21555D02*
X381988D01*
X380020Y28150D02*
X381988D01*
X380020Y29134D02*
X381988D01*
X386220D02*
X388189D01*
X386220Y28150D02*
X388189D01*
X386220Y21555D02*
X388189D01*
X435827Y150984D02*
Y152953D01*
X429232Y150984D02*
Y152953D01*
X428248Y150984D02*
Y152953D01*
X145374Y20866D02*
X147343D01*
X145374Y21850D02*
X147343D01*
X145374Y28445D02*
X147343D01*
X129331Y54429D02*
X129527D01*
X128346Y55413D02*
Y55610D01*
Y70177D02*
X129527D01*
X128346Y68996D02*
Y70177D01*
X142913D02*
X144095D01*
Y68996D02*
Y70177D01*
Y54429D02*
Y55610D01*
X142913Y54429D02*
X144095D01*
X288878Y187466D02*
X289403Y187991D01*
X290452D01*
X290977Y187466D01*
Y186942D01*
X290452Y186417D01*
X289928D01*
X290452D01*
X290977Y185892D01*
Y185367D01*
X290452Y184843D01*
X289403D01*
X288878Y185367D01*
X292027Y187991D02*
Y185892D01*
X293076Y184843D01*
X294126Y185892D01*
Y187991D01*
X295175Y187466D02*
X295700Y187991D01*
X296749D01*
X297274Y187466D01*
Y186942D01*
X296749Y186417D01*
X296225D01*
X296749D01*
X297274Y185892D01*
Y185367D01*
X296749Y184843D01*
X295700D01*
X295175Y185367D01*
X215354Y37794D02*
Y35170D01*
X215879Y34646D01*
X216929D01*
X217453Y35170D01*
Y37794D01*
X220602Y37269D02*
X220077Y37794D01*
X219028D01*
X218503Y37269D01*
Y36745D01*
X219028Y36220D01*
X220077D01*
X220602Y35695D01*
Y35170D01*
X220077Y34646D01*
X219028D01*
X218503Y35170D01*
X221652Y37794D02*
Y34646D01*
X223226D01*
X223751Y35170D01*
Y35695D01*
X223226Y36220D01*
X221652D01*
X223226D01*
X223751Y36745D01*
Y37269D01*
X223226Y37794D01*
X221652D01*
X227165Y34646D02*
Y37794D01*
X228215Y36745D01*
X229264Y37794D01*
Y34646D01*
X232413Y37269D02*
X231888Y37794D01*
X230839D01*
X230314Y37269D01*
Y35170D01*
X230839Y34646D01*
X231888D01*
X232413Y35170D01*
X233463Y37794D02*
Y35170D01*
X233987Y34646D01*
X235037D01*
X235562Y35170D01*
Y37794D01*
X346441Y17523D02*
X348540D01*
X347491D01*
Y14374D01*
X346441Y4374D02*
Y7523D01*
X348015D01*
X348540Y6998D01*
Y5948D01*
X348015Y5424D01*
X346441D01*
X347491D02*
X348540Y4374D01*
X60728Y128051D02*
Y131200D01*
X62303D01*
X62827Y130675D01*
Y129625D01*
X62303Y129101D01*
X60728D01*
X61778D02*
X62827Y128051D01*
X63877Y131200D02*
X65976Y128051D01*
Y131200D02*
X63877Y128051D01*
X219685Y43700D02*
Y41601D01*
X220735Y40551D01*
X221784Y41601D01*
Y43700D01*
X222834D02*
Y40551D01*
X224408D01*
X224933Y41076D01*
Y41601D01*
X224408Y42125D01*
X222834D01*
X224408D01*
X224933Y42650D01*
Y43175D01*
X224408Y43700D01*
X222834D01*
X225982D02*
Y41076D01*
X226507Y40551D01*
X227556D01*
X228081Y41076D01*
Y43700D01*
X231230Y43175D02*
X230705Y43700D01*
X229656D01*
X229131Y43175D01*
Y42650D01*
X229656Y42125D01*
X230705D01*
X231230Y41601D01*
Y41076D01*
X230705Y40551D01*
X229656D01*
X229131Y41076D01*
X60728Y119389D02*
X62827D01*
X61778D01*
Y116240D01*
X63877Y119389D02*
X65976Y116240D01*
Y119389D02*
X63877Y116240D01*
X478462Y155994D02*
X477937Y156519D01*
X476887D01*
X476362Y155994D01*
Y155469D01*
X476887Y154944D01*
X477937D01*
X478462Y154420D01*
Y153895D01*
X477937Y153370D01*
X476887D01*
X476362Y153895D01*
X481610Y155994D02*
X481085Y156519D01*
X480036D01*
X479511Y155994D01*
Y153895D01*
X480036Y153370D01*
X481085D01*
X481610Y153895D01*
X482660Y156519D02*
Y153370D01*
Y154420D01*
X484759Y156519D01*
X483184Y154944D01*
X484759Y153370D01*
X348540Y26998D02*
X348015Y27523D01*
X346966D01*
X346441Y26998D01*
Y24899D01*
X346966Y24374D01*
X348015D01*
X348540Y24899D01*
Y25948D01*
X347491D01*
X476362Y133370D02*
Y136519D01*
X477412Y135469D01*
X478462Y136519D01*
Y133370D01*
X479511Y136519D02*
X480560D01*
X480036D01*
Y133370D01*
X479511D01*
X480560D01*
X484234Y135994D02*
X483709Y136519D01*
X482660D01*
X482135Y135994D01*
Y135469D01*
X482660Y134944D01*
X483709D01*
X484234Y134420D01*
Y133895D01*
X483709Y133370D01*
X482660D01*
X482135Y133895D01*
X486858Y136519D02*
X485808D01*
X485283Y135994D01*
Y133895D01*
X485808Y133370D01*
X486858D01*
X487383Y133895D01*
Y135994D01*
X486858Y136519D01*
X177559Y253149D02*
X178609D01*
X178084D01*
Y250000D01*
X177559D01*
X178609D01*
X181757Y253149D02*
X180708D01*
X180183Y252624D01*
Y250525D01*
X180708Y250000D01*
X181757D01*
X182282Y250525D01*
Y252624D01*
X181757Y253149D01*
X183332Y252624D02*
X183856Y253149D01*
X184906D01*
X185431Y252624D01*
Y250525D01*
X184906Y250000D01*
X183856D01*
X183332Y250525D01*
Y252624D01*
X83595Y71915D02*
X83070Y72440D01*
X82021D01*
X81496Y71915D01*
Y71390D01*
X82021Y70866D01*
X83070D01*
X83595Y70341D01*
Y69816D01*
X83070Y69291D01*
X82021D01*
X81496Y69816D01*
X84645Y72440D02*
Y69816D01*
X85169Y69291D01*
X86219D01*
X86744Y69816D01*
Y72440D01*
X89892Y71915D02*
X89368Y72440D01*
X88318D01*
X87793Y71915D01*
Y71390D01*
X88318Y70866D01*
X89368D01*
X89892Y70341D01*
Y69816D01*
X89368Y69291D01*
X88318D01*
X87793Y69816D01*
X90942Y69291D02*
Y72440D01*
X92516D01*
X93041Y71915D01*
Y70866D01*
X92516Y70341D01*
X90942D01*
X210345Y16650D02*
X209820Y16126D01*
Y15076D01*
X210345Y14551D01*
X212444D01*
X212968Y15076D01*
Y16126D01*
X212444Y16650D01*
X211394D01*
Y15601D01*
X212968Y17700D02*
X209820D01*
X212968Y19799D01*
X209820D01*
Y20848D02*
X212968D01*
Y22423D01*
X212444Y22947D01*
X210345D01*
X209820Y22423D01*
Y20848D01*
X476362Y143370D02*
Y146519D01*
X477412Y145469D01*
X478462Y146519D01*
Y143370D01*
X481085Y146519D02*
X480036D01*
X479511Y145994D01*
Y143895D01*
X480036Y143370D01*
X481085D01*
X481610Y143895D01*
Y145994D01*
X481085Y146519D01*
X484759Y145994D02*
X484234Y146519D01*
X483184D01*
X482660Y145994D01*
Y145469D01*
X483184Y144944D01*
X484234D01*
X484759Y144420D01*
Y143895D01*
X484234Y143370D01*
X483184D01*
X482660Y143895D01*
X485808Y146519D02*
X486858D01*
X486333D01*
Y143370D01*
X485808D01*
X486858D01*
X96587Y389369D02*
X95538D01*
X96062D01*
Y386745D01*
X95538Y386221D01*
X95013D01*
X94488Y386745D01*
X97637Y386221D02*
X98686D01*
X98162D01*
Y389369D01*
X97637Y388844D01*
X100261D02*
X100785Y389369D01*
X101835D01*
X102360Y388844D01*
Y386745D01*
X101835Y386221D01*
X100785D01*
X100261Y386745D01*
Y388844D01*
X213713Y322506D02*
X213189Y323030D01*
X212139D01*
X211614Y322506D01*
Y320407D01*
X212139Y319882D01*
X213189D01*
X213713Y320407D01*
X216862Y323030D02*
X214763D01*
Y321456D01*
X215812D01*
X214763D01*
Y319882D01*
X220010Y322506D02*
X219486Y323030D01*
X218436D01*
X217911Y322506D01*
Y320407D01*
X218436Y319882D01*
X219486D01*
X220010Y320407D01*
Y321456D01*
X218961D01*
X223159Y319882D02*
X221060D01*
X223159Y321981D01*
Y322506D01*
X222634Y323030D01*
X221585D01*
X221060Y322506D01*
X66832Y385237D02*
Y388385D01*
X68406D01*
X68931Y387860D01*
Y386811D01*
X68406Y386286D01*
X66832D01*
X69981Y385237D02*
X71030D01*
X70505D01*
Y388385D01*
X69981Y387860D01*
X74704Y388385D02*
X72604D01*
Y386811D01*
X73654Y387336D01*
X74179D01*
X74704Y386811D01*
Y385761D01*
X74179Y385237D01*
X73129D01*
X72604Y385761D01*
X108661Y53542D02*
Y50919D01*
X109186Y50394D01*
X110236D01*
X110760Y50919D01*
Y53542D01*
X111810Y50394D02*
X112859D01*
X112335D01*
Y53542D01*
X111810Y53017D01*
X114434D02*
X114959Y53542D01*
X116008D01*
X116533Y53017D01*
Y52493D01*
X116008Y51968D01*
X115483D01*
X116008D01*
X116533Y51443D01*
Y50919D01*
X116008Y50394D01*
X114959D01*
X114434Y50919D01*
X92520Y11811D02*
X89371D01*
Y13385D01*
X89896Y13910D01*
X90945D01*
X91470Y13385D01*
Y11811D01*
X92520Y16534D02*
X89371D01*
X90945Y14960D01*
Y17059D01*
X64469Y264567D02*
X67093D01*
X67618Y265092D01*
Y266141D01*
X67093Y266666D01*
X64469D01*
X67618Y267716D02*
Y268765D01*
Y268240D01*
X64469D01*
X64994Y267716D01*
Y270339D02*
X64469Y270864D01*
Y271914D01*
X64994Y272438D01*
X65519D01*
X66044Y271914D01*
X66569Y272438D01*
X67093D01*
X67618Y271914D01*
Y270864D01*
X67093Y270339D01*
X66569D01*
X66044Y270864D01*
X65519Y270339D01*
X64994D01*
X66044Y270864D02*
Y271914D01*
X52265Y313583D02*
X54889D01*
X55413Y314107D01*
Y315157D01*
X54889Y315682D01*
X52265D01*
X55413Y316731D02*
Y317781D01*
Y317256D01*
X52265D01*
X52790Y316731D01*
X52265Y321454D02*
Y319355D01*
X53839D01*
X53314Y320405D01*
Y320929D01*
X53839Y321454D01*
X54889D01*
X55413Y320929D01*
Y319880D01*
X54889Y319355D01*
X409449Y124015D02*
Y120866D01*
X411023D01*
X411548Y121391D01*
Y123490D01*
X411023Y124015D01*
X409449D01*
X412597Y123490D02*
X413122Y124015D01*
X414172D01*
X414697Y123490D01*
Y121391D01*
X414172Y120866D01*
X413122D01*
X412597Y121391D01*
Y123490D01*
X409842Y59448D02*
Y56299D01*
X411417D01*
X411942Y56824D01*
Y58923D01*
X411417Y59448D01*
X409842D01*
X415090D02*
X412991D01*
Y57873D01*
X414041Y58398D01*
X414565D01*
X415090Y57873D01*
Y56824D01*
X414565Y56299D01*
X413516D01*
X412991Y56824D01*
X505118Y355511D02*
Y352362D01*
X506692D01*
X507217Y352887D01*
Y354986D01*
X506692Y355511D01*
X505118D01*
X510366D02*
X508267D01*
Y353937D01*
X509316Y354461D01*
X509841D01*
X510366Y353937D01*
Y352887D01*
X509841Y352362D01*
X508791D01*
X508267Y352887D01*
X437008Y355511D02*
Y352362D01*
X438582D01*
X439107Y352887D01*
Y354986D01*
X438582Y355511D01*
X437008D01*
X440157Y354986D02*
X440681Y355511D01*
X441731D01*
X442255Y354986D01*
Y352887D01*
X441731Y352362D01*
X440681D01*
X440157Y352887D01*
Y354986D01*
X118142Y252952D02*
X116043D01*
Y249803D01*
X118142D01*
X116043Y251377D02*
X117093D01*
X119192Y249803D02*
Y252952D01*
X121291Y249803D01*
Y252952D01*
X103150Y217717D02*
Y220865D01*
X104724D01*
X105249Y220340D01*
Y219291D01*
X104724Y218766D01*
X103150D01*
X104199D02*
X105249Y217717D01*
X108397Y220865D02*
X106298D01*
Y217717D01*
X108397D01*
X106298Y219291D02*
X107348D01*
X111546Y220340D02*
X111021Y220865D01*
X109972D01*
X109447Y220340D01*
Y219816D01*
X109972Y219291D01*
X111021D01*
X111546Y218766D01*
Y218241D01*
X111021Y217717D01*
X109972D01*
X109447Y218241D01*
X114694Y220865D02*
X112595D01*
Y217717D01*
X114694D01*
X112595Y219291D02*
X113645D01*
X115744Y220865D02*
X117843D01*
X116794D01*
Y217717D01*
X168996Y221259D02*
Y218110D01*
X170570D01*
X171095Y218635D01*
Y219160D01*
X170570Y219685D01*
X168996D01*
X170570D01*
X171095Y220209D01*
Y220734D01*
X170570Y221259D01*
X168996D01*
X173719D02*
X172669D01*
X172145Y220734D01*
Y218635D01*
X172669Y218110D01*
X173719D01*
X174244Y218635D01*
Y220734D01*
X173719Y221259D01*
X176867D02*
X175818D01*
X175293Y220734D01*
Y218635D01*
X175818Y218110D01*
X176867D01*
X177392Y218635D01*
Y220734D01*
X176867Y221259D01*
X178442D02*
X180541D01*
X179491D01*
Y218110D01*
X181590Y220734D02*
X182115Y221259D01*
X183165D01*
X183689Y220734D01*
Y218635D01*
X183165Y218110D01*
X182115D01*
X181590Y218635D01*
Y220734D01*
X91469Y202624D02*
X90944Y203149D01*
X89895D01*
X89370Y202624D01*
Y200525D01*
X89895Y200000D01*
X90944D01*
X91469Y200525D01*
X92519Y203149D02*
Y200000D01*
Y201574D01*
X94618D01*
Y203149D01*
Y200000D01*
X97766Y202624D02*
X97242Y203149D01*
X96192D01*
X95667Y202624D01*
Y200525D01*
X96192Y200000D01*
X97242D01*
X97766Y200525D01*
Y201574D01*
X96717D01*
X98816Y199475D02*
X100915D01*
X104063Y202624D02*
X103539Y203149D01*
X102489D01*
X101964Y202624D01*
Y202099D01*
X102489Y201574D01*
X103539D01*
X104063Y201049D01*
Y200525D01*
X103539Y200000D01*
X102489D01*
X101964Y200525D01*
X105113Y203149D02*
X107212D01*
X106163D01*
Y200000D01*
X108262D02*
Y202099D01*
X109311Y203149D01*
X110361Y202099D01*
Y200000D01*
Y201574D01*
X108262D01*
X111410Y203149D02*
X113509D01*
X112460D01*
Y200000D01*
X34646Y10629D02*
Y8530D01*
X35695Y7480D01*
X36745Y8530D01*
Y10629D01*
X39893Y10104D02*
X39369Y10629D01*
X38319D01*
X37794Y10104D01*
Y8005D01*
X38319Y7480D01*
X39369D01*
X39893Y8005D01*
X43042Y10104D02*
X42517Y10629D01*
X41468D01*
X40943Y10104D01*
Y8005D01*
X41468Y7480D01*
X42517D01*
X43042Y8005D01*
X44091Y6955D02*
X46191D01*
X49339Y10104D02*
X48814Y10629D01*
X47765D01*
X47240Y10104D01*
Y8005D01*
X47765Y7480D01*
X48814D01*
X49339Y8005D01*
X50389Y7480D02*
Y10629D01*
X51963D01*
X52488Y10104D01*
Y9055D01*
X51963Y8530D01*
X50389D01*
X24934Y102919D02*
X24409Y103444D01*
X23359D01*
X22835Y102919D01*
Y100820D01*
X23359Y100295D01*
X24409D01*
X24934Y100820D01*
X25983Y100295D02*
Y103444D01*
X27558D01*
X28082Y102919D01*
Y101870D01*
X27558Y101345D01*
X25983D01*
X29132Y103444D02*
Y100295D01*
X31231D01*
X32280Y103444D02*
Y100295D01*
X33855D01*
X34380Y100820D01*
Y102919D01*
X33855Y103444D01*
X32280D01*
X37003D02*
X35954D01*
X35429Y102919D01*
Y100820D01*
X35954Y100295D01*
X37003D01*
X37528Y100820D01*
Y102919D01*
X37003Y103444D01*
X357512Y394061D02*
X356988Y394586D01*
X355938D01*
X355413Y394061D01*
Y391962D01*
X355938Y391437D01*
X356988D01*
X357512Y391962D01*
Y393011D01*
X356463D01*
X358562Y391437D02*
Y394586D01*
X360661Y391437D01*
Y394586D01*
X361711D02*
Y391437D01*
X363285D01*
X363810Y391962D01*
Y394061D01*
X363285Y394586D01*
X361711D01*
X60071Y339172D02*
X57972D01*
Y336024D01*
X60071D01*
X57972Y337598D02*
X59022D01*
X63220Y336024D02*
X61121D01*
X63220Y338123D01*
Y338647D01*
X62695Y339172D01*
X61646D01*
X61121Y338647D01*
X60662Y299408D02*
X58563D01*
Y296260D01*
X60662D01*
X58563Y297834D02*
X59613D01*
X61712Y296260D02*
X62761D01*
X62236D01*
Y299408D01*
X61712Y298884D01*
X60973Y254017D02*
X60448Y254542D01*
X59399D01*
X58874Y254017D01*
Y253493D01*
X59399Y252968D01*
X60448D01*
X60973Y252443D01*
Y251919D01*
X60448Y251394D01*
X59399D01*
X58874Y251919D01*
X62023Y251394D02*
X63072D01*
X62547D01*
Y254542D01*
X62023Y254017D01*
X60973Y281577D02*
X60448Y282101D01*
X59399D01*
X58874Y281577D01*
Y281052D01*
X59399Y280527D01*
X60448D01*
X60973Y280002D01*
Y279478D01*
X60448Y278953D01*
X59399D01*
X58874Y279478D01*
X64122Y278953D02*
X62023D01*
X64122Y281052D01*
Y281577D01*
X63597Y282101D01*
X62547D01*
X62023Y281577D01*
X380152Y9481D02*
X379627Y8956D01*
Y7907D01*
X380152Y7382D01*
X382251D01*
X382776Y7907D01*
Y8956D01*
X382251Y9481D01*
X380152Y12630D02*
X379627Y12105D01*
Y11055D01*
X380152Y10531D01*
X380677D01*
X381201Y11055D01*
Y12105D01*
X381726Y12630D01*
X382251D01*
X382776Y12105D01*
Y11055D01*
X382251Y10531D01*
X388976Y7382D02*
X386877D01*
X385828Y8431D01*
X386877Y9481D01*
X388976D01*
X387402D01*
Y7382D01*
X385828Y10531D02*
X388976D01*
Y12105D01*
X388452Y12630D01*
X386352D01*
X385828Y12105D01*
Y10531D01*
X373853Y31004D02*
X373328Y31529D01*
Y32578D01*
X373853Y33103D01*
X375952D01*
X376476Y32578D01*
Y31529D01*
X375952Y31004D01*
X373853D01*
X376476Y17224D02*
Y18274D01*
Y17749D01*
X373328D01*
X373853Y17224D01*
X435170Y377033D02*
X434645Y377558D01*
X433596D01*
X433071Y377033D01*
Y376508D01*
X433596Y375984D01*
X434645D01*
X435170Y375459D01*
Y374934D01*
X434645Y374410D01*
X433596D01*
X433071Y374934D01*
X436219Y377558D02*
X438318D01*
X437269D01*
Y374410D01*
X441467Y377033D02*
X440942Y377558D01*
X439893D01*
X439368Y377033D01*
Y376508D01*
X439893Y375984D01*
X440942D01*
X441467Y375459D01*
Y374934D01*
X440942Y374410D01*
X439893D01*
X439368Y374934D01*
X200132Y16863D02*
X199607Y16338D01*
Y15289D01*
X200132Y14764D01*
X200657D01*
X201182Y15289D01*
Y16338D01*
X201706Y16863D01*
X202231D01*
X202756Y16338D01*
Y15289D01*
X202231Y14764D01*
X199607Y17912D02*
X202756D01*
Y19487D01*
X202231Y20011D01*
X200132D01*
X199607Y19487D01*
Y17912D01*
X202756Y21061D02*
X200657D01*
X199607Y22110D01*
X200657Y23160D01*
X202756D01*
X201182D01*
Y21061D01*
X190132Y16863D02*
X189607Y16338D01*
Y15289D01*
X190132Y14764D01*
X190657D01*
X191182Y15289D01*
Y16338D01*
X191706Y16863D01*
X192231D01*
X192756Y16338D01*
Y15289D01*
X192231Y14764D01*
X190132Y20011D02*
X189607Y19487D01*
Y18437D01*
X190132Y17912D01*
X192231D01*
X192756Y18437D01*
Y19487D01*
X192231Y20011D01*
X189607Y21061D02*
X192756D01*
Y23160D01*
X180132Y14764D02*
X179607Y15289D01*
Y16338D01*
X180132Y16863D01*
X180657D01*
X181182Y16338D01*
Y15813D01*
Y16338D01*
X181706Y16863D01*
X182231D01*
X182756Y16338D01*
Y15289D01*
X182231Y14764D01*
X179607Y17912D02*
X181706D01*
X182756Y18962D01*
X181706Y20011D01*
X179607D01*
X180132Y21061D02*
X179607Y21586D01*
Y22635D01*
X180132Y23160D01*
X180657D01*
X181182Y22635D01*
Y22110D01*
Y22635D01*
X181706Y23160D01*
X182231D01*
X182756Y22635D01*
Y21586D01*
X182231Y21061D01*
X203839Y386384D02*
X204363Y386908D01*
X205413D01*
X205938Y386384D01*
Y384285D01*
X205413Y383760D01*
X204363D01*
X203839Y384285D01*
Y386384D01*
X204626Y375886D02*
X205676D01*
X205151D01*
Y379034D01*
X204626Y378510D01*
X205938Y368012D02*
X203839D01*
X205938Y370111D01*
Y370636D01*
X205413Y371160D01*
X204363D01*
X203839Y370636D01*
X209744Y393077D02*
X210269Y393601D01*
X211318D01*
X211843Y393077D01*
Y390978D01*
X211318Y390453D01*
X210269D01*
X209744Y390978D01*
Y393077D01*
X223917Y390453D02*
X224967D01*
X224442D01*
Y393601D01*
X223917Y393077D01*
X505905Y145671D02*
X502756D01*
Y147245D01*
X503281Y147770D01*
X504331D01*
X504855Y147245D01*
Y145671D01*
X505905Y148819D02*
Y149869D01*
Y149344D01*
X502756D01*
X503281Y148819D01*
X505905Y153017D02*
X502756D01*
X504331Y151443D01*
Y153542D01*
X206693Y26772D02*
Y29920D01*
X208267D01*
X208792Y29395D01*
Y28346D01*
X208267Y27821D01*
X206693D01*
X209841Y26772D02*
X210891D01*
X210366D01*
Y29920D01*
X209841Y29395D01*
X212465D02*
X212990Y29920D01*
X214040D01*
X214564Y29395D01*
Y28871D01*
X214040Y28346D01*
X213515D01*
X214040D01*
X214564Y27821D01*
Y27296D01*
X214040Y26772D01*
X212990D01*
X212465Y27296D01*
X364175Y23623D02*
Y26771D01*
X365749D01*
X366274Y26246D01*
Y25197D01*
X365749Y24672D01*
X364175D01*
X367323Y23623D02*
X368373D01*
X367848D01*
Y26771D01*
X367323Y26246D01*
X372046Y23623D02*
X369947D01*
X372046Y25722D01*
Y26246D01*
X371521Y26771D01*
X370472D01*
X369947Y26246D01*
X269817Y23623D02*
Y26771D01*
X271392D01*
X271916Y26246D01*
Y25197D01*
X271392Y24672D01*
X269817D01*
X272966Y23623D02*
X274015D01*
X273491D01*
Y26771D01*
X272966Y26246D01*
X275590Y23623D02*
X276639D01*
X276115D01*
Y26771D01*
X275590Y26246D01*
X389764Y380511D02*
Y377887D01*
X390288Y377362D01*
X391338D01*
X391863Y377887D01*
Y380511D01*
X392912Y379986D02*
X393437Y380511D01*
X394487D01*
X395011Y379986D01*
Y379461D01*
X394487Y378937D01*
X393962D01*
X394487D01*
X395011Y378412D01*
Y377887D01*
X394487Y377362D01*
X393437D01*
X392912Y377887D01*
X438531Y134749D02*
Y132125D01*
X439055Y131600D01*
X440105D01*
X440630Y132125D01*
Y134749D01*
X441679Y131600D02*
X442729D01*
X442204D01*
Y134749D01*
X441679Y134224D01*
X444303D02*
X444828Y134749D01*
X445877D01*
X446402Y134224D01*
Y132125D01*
X445877Y131600D01*
X444828D01*
X444303Y132125D01*
Y134224D01*
X93209Y288937D02*
X90060D01*
Y290511D01*
X90585Y291036D01*
X91634D01*
X92159Y290511D01*
Y288937D01*
X90060Y294185D02*
Y292086D01*
X91634D01*
X91110Y293135D01*
Y293660D01*
X91634Y294185D01*
X92684D01*
X93209Y293660D01*
Y292610D01*
X92684Y292086D01*
X462992Y201180D02*
X465091D01*
X464042D01*
Y198031D01*
X466141D02*
Y201180D01*
X467715D01*
X468240Y200655D01*
Y199606D01*
X467715Y199081D01*
X466141D01*
X470864Y198031D02*
Y201180D01*
X469289Y199606D01*
X471388D01*
X139469Y138680D02*
Y136056D01*
X139993Y135531D01*
X141043D01*
X141568Y136056D01*
Y138680D01*
X142617Y135531D02*
X143667D01*
X143142D01*
Y138680D01*
X142617Y138155D01*
X145241Y135531D02*
X146291D01*
X145766D01*
Y138680D01*
X145241Y138155D01*
X231496Y318503D02*
Y315354D01*
X233070D01*
X233595Y315879D01*
Y317978D01*
X233070Y318503D01*
X231496D01*
X234645Y315879D02*
X235169Y315354D01*
X236219D01*
X236744Y315879D01*
Y317978D01*
X236219Y318503D01*
X235169D01*
X234645Y317978D01*
Y317453D01*
X235169Y316929D01*
X236744D01*
X138976Y246456D02*
Y243307D01*
X140551D01*
X141075Y243832D01*
Y245931D01*
X140551Y246456D01*
X138976D01*
X142125Y243307D02*
X143175D01*
X142650D01*
Y246456D01*
X142125Y245931D01*
X144749D02*
X145274Y246456D01*
X146323D01*
X146848Y245931D01*
Y243832D01*
X146323Y243307D01*
X145274D01*
X144749Y243832D01*
Y245931D01*
X187796Y46457D02*
X190945D01*
Y48031D01*
X190420Y48556D01*
X188321D01*
X187796Y48031D01*
Y46457D01*
X190945Y49605D02*
Y50655D01*
Y50130D01*
X187796D01*
X188321Y49605D01*
X190945Y52229D02*
Y53279D01*
Y52754D01*
X187796D01*
X188321Y52229D01*
X181891Y46457D02*
X185039D01*
Y48031D01*
X184515Y48556D01*
X182415D01*
X181891Y48031D01*
Y46457D01*
X185039Y49605D02*
Y50655D01*
Y50130D01*
X181891D01*
X182415Y49605D01*
Y52229D02*
X181891Y52754D01*
Y53803D01*
X182415Y54328D01*
X182940D01*
X183465Y53803D01*
Y53279D01*
Y53803D01*
X183990Y54328D01*
X184515D01*
X185039Y53803D01*
Y52754D01*
X184515Y52229D01*
X49214Y25591D02*
X52362D01*
Y27690D01*
Y28739D02*
Y29789D01*
Y29264D01*
X49214D01*
X49738Y28739D01*
X341437Y260629D02*
Y257480D01*
X343536D01*
X346685D02*
X344586D01*
X346685Y259579D01*
Y260104D01*
X346160Y260629D01*
X345110D01*
X344586Y260104D01*
X128740Y182676D02*
Y179528D01*
X130839D01*
X131889Y182151D02*
X132413Y182676D01*
X133463D01*
X133988Y182151D01*
Y181627D01*
X133463Y181102D01*
X132938D01*
X133463D01*
X133988Y180577D01*
Y180052D01*
X133463Y179528D01*
X132413D01*
X131889Y180052D01*
X500000Y206299D02*
Y209448D01*
X501574D01*
X502099Y208923D01*
Y207874D01*
X501574Y207349D01*
X500000D01*
X503149Y206299D02*
X504198D01*
X503673D01*
Y209448D01*
X503149Y208923D01*
X446850Y361614D02*
Y364763D01*
X448425D01*
X448949Y364238D01*
Y363189D01*
X448425Y362664D01*
X446850D01*
X452098Y361614D02*
X449999D01*
X452098Y363713D01*
Y364238D01*
X451573Y364763D01*
X450524D01*
X449999Y364238D01*
X409449Y125984D02*
Y129133D01*
X411023D01*
X411548Y128608D01*
Y127559D01*
X411023Y127034D01*
X409449D01*
X412597Y128608D02*
X413122Y129133D01*
X414172D01*
X414697Y128608D01*
Y128083D01*
X414172Y127559D01*
X413647D01*
X414172D01*
X414697Y127034D01*
Y126509D01*
X414172Y125984D01*
X413122D01*
X412597Y126509D01*
X169685Y5610D02*
Y8759D01*
X171259D01*
X171784Y8234D01*
Y7185D01*
X171259Y6660D01*
X169685D01*
X174933Y8759D02*
X173883Y8234D01*
X172834Y7185D01*
Y6135D01*
X173358Y5610D01*
X174408D01*
X174933Y6135D01*
Y6660D01*
X174408Y7185D01*
X172834D01*
X298425Y25591D02*
Y28739D01*
X299999D01*
X300524Y28214D01*
Y27165D01*
X299999Y26640D01*
X298425D01*
X301574Y28214D02*
X302099Y28739D01*
X303148D01*
X303673Y28214D01*
Y27690D01*
X303148Y27165D01*
X303673Y26640D01*
Y26115D01*
X303148Y25591D01*
X302099D01*
X301574Y26115D01*
Y26640D01*
X302099Y27165D01*
X301574Y27690D01*
Y28214D01*
X302099Y27165D02*
X303148D01*
X224016Y5512D02*
X220867D01*
Y7086D01*
X221392Y7611D01*
X222441D01*
X222966Y7086D01*
Y5512D01*
X223491Y8660D02*
X224016Y9185D01*
Y10235D01*
X223491Y10759D01*
X221392D01*
X220867Y10235D01*
Y9185D01*
X221392Y8660D01*
X221917D01*
X222441Y9185D01*
Y10759D01*
X22965Y162860D02*
X22440Y163385D01*
X21391D01*
X20866Y162860D01*
Y162335D01*
X21391Y161811D01*
X22440D01*
X22965Y161286D01*
Y160761D01*
X22440Y160236D01*
X21391D01*
X20866Y160761D01*
X24015Y163385D02*
Y160236D01*
X25064Y161286D01*
X26114Y160236D01*
Y163385D01*
X27163Y160236D02*
X28213D01*
X27688D01*
Y163385D01*
X27163Y162860D01*
X463386Y162007D02*
X465485D01*
X464435D01*
Y158858D01*
X466534D02*
Y162007D01*
X468109D01*
X468634Y161482D01*
Y160433D01*
X468109Y159908D01*
X466534D01*
X471782Y162007D02*
X469683D01*
Y160433D01*
X470732Y160957D01*
X471257D01*
X471782Y160433D01*
Y159383D01*
X471257Y158858D01*
X470208D01*
X469683Y159383D01*
X64961Y159842D02*
X67060D01*
X66010D01*
Y156693D01*
X68109D02*
Y159842D01*
X69683D01*
X70208Y159317D01*
Y158267D01*
X69683Y157742D01*
X68109D01*
X71258Y156693D02*
X72307D01*
X71783D01*
Y159842D01*
X71258Y159317D01*
X75981Y156693D02*
X73882D01*
X75981Y158792D01*
Y159317D01*
X75456Y159842D01*
X74406D01*
X73882Y159317D01*
X48031Y188188D02*
X50131D01*
X49081D01*
Y185039D01*
X51180D02*
Y188188D01*
X52754D01*
X53279Y187663D01*
Y186614D01*
X52754Y186089D01*
X51180D01*
X54329Y185039D02*
X55378D01*
X54853D01*
Y188188D01*
X54329Y187663D01*
X56953D02*
X57477Y188188D01*
X58527D01*
X59052Y187663D01*
Y187138D01*
X58527Y186614D01*
X58002D01*
X58527D01*
X59052Y186089D01*
Y185564D01*
X58527Y185039D01*
X57477D01*
X56953Y185564D01*
X95669Y193208D02*
X97768D01*
X96719D01*
Y190059D01*
X98818D02*
Y193208D01*
X100392D01*
X100917Y192683D01*
Y191633D01*
X100392Y191109D01*
X98818D01*
X101967Y190059D02*
X103016D01*
X102491D01*
Y193208D01*
X101967Y192683D01*
X106689Y193208D02*
X104590D01*
Y191633D01*
X105640Y192158D01*
X106165D01*
X106689Y191633D01*
Y190584D01*
X106165Y190059D01*
X105115D01*
X104590Y190584D01*
X95374Y183956D02*
X97473D01*
X96424D01*
Y180807D01*
X98523D02*
Y183956D01*
X100097D01*
X100622Y183431D01*
Y182381D01*
X100097Y181857D01*
X98523D01*
X101671Y180807D02*
X102721D01*
X102196D01*
Y183956D01*
X101671Y183431D01*
X106394Y183956D02*
X105345Y183431D01*
X104295Y182381D01*
Y181332D01*
X104820Y180807D01*
X105869D01*
X106394Y181332D01*
Y181857D01*
X105869Y182381D01*
X104295D01*
X125591Y95668D02*
X127690D01*
X126640D01*
Y92520D01*
X128739D02*
Y95668D01*
X130313D01*
X130838Y95144D01*
Y94094D01*
X130313Y93569D01*
X128739D01*
X133987Y92520D02*
X131888D01*
X133987Y94619D01*
Y95144D01*
X133462Y95668D01*
X132413D01*
X131888Y95144D01*
X135036Y92520D02*
X136086D01*
X135561D01*
Y95668D01*
X135036Y95144D01*
X145079Y44487D02*
X147178D01*
X146128D01*
Y41339D01*
X148227D02*
Y44487D01*
X149802D01*
X150326Y43962D01*
Y42913D01*
X149802Y42388D01*
X148227D01*
X153475Y41339D02*
X151376D01*
X153475Y43438D01*
Y43962D01*
X152950Y44487D01*
X151901D01*
X151376Y43962D01*
X156624Y41339D02*
X154525D01*
X156624Y43438D01*
Y43962D01*
X156099Y44487D01*
X155049D01*
X154525Y43962D01*
X161122Y73818D02*
X163221D01*
X162172D01*
Y70669D01*
X164271D02*
Y73818D01*
X165845D01*
X166370Y73293D01*
Y72244D01*
X165845Y71719D01*
X164271D01*
X169518Y70669D02*
X167419D01*
X169518Y72768D01*
Y73293D01*
X168993Y73818D01*
X167944D01*
X167419Y73293D01*
X170568D02*
X171093Y73818D01*
X172142D01*
X172667Y73293D01*
Y72768D01*
X172142Y72244D01*
X171617D01*
X172142D01*
X172667Y71719D01*
Y71194D01*
X172142Y70669D01*
X171093D01*
X170568Y71194D01*
X255118Y35432D02*
X257217D01*
X256168D01*
Y32283D01*
X258267D02*
Y35432D01*
X259841D01*
X260366Y34907D01*
Y33858D01*
X259841Y33333D01*
X258267D01*
X263514Y32283D02*
X261415D01*
X263514Y34383D01*
Y34907D01*
X262990Y35432D01*
X261940D01*
X261415Y34907D01*
X266663Y35432D02*
X264564D01*
Y33858D01*
X265613Y34383D01*
X266138D01*
X266663Y33858D01*
Y32808D01*
X266138Y32283D01*
X265089D01*
X264564Y32808D01*
X88584Y27953D02*
X91207D01*
X91732Y28477D01*
Y29527D01*
X91207Y30052D01*
X88584D01*
X91732Y31101D02*
Y32151D01*
Y31626D01*
X88584D01*
X89109Y31101D01*
X83465Y107861D02*
Y105237D01*
X83989Y104713D01*
X85039D01*
X85564Y105237D01*
Y107861D01*
X88712Y104713D02*
X86613D01*
X88712Y106812D01*
Y107336D01*
X88187Y107861D01*
X87138D01*
X86613Y107336D01*
X475394Y189861D02*
Y187237D01*
X475918Y186713D01*
X476968D01*
X477493Y187237D01*
Y189861D01*
X480117Y186713D02*
Y189861D01*
X478542Y188287D01*
X480641D01*
X438976Y40550D02*
Y37926D01*
X439501Y37402D01*
X440551D01*
X441075Y37926D01*
Y40550D01*
X442125D02*
X444224D01*
Y40025D01*
X442125Y37926D01*
Y37402D01*
X408465Y25786D02*
Y23163D01*
X408989Y22638D01*
X410039D01*
X410564Y23163D01*
Y25786D01*
X411613Y25262D02*
X412138Y25786D01*
X413188D01*
X413712Y25262D01*
Y24737D01*
X413188Y24212D01*
X413712Y23687D01*
Y23163D01*
X413188Y22638D01*
X412138D01*
X411613Y23163D01*
Y23687D01*
X412138Y24212D01*
X411613Y24737D01*
Y25262D01*
X412138Y24212D02*
X413188D01*
X491732Y321554D02*
Y318930D01*
X492257Y318406D01*
X493307D01*
X493831Y318930D01*
Y321554D01*
X494881Y318930D02*
X495406Y318406D01*
X496455D01*
X496980Y318930D01*
Y321029D01*
X496455Y321554D01*
X495406D01*
X494881Y321029D01*
Y320505D01*
X495406Y319980D01*
X496980D01*
X62403Y189469D02*
X65026D01*
X65551Y189993D01*
Y191043D01*
X65026Y191568D01*
X62403D01*
X65551Y192617D02*
Y193667D01*
Y193142D01*
X62403D01*
X62927Y192617D01*
X65551Y197340D02*
Y195241D01*
X63452Y197340D01*
X62927D01*
X62403Y196815D01*
Y195766D01*
X62927Y195241D01*
X108269Y381693D02*
X110893D01*
X111417Y382218D01*
Y383267D01*
X110893Y383792D01*
X108269D01*
X111417Y384841D02*
Y385891D01*
Y385366D01*
X108269D01*
X108793Y384841D01*
X108269Y389564D02*
X108793Y388515D01*
X109843Y387465D01*
X110893D01*
X111417Y387990D01*
Y389040D01*
X110893Y389564D01*
X110368D01*
X109843Y389040D01*
Y387465D01*
X205118Y67716D02*
Y65092D01*
X205643Y64567D01*
X206692D01*
X207217Y65092D01*
Y67716D01*
X208267Y64567D02*
X209316D01*
X208791D01*
Y67716D01*
X208267Y67191D01*
X210891Y67716D02*
X212990D01*
Y67191D01*
X210891Y65092D01*
Y64567D01*
X239331Y47249D02*
Y44625D01*
X239856Y44100D01*
X240905D01*
X241430Y44625D01*
Y47249D01*
X242479Y44100D02*
X243529D01*
X243004D01*
Y47249D01*
X242479Y46724D01*
X245103Y44625D02*
X245628Y44100D01*
X246677D01*
X247202Y44625D01*
Y46724D01*
X246677Y47249D01*
X245628D01*
X245103Y46724D01*
Y46199D01*
X245628Y45674D01*
X247202D01*
X147244Y278345D02*
Y276246D01*
X148294Y275197D01*
X149343Y276246D01*
Y278345D01*
X150393D02*
X152492D01*
X151442D01*
Y275197D01*
X153541D02*
X154591D01*
X154066D01*
Y278345D01*
X153541Y277821D01*
X72965Y115485D02*
Y117585D01*
X72440Y118109D01*
X71391D01*
X70866Y117585D01*
Y115485D01*
X71391Y114961D01*
X72440D01*
X71916Y116010D02*
X72965Y114961D01*
X72440D02*
X72965Y115485D01*
X74015Y114961D02*
X75064D01*
X74540D01*
Y118109D01*
X74015Y117585D01*
X74146Y126115D02*
Y128214D01*
X73621Y128739D01*
X72572D01*
X72047Y128214D01*
Y126115D01*
X72572Y125591D01*
X73621D01*
X73097Y126640D02*
X74146Y125591D01*
X73621D02*
X74146Y126115D01*
X77295Y125591D02*
X75196D01*
X77295Y127690D01*
Y128214D01*
X76770Y128739D01*
X75721D01*
X75196Y128214D01*
X129626Y51672D02*
Y49048D01*
X130151Y48524D01*
X131200D01*
X131725Y49048D01*
Y51672D01*
X132775Y48524D02*
X133824D01*
X133299D01*
Y51672D01*
X132775Y51147D01*
X136973Y48524D02*
Y51672D01*
X135398Y50098D01*
X137497D01*
X154528Y34645D02*
Y32021D01*
X155052Y31496D01*
X156102D01*
X156627Y32021D01*
Y34645D01*
X159775D02*
X158726Y34120D01*
X157676Y33070D01*
Y32021D01*
X158201Y31496D01*
X159250D01*
X159775Y32021D01*
Y32546D01*
X159250Y33070D01*
X157676D01*
X455905Y193306D02*
Y190682D01*
X456430Y190157D01*
X457480D01*
X458005Y190682D01*
Y193306D01*
X461153D02*
X459054D01*
Y191732D01*
X460104Y192256D01*
X460628D01*
X461153Y191732D01*
Y190682D01*
X460628Y190157D01*
X459579D01*
X459054Y190682D01*
X245276Y361810D02*
Y359186D01*
X245800Y358661D01*
X246850D01*
X247375Y359186D01*
Y361810D01*
X250523Y358661D02*
X248424D01*
X250523Y360760D01*
Y361285D01*
X249998Y361810D01*
X248949D01*
X248424Y361285D01*
X251573D02*
X252098Y361810D01*
X253147D01*
X253672Y361285D01*
Y359186D01*
X253147Y358661D01*
X252098D01*
X251573Y359186D01*
Y361285D01*
X407087Y40452D02*
X409186D01*
X408136D01*
Y37303D01*
X410235D02*
Y40452D01*
X411809D01*
X412334Y39927D01*
Y38877D01*
X411809Y38353D01*
X410235D01*
X413384Y37303D02*
X414433D01*
X413909D01*
Y40452D01*
X413384Y39927D01*
X438583Y54330D02*
X440682D01*
X439632D01*
Y51181D01*
X441731D02*
Y54330D01*
X443306D01*
X443830Y53805D01*
Y52755D01*
X443306Y52231D01*
X441731D01*
X446979Y51181D02*
X444880D01*
X446979Y53280D01*
Y53805D01*
X446454Y54330D01*
X445405D01*
X444880Y53805D01*
X20079Y40157D02*
Y43306D01*
X21653D01*
X22178Y42781D01*
Y41732D01*
X21653Y41207D01*
X20079D01*
X23227Y40157D02*
X24277D01*
X23752D01*
Y43306D01*
X23227Y42781D01*
X25851D02*
X26376Y43306D01*
X27426D01*
X27950Y42781D01*
Y40682D01*
X27426Y40157D01*
X26376D01*
X25851Y40682D01*
Y42781D01*
D11*
X193209Y200492D02*
X193166Y201494D01*
X193039Y202488D01*
X192827Y203468D01*
X192534Y204427D01*
X192160Y205357D01*
X191709Y206252D01*
X191183Y207106D01*
X190587Y207912D01*
X189925Y208665D01*
X189201Y209358D01*
X188421Y209988D01*
X187590Y210550D01*
X186715Y211038D01*
X185801Y211452D01*
X184856Y211785D01*
X183886Y212038D01*
X182898Y212208D01*
X181899Y212293D01*
X180896D01*
X179897Y212208D01*
X178909Y212038D01*
X177939Y211785D01*
X176994Y211451D01*
X176080Y211038D01*
X175205Y210549D01*
X174374Y209988D01*
X173594Y209358D01*
X172871Y208665D01*
X172208Y207912D01*
X171612Y207106D01*
X171086Y206252D01*
X170635Y205357D01*
X170261Y204427D01*
X169968Y203468D01*
X169756Y202488D01*
X169629Y201494D01*
X169587Y200492D01*
X169629Y199490D01*
X169756Y198496D01*
X169968Y197516D01*
X170261Y196557D01*
X170635Y195627D01*
X171087Y194732D01*
X171612Y193878D01*
X172208Y193072D01*
X172871Y192320D01*
X173594Y191626D01*
X174374Y190996D01*
X175205Y190435D01*
X176080Y189946D01*
X176994Y189533D01*
X177939Y189199D01*
X178909Y188946D01*
X179897Y188777D01*
X180896Y188692D01*
X181899D01*
X182898Y188777D01*
X183886Y188946D01*
X184856Y189199D01*
X185801Y189533D01*
X186715Y189946D01*
X187590Y190435D01*
X188421Y190996D01*
X189201Y191626D01*
X189925Y192320D01*
X190587Y193072D01*
X191183Y193878D01*
X191709Y194732D01*
X192160Y195627D01*
X192534Y196557D01*
X192828Y197516D01*
X193039Y198496D01*
X193166Y199490D01*
X193209Y200492D01*
X69888Y102717D02*
X69179D01*
X69888D01*
X135016Y132382D02*
X136984D01*
X149189Y116240D02*
X151157D01*
Y118209D01*
X135016Y116240D02*
Y118209D01*
Y116240D02*
X136984D01*
X151157Y130413D02*
Y132382D01*
X149189D02*
X151157D01*
X135016Y130413D02*
Y132382D01*
X68110Y6299D02*
X72835D01*
X68110Y32283D02*
X72835D01*
D12*
X341240Y178248D02*
X341160Y179220D01*
X340920Y180166D01*
X340528Y181059D01*
X339995Y181875D01*
X339334Y182593D01*
X338565Y183192D01*
X337707Y183656D01*
X336784Y183973D01*
X335822Y184133D01*
X334847D01*
X333885Y183973D01*
X332962Y183656D01*
X332105Y183192D01*
X331335Y182593D01*
X330674Y181875D01*
X330141Y181059D01*
X329749Y180166D01*
X329510Y179220D01*
X329429Y178248D01*
Y166437D02*
X329510Y165465D01*
X329749Y164520D01*
X330141Y163626D01*
X330674Y162810D01*
X331335Y162092D01*
X332105Y161493D01*
X332962Y161029D01*
X333885Y160712D01*
X334847Y160552D01*
X335822D01*
X336784Y160712D01*
X337707Y161029D01*
X338565Y161493D01*
X339334Y162092D01*
X339995Y162810D01*
X340528Y163626D01*
X340920Y164520D01*
X341160Y165465D01*
X341240Y166437D01*
X21555Y222736D02*
X21636Y221764D01*
X21875Y220819D01*
X22267Y219925D01*
X22800Y219109D01*
X23461Y218391D01*
X24231Y217792D01*
X25088Y217328D01*
X26011Y217011D01*
X26973Y216851D01*
X27948D01*
X28910Y217011D01*
X29833Y217328D01*
X30691Y217792D01*
X31460Y218391D01*
X32121Y219109D01*
X32654Y219925D01*
X33046Y220819D01*
X33286Y221764D01*
X33366Y222736D01*
Y234547D02*
X33286Y235519D01*
X33046Y236465D01*
X32654Y237358D01*
X32121Y238175D01*
X31460Y238892D01*
X30691Y239491D01*
X29833Y239955D01*
X28910Y240272D01*
X27948Y240433D01*
X26973D01*
X26011Y240272D01*
X25088Y239955D01*
X24231Y239491D01*
X23461Y238892D01*
X22800Y238175D01*
X22267Y237358D01*
X21875Y236465D01*
X21636Y235519D01*
X21555Y234547D01*
X318634Y360445D02*
X318491Y361441D01*
X318073Y362356D01*
X317414Y363117D01*
X316567Y363661D01*
X315602Y363944D01*
X314595D01*
X313630Y363661D01*
X312783Y363117D01*
X312124Y362356D01*
X311706Y361441D01*
X311563Y360445D01*
X311706Y359449D01*
X312124Y358533D01*
X312783Y357773D01*
X313630Y357229D01*
X314595Y356945D01*
X315602D01*
X316567Y357229D01*
X317414Y357773D01*
X318073Y358533D01*
X318491Y359449D01*
X318634Y360445D01*
X458969Y119941D02*
X458858Y120920D01*
X458533Y121851D01*
X458008Y122685D01*
X457311Y123382D01*
X456477Y123907D01*
X455546Y124232D01*
X454567Y124343D01*
X453587Y124232D01*
X452657Y123907D01*
X451823Y123382D01*
X451125Y122685D01*
X450601Y121851D01*
X450276Y120920D01*
X450165Y119941D01*
X450276Y118962D01*
X450601Y118031D01*
X451125Y117197D01*
X451823Y116499D01*
X452657Y115975D01*
X453587Y115650D01*
X454567Y115539D01*
X455546Y115650D01*
X456477Y115975D01*
X457311Y116499D01*
X458008Y117197D01*
X458533Y118031D01*
X458858Y118962D01*
X458969Y119941D01*
X128346Y54035D02*
X127559D01*
X128346D01*
X258662Y133071D02*
X257874D01*
X258662D01*
X259449D02*
X259004Y133994D01*
X258005Y134222D01*
X257204Y133583D01*
Y132558D01*
X258005Y131919D01*
X259004Y132148D01*
X259449Y133071D01*
X240846Y385433D02*
X240059D01*
X240846D01*
X87067Y374508D02*
Y382008D01*
X67067D02*
X87067D01*
X67067Y374508D02*
Y382008D01*
X87067Y342008D02*
Y349508D01*
X67067Y342008D02*
X87067D01*
X67067D02*
Y349508D01*
X74567Y354508D02*
Y359508D01*
X79567D01*
X74567Y364508D02*
Y369508D01*
Y364508D02*
X79567D01*
Y359508D02*
Y364508D01*
X79567Y310650D02*
Y315650D01*
X74567D02*
X79567D01*
X74567D02*
Y320650D01*
Y310650D02*
X79567D01*
X74567Y305650D02*
Y310650D01*
X67067Y288150D02*
Y295650D01*
Y288150D02*
X87067D01*
Y295650D01*
X67067Y330650D02*
Y338150D01*
X87067D01*
Y330650D02*
Y338150D01*
X329429Y166437D02*
Y178248D01*
X341240Y166437D02*
Y178248D01*
X33366Y222736D02*
Y234547D01*
X21555Y222736D02*
Y234547D01*
X45669Y277362D02*
Y278543D01*
X44094Y276969D02*
X45276D01*
X45669Y277362D01*
Y285630D02*
Y286811D01*
X44094Y287205D02*
X45276D01*
X45669Y286811D01*
X21260Y277362D02*
Y278543D01*
X21654Y276969D02*
X22835D01*
X21260Y277362D02*
X21654Y276969D01*
X21260Y285630D02*
Y286811D01*
X21654Y287205D02*
X22835D01*
X21260Y286811D02*
X21654Y287205D01*
X21260Y259055D02*
X21654Y259449D01*
X22835D01*
X21260Y257874D02*
Y259055D01*
Y249606D02*
X21654Y249213D01*
X22835D01*
X21260Y249606D02*
Y250787D01*
X45276Y259449D02*
X45669Y259055D01*
X44094Y259449D02*
X45276D01*
X45669Y257874D02*
Y259055D01*
X45276Y249213D02*
X45669Y249606D01*
X44094Y249213D02*
X45276D01*
X45669Y249606D02*
Y250787D01*
X21260Y339173D02*
Y340354D01*
X21654Y340748D02*
X22835D01*
X21260Y340354D02*
X21654Y340748D01*
X21260Y330906D02*
Y332087D01*
X21654Y330512D02*
X22835D01*
X21260Y330906D02*
X21654Y330512D01*
X45669Y339173D02*
Y340354D01*
X44094Y340748D02*
X45276D01*
X45669Y340354D01*
Y330906D02*
Y332087D01*
X44094Y330512D02*
X45276D01*
X45669Y330906D01*
X45276Y294488D02*
X45669Y294882D01*
X44094Y294488D02*
X45276D01*
X45669Y294882D02*
Y296063D01*
X45276Y304724D02*
X45669Y304331D01*
X44094Y304724D02*
X45276D01*
X45669Y303150D02*
Y304331D01*
X21260Y294882D02*
X21654Y294488D01*
X22835D01*
X21260Y294882D02*
Y296063D01*
Y304331D02*
X21654Y304724D01*
X22835D01*
X21260Y303150D02*
Y304331D01*
X315472Y2449D02*
Y4417D01*
X306024Y2449D02*
Y4417D01*
X315472D01*
X328248Y1504D02*
X341063D01*
Y21504D01*
X328248D02*
X341063D01*
X280433Y1504D02*
X293248D01*
X280433D02*
Y21504D01*
X293248D01*
X154921Y223819D02*
X158858Y223819D01*
X165354Y213287D02*
Y219291D01*
X144488Y207283D02*
Y213287D01*
X150984Y223819D02*
X154921Y223819D01*
X144488Y213287D02*
Y219291D01*
X165354Y207283D02*
Y213287D01*
X154921Y202756D02*
X158858Y202756D01*
X150984D02*
X154921Y202756D01*
X144488Y219291D02*
X146309Y221112D01*
X144488Y207283D02*
X146309Y205463D01*
X163533Y221112D02*
X165354Y219291D01*
X163533Y205463D02*
X165354Y207283D01*
X120276Y219291D02*
X122097Y221112D01*
X120276Y207283D02*
X122097Y205463D01*
X139321Y221112D02*
X141142Y219291D01*
X139321Y205463D02*
X141142Y207283D01*
X130709Y223819D02*
X134646Y223819D01*
X126772D02*
X130709Y223819D01*
X120276Y213287D02*
Y219291D01*
X141142Y207283D02*
Y213287D01*
X130709Y202756D02*
X134646Y202756D01*
X141142Y213287D02*
Y219291D01*
X120276Y207283D02*
Y213287D01*
X126772Y202756D02*
X130709Y202756D01*
X107972Y270079D02*
X107973Y266142D01*
X112500Y276575D02*
X118504D01*
Y255709D02*
X124508D01*
X107972Y262205D02*
X107973Y266142D01*
X112500Y255709D02*
X118504D01*
Y276575D02*
X124508D01*
X129035Y266142D02*
X129035Y270079D01*
X129035Y266142D02*
X129035Y262205D01*
X110679Y257529D02*
X112500Y255709D01*
X124508D02*
X126329Y257529D01*
X110679Y274754D02*
X112500Y276575D01*
X124508D02*
X126329Y274754D01*
X187894Y276575D02*
X189715Y274754D01*
X174065D02*
X175886Y276575D01*
X187894Y255709D02*
X189715Y257529D01*
X174065D02*
X175886Y255709D01*
X192421Y266142D02*
X192421Y262205D01*
X192421Y266142D02*
X192421Y270079D01*
X181890Y276575D02*
X187894D01*
X175886Y255709D02*
X181890D01*
X171358Y262205D02*
X171358Y266142D01*
X181890Y255709D02*
X187894D01*
X175886Y276575D02*
X181890D01*
X171358Y270079D02*
X171358Y266142D01*
X411516Y313752D02*
X411909D01*
X411122Y364539D02*
X411516D01*
X409154D02*
X409547D01*
X409449Y374736D02*
X409842D01*
X411417D02*
X411811D01*
X290256Y374441D02*
X290650D01*
X56299Y165157D02*
X68110D01*
X56299Y177756D02*
X68110D01*
X350696Y341451D02*
X356694D01*
X350696Y337452D01*
X356694D01*
X355695Y331454D02*
X356694Y332454D01*
Y334453D01*
X355695Y335453D01*
X354695D01*
X353695Y334453D01*
Y332454D01*
X352695Y331454D01*
X351696D01*
X350696Y332454D01*
Y334453D01*
X351696Y335453D01*
X353695Y329455D02*
Y325456D01*
X356694Y323457D02*
X350696D01*
X353695D01*
Y319458D01*
X356694D01*
X350696D01*
Y317459D02*
X356694D01*
Y314459D01*
X355695Y313460D01*
X353695D01*
X352695Y314459D01*
Y317459D01*
X353695Y311460D02*
Y307462D01*
X355695Y301464D02*
X356694Y302463D01*
Y304463D01*
X355695Y305462D01*
X351696D01*
X350696Y304463D01*
Y302463D01*
X351696Y301464D01*
X353695D01*
Y303463D01*
X356694Y299464D02*
X350696D01*
Y295466D01*
X346097Y355446D02*
X347096Y356446D01*
Y358445D01*
X346097Y359445D01*
X345097D01*
X344097Y358445D01*
Y356446D01*
X343098Y355446D01*
X342098D01*
X341098Y356446D01*
Y358445D01*
X342098Y359445D01*
X341098Y349448D02*
Y353447D01*
X345097Y349448D01*
X346097D01*
X347096Y350448D01*
Y352447D01*
X346097Y353447D01*
X347096Y343450D02*
Y347449D01*
X344097D01*
X345097Y345449D01*
Y344450D01*
X344097Y343450D01*
X342098D01*
X341098Y344450D01*
Y346449D01*
X342098Y347449D01*
X341098Y337452D02*
Y341451D01*
X345097Y337452D01*
X346097D01*
X347096Y338452D01*
Y340451D01*
X346097Y341451D01*
X347096Y331454D02*
Y335453D01*
X344097D01*
X345097Y333453D01*
Y332454D01*
X344097Y331454D01*
X342098D01*
X341098Y332454D01*
Y334453D01*
X342098Y335453D01*
X347096Y325456D02*
Y329455D01*
X344097D01*
Y327455D01*
Y329455D01*
X341098D01*
X346097Y323457D02*
X347096Y322457D01*
Y320458D01*
X346097Y319458D01*
X345097D01*
X344097Y320458D01*
X343098Y319458D01*
X342098D01*
X341098Y320458D01*
Y322457D01*
X342098Y323457D01*
X343098D01*
X344097Y322457D01*
X345097Y323457D01*
X346097D01*
X344097Y322457D02*
Y320458D01*
Y317459D02*
Y313460D01*
X346097Y307462D02*
X347096Y308461D01*
Y310461D01*
X346097Y311460D01*
X342098D01*
X341098Y310461D01*
Y308461D01*
X342098Y307462D01*
X344097D01*
Y309461D01*
X347096Y305462D02*
X341098D01*
Y301464D01*
X344097Y299464D02*
Y295466D01*
X341098Y293466D02*
X347096D01*
Y290467D01*
X346097Y289468D01*
X344097D01*
X343098Y290467D01*
Y293466D01*
Y291467D02*
X341098Y289468D01*
X347096Y287468D02*
Y283470D01*
Y285469D01*
X341098D01*
X347096Y281470D02*
X341098D01*
X343098D01*
X347096Y277471D01*
X344097Y280470D01*
X341098Y277471D01*
X392098Y285946D02*
X388100D01*
X385101Y284946D02*
X383101D01*
X382102Y285946D01*
Y288945D01*
X385101D01*
X386100Y287945D01*
X385101Y286946D01*
X382102D01*
X380102Y288945D02*
Y284946D01*
X377103D01*
X376104Y285946D01*
Y288945D01*
X373105Y283946D02*
Y284946D01*
X374104D01*
X372105D01*
X373105D01*
Y287945D01*
X372105Y288945D01*
X413673Y299364D02*
X412361Y301988D01*
X411049Y299364D01*
X409737Y298053D02*
Y301988D01*
X407770D01*
X407114Y301332D01*
Y300676D01*
Y300020D01*
X407770Y299364D01*
X409737D01*
X413673Y309364D02*
Y311988D01*
Y310676D01*
X413017Y310020D01*
X412361Y309364D01*
X411705D01*
X409737Y311988D02*
X407770D01*
X407114Y311332D01*
X407770Y310676D01*
X409082D01*
X409737Y310020D01*
X409082Y309364D01*
X407114D01*
X413673Y318053D02*
X411049D01*
X412361D01*
Y321988D01*
X409737Y318708D02*
X409082Y318053D01*
X407770D01*
X407114Y318708D01*
Y319364D01*
X407770Y320020D01*
X408426D01*
X407770D01*
X407114Y320676D01*
Y321332D01*
X407770Y321988D01*
X409082D01*
X409737Y321332D01*
X413673Y339364D02*
X412361Y341988D01*
X411049Y339364D01*
X407114D02*
X409082D01*
X409737Y340020D01*
Y341332D01*
X409082Y341988D01*
X407114D01*
X413673Y359364D02*
Y361988D01*
Y360676D01*
X413017Y360020D01*
X412361Y359364D01*
X411705D01*
X409737Y361988D02*
X407770D01*
X407114Y361332D01*
X407770Y360676D01*
X409082D01*
X409737Y360020D01*
X409082Y359364D01*
X407114D01*
X413673Y368053D02*
Y371988D01*
X411705D01*
X411049Y371332D01*
Y370676D01*
Y370020D01*
X411705Y369364D01*
X413673D01*
X409737Y371988D02*
X407770D01*
X407114Y371332D01*
X407770Y370676D01*
X409082D01*
X409737Y370020D01*
X409082Y369364D01*
X407114D01*
X413673Y381988D02*
X412361D01*
X413017D01*
Y378052D01*
X413673Y378708D01*
X410393Y383300D02*
Y379364D01*
X408426D01*
X407770Y380020D01*
Y381332D01*
X408426Y381988D01*
X410393D01*
X412361Y393300D02*
X411705D01*
X411049Y392644D01*
Y389364D01*
X413017D01*
X413673Y390020D01*
Y391332D01*
X413017Y391988D01*
X411049D01*
X293673Y389364D02*
X292361Y391988D01*
X291049Y389364D01*
X287114D02*
X289082D01*
X289738Y390020D01*
Y391332D01*
X289082Y391988D01*
X287114D01*
X289212Y383300D02*
X288556D01*
X287900Y382644D01*
Y379364D01*
X289868D01*
X290524Y380020D01*
Y381332D01*
X289868Y381988D01*
X287900D01*
X293673Y368053D02*
Y371988D01*
X291705D01*
X291049Y371332D01*
Y370676D01*
Y370020D01*
X291705Y369364D01*
X293673D01*
X289738Y371988D02*
X287770D01*
X287114Y371332D01*
X287770Y370676D01*
X289082D01*
X289738Y370020D01*
X289082Y369364D01*
X287114D01*
X292492Y359364D02*
Y361988D01*
Y360676D01*
X291836Y360020D01*
X291180Y359364D01*
X290524D01*
X288556Y361988D02*
X287245D01*
X287900D01*
Y358052D01*
X288556Y358708D01*
X291836Y348708D02*
Y349364D01*
X292492D01*
X291180D01*
X291836D01*
Y351332D01*
X291180Y351988D01*
X289212D02*
X287900D01*
X288556D01*
Y348053D01*
X289212Y348708D01*
X293673Y329364D02*
Y331988D01*
Y330676D01*
X293017Y330020D01*
X292361Y329364D01*
X291705D01*
X287114Y331988D02*
X289738D01*
X287114Y329364D01*
Y328708D01*
X287770Y328052D01*
X289082D01*
X289738Y328708D01*
X292623Y338708D02*
Y339364D01*
X293280D01*
X291968D01*
X292623D01*
Y341332D01*
X291968Y341988D01*
X287376D02*
X290000D01*
X287376Y339364D01*
Y338708D01*
X288032Y338053D01*
X289344D01*
X290000Y338708D01*
X292230Y308708D02*
Y309364D01*
X292886D01*
X291574D01*
X292230D01*
Y311332D01*
X291574Y311988D01*
X289606Y309364D02*
Y311988D01*
Y310676D01*
X288950Y310020D01*
X288294Y309364D01*
X287638D01*
X292886Y301988D02*
X290918D01*
X290262Y301332D01*
X290918Y300676D01*
X292230D01*
X292886Y300020D01*
X292230Y299364D01*
X290262D01*
X288294Y298708D02*
Y299364D01*
X288950D01*
X287638D01*
X288294D01*
Y301332D01*
X287638Y301988D01*
X217089Y218074D02*
Y224072D01*
X220088D01*
X221088Y223072D01*
Y221073D01*
X220088Y220073D01*
X217089D01*
X219089D02*
X221088Y218074D01*
X227086Y224072D02*
X223087D01*
Y221073D01*
X225087D01*
X223087D01*
Y218074D01*
X233084Y223072D02*
X232084Y224072D01*
X230085D01*
X229085Y223072D01*
Y222072D01*
X230085Y221073D01*
X232084D01*
X233084Y220073D01*
Y219073D01*
X232084Y218074D01*
X230085D01*
X229085Y219073D01*
X239082Y224072D02*
X235083D01*
Y218074D01*
X239082D01*
X235083Y221073D02*
X237083D01*
X241082Y218074D02*
Y224072D01*
X245080Y218074D01*
Y224072D01*
X251078Y223072D02*
X250079Y224072D01*
X248079D01*
X247079Y223072D01*
Y222072D01*
X248079Y221073D01*
X250079D01*
X251078Y220073D01*
Y219073D01*
X250079Y218074D01*
X248079D01*
X247079Y219073D01*
X259076Y224072D02*
Y218074D01*
X262075D01*
X263074Y219073D01*
Y223072D01*
X262075Y224072D01*
X259076D01*
X269072D02*
X265074D01*
Y218074D01*
X269072D01*
X265074Y221073D02*
X267073D01*
X271072Y224072D02*
Y220073D01*
X273071Y218074D01*
X275071Y220073D01*
Y224072D01*
X277070D02*
Y218074D01*
X280069D01*
X281069Y219073D01*
Y220073D01*
X280069Y221073D01*
X277070D01*
X280069D01*
X281069Y222072D01*
Y223072D01*
X280069Y224072D01*
X277070D01*
X286067D02*
X284068D01*
X283068Y223072D01*
Y219073D01*
X284068Y218074D01*
X286067D01*
X287067Y219073D01*
Y223072D01*
X286067Y224072D01*
X289066Y218074D02*
Y222072D01*
X291065Y224072D01*
X293065Y222072D01*
Y218074D01*
Y221073D01*
X289066D01*
X295064Y218074D02*
Y224072D01*
X298063D01*
X299063Y223072D01*
Y221073D01*
X298063Y220073D01*
X295064D01*
X297063D02*
X299063Y218074D01*
X301062Y224072D02*
Y218074D01*
X304061D01*
X305061Y219073D01*
Y223072D01*
X304061Y224072D01*
X301062D01*
X221088Y204765D02*
X220088Y205765D01*
X218089D01*
X217089Y204765D01*
Y203765D01*
X218089Y202765D01*
X220088D01*
X221088Y201766D01*
Y200766D01*
X220088Y199766D01*
X218089D01*
X217089Y200766D01*
X223087Y205765D02*
Y199766D01*
Y202765D01*
X224087Y203765D01*
X226086D01*
X227086Y202765D01*
Y199766D01*
X232084D02*
X230085D01*
X229085Y200766D01*
Y202765D01*
X230085Y203765D01*
X232084D01*
X233084Y202765D01*
Y201766D01*
X229085D01*
X235083Y199766D02*
X237083D01*
X236083D01*
Y205765D01*
X235083D01*
X243081Y199766D02*
X241082D01*
X240082Y200766D01*
Y202765D01*
X241082Y203765D01*
X243081D01*
X244080Y202765D01*
Y201766D01*
X240082D01*
X246080Y199766D02*
X249079D01*
X250079Y200766D01*
X249079Y201766D01*
X247079D01*
X246080Y202765D01*
X247079Y203765D01*
X250079D01*
X253078Y204765D02*
Y203765D01*
X252078D01*
X254077D01*
X253078D01*
Y200766D01*
X254077Y199766D01*
X258076D02*
X260075D01*
X261075Y200766D01*
Y202765D01*
X260075Y203765D01*
X258076D01*
X257076Y202765D01*
Y200766D01*
X258076Y199766D01*
X263074Y203765D02*
X265074Y199766D01*
X267073Y203765D01*
X279069Y199766D02*
X275071D01*
X279069Y203765D01*
Y204765D01*
X278069Y205765D01*
X276070D01*
X275071Y204765D01*
X281068D02*
X282068Y205765D01*
X284068D01*
X285067Y204765D01*
Y200766D01*
X284068Y199766D01*
X282068D01*
X281068Y200766D01*
Y204765D01*
X291065Y199766D02*
X287067D01*
X291065Y203765D01*
Y204765D01*
X290066Y205765D01*
X288066D01*
X287067Y204765D01*
X293065D02*
X294064Y205765D01*
X296064D01*
X297063Y204765D01*
Y200766D01*
X296064Y199766D01*
X294064D01*
X293065Y200766D01*
Y204765D01*
X217089Y208625D02*
Y214623D01*
X220088D01*
X221088Y213623D01*
Y211624D01*
X220088Y210624D01*
X217089D01*
X219089D02*
X221088Y208625D01*
X227086Y214623D02*
X223087D01*
Y208625D01*
X227086D01*
X223087Y211624D02*
X225087D01*
X229085Y214623D02*
Y210624D01*
X231085Y208625D01*
X233084Y210624D01*
Y214623D01*
X241082Y208625D02*
Y212623D01*
X243081Y214623D01*
X245080Y212623D01*
Y208625D01*
Y211624D01*
X241082D01*
X247080Y213623D02*
X248079Y214623D01*
X250079D01*
X251078Y213623D01*
Y209624D01*
X250079Y208625D01*
X248079D01*
X247080Y209624D01*
Y213623D01*
X257076Y208625D02*
X253078D01*
X257076Y212623D01*
Y213623D01*
X256077Y214623D01*
X254077D01*
X253078Y213623D01*
X123884Y377558D02*
X121260D01*
Y373622D01*
X123884D01*
X121260Y375590D02*
X122572D01*
X127819Y376902D02*
X127163Y377558D01*
X125852D01*
X125196Y376902D01*
Y376246D01*
X125852Y375590D01*
X127163D01*
X127819Y374934D01*
Y374278D01*
X127163Y373622D01*
X125852D01*
X125196Y374278D01*
X129131Y373622D02*
Y377558D01*
X131099D01*
X131755Y376902D01*
Y375590D01*
X131099Y374934D01*
X129131D01*
X133067Y376902D02*
X133723Y377558D01*
X135035D01*
X135691Y376902D01*
Y376246D01*
X135035Y375590D01*
X134379D01*
X135035D01*
X135691Y374934D01*
Y374278D01*
X135035Y373622D01*
X133723D01*
X133067Y374278D01*
X139627Y373622D02*
X137003D01*
X139627Y376246D01*
Y376902D01*
X138971Y377558D01*
X137659D01*
X137003Y376902D01*
X140938Y375590D02*
X143562D01*
X144874Y377558D02*
Y373622D01*
X146186Y374934D01*
X147498Y373622D01*
Y377558D01*
X148810Y373622D02*
Y377558D01*
X150778D01*
X151434Y376902D01*
Y375590D01*
X150778Y374934D01*
X148810D01*
X150122D02*
X151434Y373622D01*
X154714Y377558D02*
X153402D01*
X152746Y376902D01*
Y374278D01*
X153402Y373622D01*
X154714D01*
X155370Y374278D01*
Y376902D01*
X154714Y377558D01*
X158649D02*
X157337D01*
X156682Y376902D01*
Y374278D01*
X157337Y373622D01*
X158649D01*
X159305Y374278D01*
Y376902D01*
X158649Y377558D01*
X160617Y373622D02*
Y377558D01*
X161929Y376246D01*
X163241Y377558D01*
Y373622D01*
X164553Y375590D02*
X167177D01*
X168489Y376902D02*
X169145Y377558D01*
X170457D01*
X171113Y376902D01*
Y376246D01*
X170457Y375590D01*
X169801D01*
X170457D01*
X171113Y374934D01*
Y374278D01*
X170457Y373622D01*
X169145D01*
X168489Y374278D01*
X175048Y373622D02*
X172424D01*
X175048Y376246D01*
Y376902D01*
X174392Y377558D01*
X173080D01*
X172424Y376902D01*
X176360Y377558D02*
Y373622D01*
X178328D01*
X178984Y374278D01*
Y376902D01*
X178328Y377558D01*
X176360D01*
X225731Y177398D02*
Y176398D01*
X227730Y174399D01*
X229729Y176398D01*
Y177398D01*
X227730Y174399D02*
Y171400D01*
X231729D02*
X233728D01*
X232729D01*
Y177398D01*
X231729Y176398D01*
D13*
X98667Y118360D02*
X98077D01*
X98667D01*
X108116Y114030D02*
X107526D01*
X108116D01*
X53839Y154921D02*
X53248D01*
X53839D01*
X75098Y138091D02*
X74508D01*
X75098D01*
D14*
X134031Y134153D02*
X133487Y134902D01*
X132607Y134616D01*
Y133691D01*
X133487Y133405D01*
X134031Y134153D01*
D15*
X151675Y28642D02*
D03*
D16*
X440394Y126634D02*
X439606D01*
X440394D01*
X431004Y315059D02*
X430217D01*
X431004D01*
D17*
X451383Y158152D02*
D03*
D18*
X248997Y384603D02*
X249348Y383755D01*
X250197Y383403D01*
X251045Y383755D01*
X251397Y384603D01*
X244797D02*
X248997D01*
X251397D01*
X255597D01*
X244797Y365003D02*
X255597D01*
D19*
X115000Y395965D02*
X150531Y395964D01*
X115000Y370079D02*
Y395965D01*
X186063Y370079D02*
Y395965D01*
X150531Y395964D02*
X186063Y395965D01*
X115000Y295374D02*
Y297638D01*
Y295374D02*
X124153Y295374D01*
X176909D02*
X186063Y295374D01*
Y297638D01*
D20*
X392752Y32563D02*
X394957D01*
X402752D02*
X404957D01*
X392752Y22327D02*
X394957D01*
X402752D02*
X404957D01*
X188707Y32300D02*
X190707D01*
X182661Y32295D02*
X184661D01*
X233252Y312488D02*
X235252D01*
X83744Y204614D02*
X85744D01*
X432394Y384433D02*
Y386433D01*
X92508Y76165D02*
Y78165D01*
X56480Y123634D02*
X58480D01*
X56480Y111823D02*
X58480D01*
X55402Y96539D02*
Y98539D01*
X40169Y15929D02*
Y17929D01*
X287413Y190732D02*
Y192732D01*
X512205Y197146D02*
X515354D01*
Y167618D02*
Y197146D01*
X512008Y167618D02*
X515354D01*
X80512Y187772D02*
Y199583D01*
X68433Y187772D02*
Y199583D01*
X230020Y394D02*
Y3740D01*
Y394D02*
X259547D01*
Y3543D01*
X70518Y99370D02*
Y101732D01*
X72880D01*
X87841D02*
X90203D01*
Y99370D02*
Y101732D01*
Y82047D02*
Y84410D01*
X87841Y82047D02*
X90203D01*
X70518D02*
X72880D01*
X70518D02*
Y84410D01*
X13583Y81732D02*
X18504D01*
X13583Y62047D02*
X18504D01*
X339961Y242913D02*
Y245276D01*
X358858Y242913D02*
Y245276D01*
X464409Y112067D02*
Y125847D01*
X448661Y112067D02*
X464409D01*
X442756Y127815D02*
X505748D01*
Y125847D02*
Y127815D01*
X442756Y125847D02*
Y127815D01*
Y60886D02*
Y62854D01*
Y60886D02*
X505748D01*
Y62854D01*
X435335Y315059D02*
X498327D01*
X435335Y252067D02*
X498327D01*
X466831Y283563D02*
X486516D01*
Y263878D02*
Y283563D01*
X466831Y263878D02*
Y283563D01*
Y263878D02*
X486516D01*
X447933Y255610D02*
X458169D01*
X447933D02*
Y269783D01*
X458169Y255610D02*
Y269783D01*
X447933D02*
X458169D01*
X202197Y130087D02*
X250921D01*
X202197Y77000D02*
Y130087D01*
Y77000D02*
X255283D01*
Y125724D01*
X250921Y130087D02*
X255283Y125724D01*
D21*
X319193Y220177D02*
X327067D01*
X39665Y176870D02*
Y184744D01*
X35728Y180807D02*
X43602D01*
X300098Y370445D02*
X400098D01*
X300098Y270445D02*
X400098D01*
Y312445D02*
Y315445D01*
X300098Y312445D02*
Y315445D01*
X400098Y270445D02*
Y273445D01*
X300098Y270445D02*
Y273445D01*
Y369445D02*
Y370445D01*
X400098Y369445D02*
Y370445D01*
X206693Y165059D02*
X212106D01*
X206693D02*
Y169685D01*
Y179134D02*
Y183760D01*
X212106D01*
X247343D02*
X252756D01*
Y179134D02*
Y183760D01*
Y165059D02*
Y169685D01*
X247343Y165059D02*
X252756D01*
D22*
X256791Y57776D02*
X259154D01*
X256791Y62697D02*
X259154D01*
X196555Y143898D02*
Y146260D01*
X201476Y143898D02*
Y146260D01*
X102264Y365551D02*
Y367913D01*
X107185Y365551D02*
Y367913D01*
X110630Y70374D02*
Y72736D01*
X115551Y70374D02*
Y72736D01*
X119488Y70374D02*
Y72736D01*
X124409Y70374D02*
Y72736D01*
X119390Y57087D02*
Y59449D01*
X124311Y57087D02*
Y59449D01*
X98622Y36909D02*
X100984D01*
X98622Y41831D02*
X100984D01*
X152657Y112697D02*
X155020D01*
X152657Y107776D02*
X155020D01*
X436811Y323721D02*
X439173D01*
X436811Y318799D02*
X439173D01*
X403740Y13976D02*
X406102D01*
X403740Y18898D02*
X406102D01*
X427461Y26772D02*
Y29134D01*
X432382Y26772D02*
Y29134D01*
X159646Y11417D02*
X162008D01*
X159646Y16339D02*
X162008D01*
X412205Y149508D02*
X414567D01*
X412205Y154429D02*
X414567D01*
X81890Y58957D02*
X84252D01*
X81890Y63878D02*
X84252D01*
X73524Y210925D02*
X75886D01*
X73524Y215846D02*
X75886D01*
X33858Y268898D02*
Y274016D01*
Y268898D02*
X46457D01*
X33858Y274016D02*
X46457D01*
Y268898D02*
Y274016D01*
X243012Y140748D02*
Y145866D01*
Y140748D02*
X255610D01*
X243012Y145866D02*
X255610D01*
Y140748D02*
Y145866D01*
X243012Y146653D02*
Y151772D01*
Y146653D02*
X255610D01*
X243012Y151772D02*
X255610D01*
Y146653D02*
Y151772D01*
X33858Y262598D02*
Y267717D01*
Y262598D02*
X46457D01*
X33858Y267717D02*
X46457D01*
Y262598D02*
Y267717D01*
X232086Y158071D02*
Y163189D01*
Y158071D02*
X244685D01*
X232086Y163189D02*
X244685D01*
Y158071D02*
Y163189D01*
X227362Y158071D02*
Y163189D01*
X214764Y163189D02*
X227362D01*
X214764Y158071D02*
X227362D01*
X214764Y158071D02*
Y163189D01*
X157087Y242028D02*
X162205D01*
X157087Y229429D02*
Y242028D01*
X162205Y229429D02*
Y242028D01*
X157087Y229429D02*
X162205D01*
X208071Y138779D02*
X213189D01*
X213189D02*
Y151378D01*
X208071Y138779D02*
Y151378D01*
X208071D02*
X213189D01*
X202953Y138779D02*
X208071D01*
X208071D02*
Y151378D01*
X202953Y138779D02*
Y151378D01*
X202953D02*
X208071D01*
X130709Y229429D02*
X135827D01*
X135827D02*
Y242028D01*
X130709Y229429D02*
Y242028D01*
X130709D02*
X135827D01*
X187992Y121653D02*
X193110D01*
X193110D02*
Y134252D01*
X187992Y121653D02*
Y134252D01*
X187992D02*
X193110D01*
X262992Y137106D02*
X268110D01*
X262992Y124508D02*
Y137106D01*
X268110Y124508D02*
Y137106D01*
X262992Y124508D02*
X268110D01*
X124803Y278150D02*
Y283268D01*
X112205Y283268D02*
X124803D01*
X112205Y278150D02*
X124803D01*
X112205Y278150D02*
Y283268D01*
X175591Y278150D02*
Y283268D01*
Y278150D02*
X188189D01*
X175591Y283268D02*
X188189D01*
Y278150D02*
Y283268D01*
X101378Y345669D02*
X106496D01*
X101378Y333071D02*
Y345669D01*
X106496Y333071D02*
Y345669D01*
X101378Y333071D02*
X106496D01*
X50197Y323425D02*
Y328543D01*
X37598Y328543D02*
X50197D01*
X37598Y323425D02*
X50197D01*
X37598Y323425D02*
Y328543D01*
X50197Y306693D02*
Y311811D01*
X37598Y311811D02*
X50197D01*
X37598Y306693D02*
X50197D01*
X37598Y306693D02*
Y311811D01*
X153740Y115354D02*
Y120472D01*
Y115354D02*
X166339D01*
X153740Y120472D02*
X166339D01*
Y115354D02*
Y120472D01*
X432087Y108661D02*
X437205D01*
X437205D02*
Y121260D01*
X432087Y108661D02*
Y121260D01*
X432087D02*
X437205D01*
X505315Y290158D02*
X510433D01*
X505315Y277559D02*
Y290158D01*
X510433Y277559D02*
Y290158D01*
X505315Y277559D02*
X510433D01*
X410236Y7579D02*
Y12697D01*
X397638Y12697D02*
X410236D01*
X397638Y7579D02*
X410236D01*
X397638Y7579D02*
Y12697D01*
X392520Y20177D02*
X397638D01*
X392520Y7579D02*
Y20177D01*
X397638Y7579D02*
Y20177D01*
X392520Y7579D02*
X397638D01*
X437598Y8661D02*
X442717D01*
X442717D02*
Y21260D01*
X437598Y8661D02*
Y21260D01*
X437598D02*
X442717D01*
X445866Y42126D02*
X450984D01*
X445866Y29528D02*
Y42126D01*
X450984Y29528D02*
Y42126D01*
X445866Y29528D02*
X450984D01*
X163878Y17913D02*
X168996D01*
X168996D02*
Y30512D01*
X163878Y17913D02*
Y30512D01*
X163878D02*
X168996D01*
X419685Y141535D02*
Y146653D01*
X407087Y146653D02*
X419685D01*
X407087Y141535D02*
X419685D01*
X407087Y141535D02*
Y146653D01*
X67815Y81890D02*
Y87008D01*
X55216Y87008D02*
X67815D01*
X55216Y81890D02*
X67815D01*
X55216Y81890D02*
Y87008D01*
X49606Y37205D02*
Y42323D01*
Y37205D02*
X62205D01*
X49606Y42323D02*
X62205D01*
Y37205D02*
Y42323D01*
X256299Y387205D02*
Y392323D01*
X243701Y392323D02*
X256299D01*
X243701Y387205D02*
X256299D01*
X243701Y387205D02*
Y392323D01*
X384154Y255512D02*
X392421D01*
Y259449D01*
X384154Y259449D02*
X392421D01*
X384154Y255512D02*
Y259449D01*
X457677Y234646D02*
Y242913D01*
Y234646D02*
X461614D01*
X461614D02*
Y242913D01*
X457677D02*
X461614D01*
X467126Y206299D02*
Y214567D01*
Y206299D02*
X471063D01*
X471063D02*
Y214567D01*
X467126D02*
X471063D01*
X208563Y382972D02*
X227854D01*
X208563Y388484D02*
X227854D01*
X227854Y382972D02*
Y388484D01*
X208563Y382972D02*
Y388484D01*
Y375098D02*
Y380610D01*
X227854Y375098D02*
Y380610D01*
X208563D02*
X227854D01*
X208563Y375098D02*
X227854D01*
X208563Y367224D02*
X227854D01*
X208563Y372736D02*
X227854D01*
X227854Y367224D02*
Y372736D01*
X208563Y367224D02*
Y372736D01*
X462795Y14173D02*
Y19685D01*
X443504Y14173D02*
Y19685D01*
X443504Y14173D02*
X462795D01*
X443504Y19685D02*
X462795D01*
X451772Y20669D02*
Y39961D01*
X457283Y20669D02*
Y39961D01*
X451772Y20669D02*
X457283D01*
X451772Y39961D02*
X457283D01*
X146457Y92618D02*
X151968D01*
X146457Y73327D02*
X151968D01*
Y73327D02*
Y92618D01*
X146457Y73327D02*
Y92618D01*
X378248Y15453D02*
Y34744D01*
X383760Y15453D02*
Y34744D01*
X378248Y15453D02*
X383760D01*
X378248Y34744D02*
X383760D01*
X384449D02*
X389961D01*
X384449Y15453D02*
X389961D01*
Y15453D02*
Y34744D01*
X384449Y15453D02*
Y34744D01*
X422638Y149213D02*
X441929D01*
X422638Y154724D02*
X441929D01*
X441929Y149213D02*
Y154724D01*
X422638Y149213D02*
Y154724D01*
X143602Y15256D02*
X149114D01*
X143602Y34547D02*
X149114D01*
X143602Y15256D02*
Y34547D01*
X149114Y15256D02*
Y34547D01*
X138976Y98817D02*
X141338D01*
X138976Y103738D02*
X141338D01*
X160039Y131201D02*
X162401D01*
X160039Y136122D02*
X162401D01*
X136122Y112992D02*
X138484D01*
X136122Y108071D02*
X138484D01*
X163091Y146949D02*
Y149311D01*
X168012Y146949D02*
Y149311D01*
X154625Y98817D02*
X156987D01*
X154625Y103738D02*
X156987D01*
X160039Y127461D02*
X162401D01*
X160039Y122539D02*
X162401D01*
X372933Y242618D02*
Y244980D01*
X368012Y242618D02*
Y244980D01*
X193250Y32092D02*
X198762D01*
Y32092D02*
Y44296D01*
X193250Y32092D02*
Y44296D01*
Y44296D02*
X198762D01*
X471063Y48031D02*
Y53543D01*
X471063Y48031D02*
X483268D01*
X471063Y53543D02*
X483268D01*
X483268Y48031D02*
Y53543D01*
X25197Y262402D02*
Y267913D01*
X12992D02*
X25197D01*
X12992Y262402D02*
X25197D01*
X12992D02*
Y267913D01*
X149803Y229626D02*
X155315D01*
Y229626D02*
Y241831D01*
X149803Y229626D02*
Y241831D01*
Y241831D02*
X155315D01*
X183169Y145079D02*
Y150591D01*
X183169Y145079D02*
X195374D01*
X183169Y150591D02*
X195374D01*
X195374Y145079D02*
Y150591D01*
Y139567D02*
Y145079D01*
X183169D02*
X195374D01*
X183169Y139567D02*
X195374D01*
X183169D02*
Y145079D01*
X156693Y259252D02*
X162205D01*
Y259252D02*
Y271457D01*
X156693Y259252D02*
Y271457D01*
Y271457D02*
X162205D01*
X139173Y277953D02*
Y283465D01*
X126969D02*
X139173D01*
X126969Y277953D02*
X139173D01*
X126969D02*
Y283465D01*
X173031Y277953D02*
Y283465D01*
X160827D02*
X173031D01*
X160827Y277953D02*
X173031D01*
X160827D02*
Y283465D01*
X101181Y358858D02*
X106693D01*
X101181Y346654D02*
Y358858D01*
X106693Y346654D02*
Y358858D01*
X101181Y346654D02*
X106693D01*
X138976Y259252D02*
X144488D01*
Y259252D02*
Y271457D01*
X138976Y259252D02*
Y271457D01*
Y271457D02*
X144488D01*
X24409Y320866D02*
Y326378D01*
X24409Y320866D02*
X36614D01*
X24409Y326378D02*
X36614D01*
X36614Y320866D02*
Y326378D01*
X36614Y308858D02*
Y314370D01*
X24409D02*
X36614D01*
X24409Y308858D02*
X36614D01*
X24409D02*
Y314370D01*
X134646Y85532D02*
X140157D01*
X134646Y73327D02*
Y85532D01*
X140157Y73327D02*
Y85532D01*
X134646Y73327D02*
X140157D01*
X138386Y36319D02*
Y41831D01*
X126181D02*
X138386D01*
X126181Y36319D02*
X138386D01*
X126181D02*
Y41831D01*
X140157Y73327D02*
X145669D01*
Y73327D02*
Y85532D01*
X140157Y73327D02*
Y85532D01*
Y85532D02*
X145669D01*
X158465Y62992D02*
Y68504D01*
X146260D02*
X158465D01*
X146260Y62992D02*
X158465D01*
X146260D02*
Y68504D01*
X151969Y73327D02*
X157480D01*
Y73327D02*
Y85532D01*
X151969Y73327D02*
Y85532D01*
Y85532D02*
X157480D01*
X128740Y89567D02*
X134252D01*
X128740Y77362D02*
Y89567D01*
X134252Y77362D02*
Y89567D01*
X128740Y77362D02*
X134252D01*
X146260Y51083D02*
Y56595D01*
X146260Y51083D02*
X158465D01*
X146260Y56595D02*
X158465D01*
X158465Y51083D02*
Y56595D01*
Y56595D02*
Y62106D01*
X146260D02*
X158465D01*
X146260Y56595D02*
X158465D01*
X146260D02*
Y62106D01*
X160630Y61221D02*
X166142D01*
X160630Y49016D02*
Y61221D01*
X166142Y49016D02*
Y61221D01*
X160630Y49016D02*
X166142D01*
X125787Y83268D02*
Y88779D01*
X113583D02*
X125787D01*
X113583Y83268D02*
X125787D01*
X113583D02*
Y88779D01*
X90892Y112947D02*
X96404D01*
Y112947D02*
Y125152D01*
X90892Y112947D02*
Y125152D01*
Y125152D02*
X96404D01*
X82382Y192224D02*
X87894D01*
X82382Y180020D02*
Y192224D01*
X87894Y180020D02*
Y192224D01*
X82382Y180020D02*
X87894D01*
X81890Y218701D02*
X87402D01*
X81890Y206496D02*
Y218701D01*
X87402Y206496D02*
Y218701D01*
X81890Y206496D02*
X87402D01*
X419882Y62126D02*
Y67638D01*
X419882Y62126D02*
X432087D01*
X419882Y67638D02*
X432087D01*
X432087Y62126D02*
Y67638D01*
Y72126D02*
Y77638D01*
X419882D02*
X432087D01*
X419882Y72126D02*
X432087D01*
X419882D02*
Y77638D01*
Y82126D02*
Y87638D01*
X419882Y82126D02*
X432087D01*
X419882Y87638D02*
X432087D01*
X432087Y82126D02*
Y87638D01*
Y92126D02*
Y97638D01*
X419882D02*
X432087D01*
X419882Y92126D02*
X432087D01*
X419882D02*
Y97638D01*
Y102126D02*
Y107638D01*
X419882Y102126D02*
X432087D01*
X419882Y107638D02*
X432087D01*
X432087Y102126D02*
Y107638D01*
X420472Y108858D02*
X425984D01*
Y108858D02*
Y121063D01*
X420472Y108858D02*
Y121063D01*
Y121063D02*
X425984D01*
X465945Y149606D02*
Y155118D01*
X453740D02*
X465945D01*
X453740Y149606D02*
X465945D01*
X453740D02*
Y155118D01*
X496063Y345866D02*
X501575D01*
X496063Y333661D02*
Y345866D01*
X501575Y333661D02*
Y345866D01*
X496063Y333661D02*
X501575D01*
X465945Y144095D02*
Y149606D01*
X453740D02*
X465945D01*
X453740Y144095D02*
X465945D01*
X453740D02*
Y149606D01*
X486063Y345866D02*
X491575D01*
X486063Y333661D02*
Y345866D01*
X491575Y333661D02*
Y345866D01*
X486063Y333661D02*
X491575D01*
X465945Y138583D02*
Y144095D01*
X453740D02*
X465945D01*
X453740Y138583D02*
X465945D01*
X453740D02*
Y144095D01*
X476063Y345866D02*
X481575D01*
X476063Y333661D02*
Y345866D01*
X481575Y333661D02*
Y345866D01*
X476063Y333661D02*
X481575D01*
X466063D02*
X471575D01*
Y333661D02*
Y345866D01*
X466063Y333661D02*
Y345866D01*
Y345866D02*
X471575D01*
X456063D02*
X461575D01*
X456063Y333661D02*
Y345866D01*
X461575Y333661D02*
Y345866D01*
X456063Y333661D02*
X461575D01*
X446063D02*
X451575D01*
Y333661D02*
Y345866D01*
X446063Y333661D02*
Y345866D01*
Y345866D02*
X451575D01*
X436024Y42913D02*
Y48425D01*
X436024Y42913D02*
X448228D01*
X436024Y48425D02*
X448228D01*
X448228Y42913D02*
Y48425D01*
X423425Y39370D02*
Y44882D01*
X423425Y39370D02*
X435630D01*
X423425Y44882D02*
X435630D01*
X435630Y39370D02*
Y44882D01*
X425000Y14567D02*
Y20079D01*
X425000Y14567D02*
X437205D01*
X425000Y20079D02*
X437205D01*
X437205Y14567D02*
Y20079D01*
X434842Y141437D02*
Y146949D01*
X422638D02*
X434842D01*
X422638Y141437D02*
X434842D01*
X422638D02*
Y146949D01*
X174606Y31693D02*
X180118D01*
Y31693D02*
Y43898D01*
X174606Y31693D02*
Y43898D01*
Y43898D02*
X180118D01*
X93110Y74409D02*
Y79921D01*
X93110Y74409D02*
X105315D01*
X93110Y79921D02*
X105315D01*
X105315Y74409D02*
Y79921D01*
X80512Y74114D02*
Y79626D01*
X68307D02*
X80512D01*
X68307Y74114D02*
X80512D01*
X68307D02*
Y79626D01*
X48031Y103740D02*
X53543D01*
Y103740D02*
Y115945D01*
X48031Y103740D02*
Y115945D01*
Y115945D02*
X53543D01*
X48031Y129724D02*
X53543D01*
X48031Y117520D02*
Y129724D01*
X53543Y117520D02*
Y129724D01*
X48031Y117520D02*
X53543D01*
X69291Y51378D02*
X74803D01*
Y51378D02*
Y63583D01*
X69291Y51378D02*
Y63583D01*
Y63583D02*
X74803D01*
X69291Y50197D02*
X74803D01*
X69291Y37992D02*
Y50197D01*
X74803Y37992D02*
Y50197D01*
X69291Y37992D02*
X74803D01*
X115748Y112008D02*
X121260D01*
X115748Y99803D02*
Y112008D01*
X121260Y99803D02*
Y112008D01*
X115748Y99803D02*
X121260D01*
X462598Y30906D02*
X468110D01*
Y30906D02*
Y43110D01*
X462598Y30906D02*
Y43110D01*
Y43110D02*
X468110D01*
X384842Y382677D02*
Y388189D01*
X372638D02*
X384842D01*
X372638Y382677D02*
X384842D01*
X372638D02*
Y388189D01*
X169488Y25591D02*
X175000D01*
X169488Y13386D02*
Y25591D01*
X175000Y13386D02*
Y25591D01*
X169488Y13386D02*
X175000D01*
X48425Y91929D02*
X53937D01*
X48425Y79724D02*
Y91929D01*
X53937Y79724D02*
Y91929D01*
X48425Y79724D02*
X53937D01*
X40551Y38780D02*
X46063D01*
X40551Y26575D02*
Y38780D01*
X46063Y26575D02*
Y38780D01*
X40551Y26575D02*
X46063D01*
X283268Y188976D02*
Y194488D01*
X271063D02*
X283268D01*
X271063Y188976D02*
X283268D01*
X271063D02*
Y194488D01*
X25197Y268701D02*
Y274213D01*
X12992D02*
X25197D01*
X12992Y268701D02*
X25197D01*
X12992D02*
Y274213D01*
X243504Y68110D02*
X247441D01*
X243504Y59842D02*
Y68110D01*
X247441Y59842D02*
Y68110D01*
X247441Y59842D02*
X247441Y59842D01*
X243504Y59842D02*
X247441D01*
X239567D02*
X243504D01*
X243504Y59842D01*
Y68110D01*
X239567Y59842D02*
Y68110D01*
X239567Y68110D02*
X243504D01*
X126181Y231594D02*
X130118D01*
X130118Y231595D02*
Y239862D01*
X126181Y231594D02*
Y239862D01*
X126181Y239862D01*
X130118D01*
X202165Y344980D02*
Y348917D01*
Y344980D02*
X202165Y344980D01*
X210433D01*
X202165Y348917D02*
X210433D01*
X210433Y344980D02*
Y348917D01*
Y352854D01*
X202165Y352854D02*
X210433D01*
X202165Y348917D02*
X210433D01*
X202165Y348917D02*
X202165Y348917D01*
X202165Y348917D02*
Y352854D01*
X461614Y238779D02*
Y242717D01*
X461614Y238779D02*
X469882D01*
X461614Y242717D02*
X469882D01*
X469882Y242717D01*
Y238779D02*
Y242717D01*
X457677Y238779D02*
Y242717D01*
X457677Y242717D02*
X457677Y242717D01*
X449410Y242717D02*
X457677D01*
X449410Y238779D02*
X457677D01*
X449410Y238779D02*
Y242717D01*
X471063Y210433D02*
Y214370D01*
X471063Y210433D02*
X479331D01*
X471063Y214370D02*
X479331D01*
X479331Y214370D01*
Y210433D02*
Y214370D01*
X467126Y210433D02*
Y214370D01*
X467126Y214370D02*
X467126Y214370D01*
X458858Y214370D02*
X467126D01*
X458858Y210433D02*
X467126D01*
X458858Y210433D02*
Y214370D01*
X453445Y181102D02*
Y185039D01*
X453445Y181102D02*
X461713D01*
X453445Y185039D02*
X461713D01*
X461713Y185039D01*
Y181102D02*
Y185039D01*
X461713Y177165D02*
Y181102D01*
X461713Y181102D02*
X461713Y181102D01*
X453445Y181102D02*
X461713D01*
X453445Y177165D02*
X461713D01*
X453445Y177165D02*
Y181102D01*
X384350Y259449D02*
X388287D01*
X388287Y259449D02*
Y267717D01*
X384350Y259449D02*
Y267717D01*
X384350Y267717D01*
X388287D01*
X384350Y255512D02*
X388287D01*
X384350Y255512D02*
X384350Y255512D01*
X384350Y247244D02*
Y255512D01*
X388287Y247244D02*
Y255512D01*
X384350Y247244D02*
X388287D01*
X59593Y86969D02*
Y90906D01*
X59593Y86969D02*
X67861D01*
X59593Y90906D02*
X67861D01*
X67861Y90906D01*
Y86969D02*
Y90906D01*
X67861Y90906D02*
Y94843D01*
X67861Y94843D02*
X67861Y94843D01*
X59593Y94843D02*
X67861D01*
X59593Y90906D02*
X67861D01*
X59593Y90906D02*
Y94843D01*
X81693Y109055D02*
Y112992D01*
X73425Y112992D02*
X81693D01*
X73425Y109055D02*
X81693D01*
X73425Y109055D02*
X73425Y109055D01*
X73425Y109055D02*
Y112992D01*
X68110Y112402D02*
X72047D01*
X68110Y112402D02*
X68110Y112402D01*
X68110Y104134D02*
Y112402D01*
X72047Y104134D02*
Y112402D01*
X68110Y104134D02*
X72047D01*
X154528Y46654D02*
Y50591D01*
X146260Y50591D02*
X154527D01*
X146260Y46654D02*
X154528D01*
X146260Y46654D02*
X146260Y46654D01*
X146260Y46654D02*
Y50591D01*
D23*
X214173Y196814D02*
Y227165D01*
Y196814D02*
X308661D01*
Y227165D01*
X214173D02*
X308661D01*
D24*
X160335Y154331D02*
Y166929D01*
X153642Y173622D02*
X160335Y166929D01*
X153642Y147638D02*
X160335Y154331D01*
X128839Y166929D02*
X135531Y173622D01*
X128839Y154331D02*
X135531Y147638D01*
X128839Y154331D02*
Y166929D01*
D25*
X400982Y220652D02*
X449007D01*
X400982Y157677D02*
X449031D01*
Y190177D02*
Y196727D01*
X401007Y190352D02*
Y196627D01*
D26*
X81502Y117154D02*
D03*
X81496Y128150D02*
D03*
D27*
X142716Y235335D02*
D03*
D28*
X81496Y46849D02*
D03*
D29*
X66705Y103549D02*
D03*
X55710Y103543D02*
D03*
D30*
X334513Y78701D02*
D03*
M02*
