G04*
G04 #@! TF.GenerationSoftware,Altium Limited,Altium Designer,20.0.9 (164)*
G04*
G04 Layer_Color=16711935*
%FSLAX25Y25*%
%MOIN*%
G70*
G01*
G75*
%ADD37R,0.29921X0.09941*%
%ADD38R,0.34934X0.04921*%
%ADD61R,0.02375X0.03950*%
G04:AMPARAMS|DCode=69|XSize=47.37mil|YSize=35.56mil|CornerRadius=6.76mil|HoleSize=0mil|Usage=FLASHONLY|Rotation=270.000|XOffset=0mil|YOffset=0mil|HoleType=Round|Shape=RoundedRectangle|*
%AMROUNDEDRECTD69*
21,1,0.04737,0.02205,0,0,270.0*
21,1,0.03386,0.03556,0,0,270.0*
1,1,0.01351,-0.01102,-0.01693*
1,1,0.01351,-0.01102,0.01693*
1,1,0.01351,0.01102,0.01693*
1,1,0.01351,0.01102,-0.01693*
%
%ADD69ROUNDEDRECTD69*%
G04:AMPARAMS|DCode=70|XSize=31.62mil|YSize=35.56mil|CornerRadius=6.36mil|HoleSize=0mil|Usage=FLASHONLY|Rotation=270.000|XOffset=0mil|YOffset=0mil|HoleType=Round|Shape=RoundedRectangle|*
%AMROUNDEDRECTD70*
21,1,0.03162,0.02284,0,0,270.0*
21,1,0.01890,0.03556,0,0,270.0*
1,1,0.01272,-0.01142,-0.00945*
1,1,0.01272,-0.01142,0.00945*
1,1,0.01272,0.01142,0.00945*
1,1,0.01272,0.01142,-0.00945*
%
%ADD70ROUNDEDRECTD70*%
G04:AMPARAMS|DCode=76|XSize=47.37mil|YSize=47.37mil|CornerRadius=7.94mil|HoleSize=0mil|Usage=FLASHONLY|Rotation=225.000|XOffset=0mil|YOffset=0mil|HoleType=Round|Shape=RoundedRectangle|*
%AMROUNDEDRECTD76*
21,1,0.04737,0.03150,0,0,225.0*
21,1,0.03150,0.04737,0,0,225.0*
1,1,0.01587,-0.02227,0.00000*
1,1,0.01587,0.00000,0.02227*
1,1,0.01587,0.02227,0.00000*
1,1,0.01587,0.00000,-0.02227*
%
%ADD76ROUNDEDRECTD76*%
G04:AMPARAMS|DCode=78|XSize=39.5mil|YSize=43.43mil|CornerRadius=7.15mil|HoleSize=0mil|Usage=FLASHONLY|Rotation=270.000|XOffset=0mil|YOffset=0mil|HoleType=Round|Shape=RoundedRectangle|*
%AMROUNDEDRECTD78*
21,1,0.03950,0.02913,0,0,270.0*
21,1,0.02520,0.04343,0,0,270.0*
1,1,0.01430,-0.01457,-0.01260*
1,1,0.01430,-0.01457,0.01260*
1,1,0.01430,0.01457,0.01260*
1,1,0.01430,0.01457,-0.01260*
%
%ADD78ROUNDEDRECTD78*%
%ADD95R,0.01981X0.01981*%
%ADD97R,0.01981X0.01981*%
G04:AMPARAMS|DCode=110|XSize=43.43mil|YSize=39.5mil|CornerRadius=7.15mil|HoleSize=0mil|Usage=FLASHONLY|Rotation=270.000|XOffset=0mil|YOffset=0mil|HoleType=Round|Shape=RoundedRectangle|*
%AMROUNDEDRECTD110*
21,1,0.04343,0.02520,0,0,270.0*
21,1,0.02913,0.03950,0,0,270.0*
1,1,0.01430,-0.01260,-0.01457*
1,1,0.01430,-0.01260,0.01457*
1,1,0.01430,0.01260,0.01457*
1,1,0.01430,0.01260,-0.01457*
%
%ADD110ROUNDEDRECTD110*%
G04:AMPARAMS|DCode=114|XSize=60.76mil|YSize=126.9mil|CornerRadius=9.28mil|HoleSize=0mil|Usage=FLASHONLY|Rotation=270.000|XOffset=0mil|YOffset=0mil|HoleType=Round|Shape=RoundedRectangle|*
%AMROUNDEDRECTD114*
21,1,0.06076,0.10835,0,0,270.0*
21,1,0.04221,0.12690,0,0,270.0*
1,1,0.01855,-0.05417,-0.02110*
1,1,0.01855,-0.05417,0.02110*
1,1,0.01855,0.05417,0.02110*
1,1,0.01855,0.05417,-0.02110*
%
%ADD114ROUNDEDRECTD114*%
G04:AMPARAMS|DCode=115|XSize=63.12mil|YSize=47.37mil|CornerRadius=7.94mil|HoleSize=0mil|Usage=FLASHONLY|Rotation=270.000|XOffset=0mil|YOffset=0mil|HoleType=Round|Shape=RoundedRectangle|*
%AMROUNDEDRECTD115*
21,1,0.06312,0.03150,0,0,270.0*
21,1,0.04724,0.04737,0,0,270.0*
1,1,0.01587,-0.01575,-0.02362*
1,1,0.01587,-0.01575,0.02362*
1,1,0.01587,0.01575,0.02362*
1,1,0.01587,0.01575,-0.02362*
%
%ADD115ROUNDEDRECTD115*%
G04:AMPARAMS|DCode=116|XSize=63.12mil|YSize=47.37mil|CornerRadius=7.94mil|HoleSize=0mil|Usage=FLASHONLY|Rotation=180.000|XOffset=0mil|YOffset=0mil|HoleType=Round|Shape=RoundedRectangle|*
%AMROUNDEDRECTD116*
21,1,0.06312,0.03150,0,0,180.0*
21,1,0.04724,0.04737,0,0,180.0*
1,1,0.01587,-0.02362,0.01575*
1,1,0.01587,0.02362,0.01575*
1,1,0.01587,0.02362,-0.01575*
1,1,0.01587,-0.02362,-0.01575*
%
%ADD116ROUNDEDRECTD116*%
G04:AMPARAMS|DCode=117|XSize=39.5mil|YSize=43.43mil|CornerRadius=7.15mil|HoleSize=0mil|Usage=FLASHONLY|Rotation=0.000|XOffset=0mil|YOffset=0mil|HoleType=Round|Shape=RoundedRectangle|*
%AMROUNDEDRECTD117*
21,1,0.03950,0.02913,0,0,0.0*
21,1,0.02520,0.04343,0,0,0.0*
1,1,0.01430,0.01260,-0.01457*
1,1,0.01430,-0.01260,-0.01457*
1,1,0.01430,-0.01260,0.01457*
1,1,0.01430,0.01260,0.01457*
%
%ADD117ROUNDEDRECTD117*%
G04:AMPARAMS|DCode=118|XSize=27.69mil|YSize=31.62mil|CornerRadius=5.97mil|HoleSize=0mil|Usage=FLASHONLY|Rotation=90.000|XOffset=0mil|YOffset=0mil|HoleType=Round|Shape=RoundedRectangle|*
%AMROUNDEDRECTD118*
21,1,0.02769,0.01968,0,0,90.0*
21,1,0.01575,0.03162,0,0,90.0*
1,1,0.01194,0.00984,0.00787*
1,1,0.01194,0.00984,-0.00787*
1,1,0.01194,-0.00984,-0.00787*
1,1,0.01194,-0.00984,0.00787*
%
%ADD118ROUNDEDRECTD118*%
%ADD137C,0.03150*%
%ADD138O,0.04737X0.07099*%
%ADD139O,0.04737X0.09068*%
%ADD140C,0.08674*%
%ADD141C,0.06800*%
%ADD142C,0.14580*%
%ADD143C,0.17024*%
%ADD144C,0.09937*%
%ADD145C,0.18598*%
%ADD146C,0.05906*%
%ADD147C,0.05512*%
%ADD148C,0.05524*%
%ADD149C,0.04934*%
%ADD150C,0.04343*%
%ADD151C,0.03556*%
%ADD152O,0.08674X0.07887*%
%ADD153C,0.18517*%
%ADD154R,0.09461X0.09461*%
%ADD155C,0.09461*%
%ADD156C,0.02769*%
%ADD157R,0.08674X0.04737*%
%ADD158C,0.06312*%
%ADD303R,0.09843X0.10236*%
%ADD304R,0.19980X0.19980*%
%ADD305R,0.11811X0.11811*%
%ADD306R,0.06791X0.07972*%
%ADD307R,0.09153X0.08071*%
%ADD308R,0.13386X0.11417*%
%ADD309R,0.12598X0.12598*%
%ADD310R,0.03950X0.02375*%
G04:AMPARAMS|DCode=311|XSize=31.62mil|YSize=35.56mil|CornerRadius=6.36mil|HoleSize=0mil|Usage=FLASHONLY|Rotation=180.000|XOffset=0mil|YOffset=0mil|HoleType=Round|Shape=RoundedRectangle|*
%AMROUNDEDRECTD311*
21,1,0.03162,0.02284,0,0,180.0*
21,1,0.01890,0.03556,0,0,180.0*
1,1,0.01272,-0.00945,0.01142*
1,1,0.01272,0.00945,0.01142*
1,1,0.01272,0.00945,-0.01142*
1,1,0.01272,-0.00945,-0.01142*
%
%ADD311ROUNDEDRECTD311*%
G04:AMPARAMS|DCode=312|XSize=47.37mil|YSize=35.56mil|CornerRadius=6.76mil|HoleSize=0mil|Usage=FLASHONLY|Rotation=180.000|XOffset=0mil|YOffset=0mil|HoleType=Round|Shape=RoundedRectangle|*
%AMROUNDEDRECTD312*
21,1,0.04737,0.02205,0,0,180.0*
21,1,0.03386,0.03556,0,0,180.0*
1,1,0.01351,-0.01693,0.01102*
1,1,0.01351,0.01693,0.01102*
1,1,0.01351,0.01693,-0.01102*
1,1,0.01351,-0.01693,-0.01102*
%
%ADD312ROUNDEDRECTD312*%
G04:AMPARAMS|DCode=313|XSize=145.8mil|YSize=322.96mil|CornerRadius=72.9mil|HoleSize=0mil|Usage=FLASHONLY|Rotation=270.000|XOffset=0mil|YOffset=0mil|HoleType=Round|Shape=RoundedRectangle|*
%AMROUNDEDRECTD313*
21,1,0.14580,0.17717,0,0,270.0*
21,1,0.00000,0.32296,0,0,270.0*
1,1,0.14580,-0.08858,0.00000*
1,1,0.14580,-0.08858,0.00000*
1,1,0.14580,0.08858,0.00000*
1,1,0.14580,0.08858,0.00000*
%
%ADD313ROUNDEDRECTD313*%
%ADD314R,0.24422X0.32296*%
G04:AMPARAMS|DCode=315|XSize=63.12mil|YSize=47.37mil|CornerRadius=7.94mil|HoleSize=0mil|Usage=FLASHONLY|Rotation=135.000|XOffset=0mil|YOffset=0mil|HoleType=Round|Shape=RoundedRectangle|*
%AMROUNDEDRECTD315*
21,1,0.06312,0.03150,0,0,135.0*
21,1,0.04724,0.04737,0,0,135.0*
1,1,0.01587,-0.00557,0.02784*
1,1,0.01587,0.02784,-0.00557*
1,1,0.01587,0.00557,-0.02784*
1,1,0.01587,-0.02784,0.00557*
%
%ADD315ROUNDEDRECTD315*%
G04:AMPARAMS|DCode=316|XSize=39.5mil|YSize=43.43mil|CornerRadius=7.15mil|HoleSize=0mil|Usage=FLASHONLY|Rotation=135.000|XOffset=0mil|YOffset=0mil|HoleType=Round|Shape=RoundedRectangle|*
%AMROUNDEDRECTD316*
21,1,0.03950,0.02913,0,0,135.0*
21,1,0.02520,0.04343,0,0,135.0*
1,1,0.01430,0.00139,0.01921*
1,1,0.01430,0.01921,0.00139*
1,1,0.01430,-0.00139,-0.01921*
1,1,0.01430,-0.01921,-0.00139*
%
%ADD316ROUNDEDRECTD316*%
G04:AMPARAMS|DCode=317|XSize=165.48mil|YSize=94.61mil|CornerRadius=12.66mil|HoleSize=0mil|Usage=FLASHONLY|Rotation=180.000|XOffset=0mil|YOffset=0mil|HoleType=Round|Shape=RoundedRectangle|*
%AMROUNDEDRECTD317*
21,1,0.16548,0.06929,0,0,180.0*
21,1,0.14016,0.09461,0,0,180.0*
1,1,0.02532,-0.07008,0.03465*
1,1,0.02532,0.07008,0.03465*
1,1,0.02532,0.07008,-0.03465*
1,1,0.02532,-0.07008,-0.03465*
%
%ADD317ROUNDEDRECTD317*%
G04:AMPARAMS|DCode=318|XSize=78.87mil|YSize=63.12mil|CornerRadius=9.51mil|HoleSize=0mil|Usage=FLASHONLY|Rotation=90.000|XOffset=0mil|YOffset=0mil|HoleType=Round|Shape=RoundedRectangle|*
%AMROUNDEDRECTD318*
21,1,0.07887,0.04409,0,0,90.0*
21,1,0.05984,0.06312,0,0,90.0*
1,1,0.01902,0.02205,0.02992*
1,1,0.01902,0.02205,-0.02992*
1,1,0.01902,-0.02205,-0.02992*
1,1,0.01902,-0.02205,0.02992*
%
%ADD318ROUNDEDRECTD318*%
G04:AMPARAMS|DCode=319|XSize=145.8mil|YSize=70.99mil|CornerRadius=10.3mil|HoleSize=0mil|Usage=FLASHONLY|Rotation=0.000|XOffset=0mil|YOffset=0mil|HoleType=Round|Shape=RoundedRectangle|*
%AMROUNDEDRECTD319*
21,1,0.14580,0.05039,0,0,0.0*
21,1,0.12520,0.07099,0,0,0.0*
1,1,0.02060,0.06260,-0.02520*
1,1,0.02060,-0.06260,-0.02520*
1,1,0.02060,-0.06260,0.02520*
1,1,0.02060,0.06260,0.02520*
%
%ADD319ROUNDEDRECTD319*%
%ADD320R,0.10249X0.09461*%
G36*
X272244Y358476D02*
X268307D01*
Y362413D01*
X272244D01*
Y358476D01*
D02*
G37*
G36*
X172638Y349705D02*
X168701D01*
Y353642D01*
X172638D01*
Y349705D01*
D02*
G37*
G36*
X272244Y348476D02*
X268307D01*
Y352413D01*
X272244D01*
Y348476D01*
D02*
G37*
G36*
X172638Y344193D02*
X168701D01*
Y348130D01*
X172638D01*
Y344193D01*
D02*
G37*
G36*
X94882Y340551D02*
X90945D01*
Y344488D01*
X94882D01*
Y340551D01*
D02*
G37*
G36*
X272244Y338476D02*
X268307D01*
Y342413D01*
X272244D01*
Y338476D01*
D02*
G37*
G36*
X107951Y349111D02*
X108028Y349100D01*
X108103Y349081D01*
X108176Y349055D01*
X108246Y349022D01*
X108312Y348982D01*
X108374Y348936D01*
X108431Y348884D01*
X108483Y348827D01*
X108529Y348765D01*
X108569Y348698D01*
X108602Y348628D01*
X108628Y348556D01*
X108647Y348481D01*
X108659Y348404D01*
X108662Y348327D01*
Y343209D01*
X108661Y343189D01*
Y341656D01*
X108662Y341634D01*
Y341634D01*
Y341634D01*
X108663Y338091D01*
D01*
D01*
Y338091D01*
X108661Y338067D01*
Y336535D01*
X108662Y336516D01*
Y334941D01*
X108659Y334864D01*
X108647Y334787D01*
X108628Y334712D01*
X108602Y334639D01*
X108569Y334569D01*
X108529Y334503D01*
X108483Y334441D01*
X108431Y334384D01*
X108374Y334331D01*
X108312Y334285D01*
X108246Y334246D01*
X108176Y334213D01*
X108103Y334187D01*
X108028Y334168D01*
X107951Y334156D01*
X107874Y334153D01*
X101575D01*
X101497Y334156D01*
X101421Y334168D01*
X101346Y334187D01*
X101273Y334213D01*
X101203Y334246D01*
X101137Y334285D01*
X101075Y334331D01*
X101017Y334384D01*
X100965Y334441D01*
X100919Y334503D01*
X100880Y334569D01*
X100847Y334639D01*
X100820Y334712D01*
X100802Y334787D01*
X100790Y334864D01*
X100786Y334941D01*
Y336516D01*
X100787Y336535D01*
Y338078D01*
X100787Y338091D01*
Y338091D01*
Y338091D01*
X100787Y341634D01*
X100787Y341642D01*
Y343189D01*
X100786Y343209D01*
Y348327D01*
X100790Y348404D01*
X100802Y348481D01*
X100820Y348556D01*
X100847Y348628D01*
X100880Y348698D01*
X100919Y348765D01*
X100965Y348827D01*
X101017Y348884D01*
X101075Y348936D01*
X101137Y348982D01*
X101203Y349022D01*
X101273Y349055D01*
X101346Y349081D01*
X101421Y349100D01*
X101497Y349111D01*
X101575Y349115D01*
X107874D01*
X107951Y349111D01*
D02*
G37*
G36*
X272244Y328445D02*
X268307D01*
Y332382D01*
X272244D01*
Y328445D01*
D02*
G37*
G36*
X391142Y327362D02*
X387205D01*
Y331299D01*
X391142D01*
Y327362D01*
D02*
G37*
G36*
X59449Y325197D02*
X55512D01*
Y329134D01*
X59449D01*
Y325197D01*
D02*
G37*
G36*
X412205Y223622D02*
X408268D01*
Y227559D01*
X412205D01*
Y223622D01*
D02*
G37*
G36*
X417126Y209842D02*
X413189D01*
Y213779D01*
X417126D01*
Y209842D01*
D02*
G37*
G36*
X387085Y194092D02*
X387162Y194080D01*
X387237Y194062D01*
X387310Y194035D01*
X387380Y194002D01*
X387446Y193963D01*
X387508Y193916D01*
X387565Y193865D01*
X387617Y193807D01*
X387663Y193745D01*
X387703Y193679D01*
X387736Y193609D01*
X387762Y193536D01*
X387781Y193461D01*
X387792Y193384D01*
X387796Y193307D01*
Y191732D01*
X387795Y191713D01*
Y190170D01*
X387796Y190157D01*
Y190157D01*
Y190157D01*
X387796Y186614D01*
X387795Y186606D01*
Y185059D01*
X387796Y185039D01*
Y179921D01*
X387792Y179844D01*
X387781Y179768D01*
X387762Y179692D01*
X387736Y179620D01*
X387703Y179550D01*
X387663Y179483D01*
X387617Y179421D01*
X387565Y179364D01*
X387508Y179312D01*
X387446Y179266D01*
X387380Y179226D01*
X387310Y179193D01*
X387237Y179167D01*
X387162Y179148D01*
X387085Y179137D01*
X387008Y179133D01*
X380709D01*
X380631Y179137D01*
X380555Y179148D01*
X380480Y179167D01*
X380407Y179193D01*
X380337Y179226D01*
X380271Y179266D01*
X380208Y179312D01*
X380151Y179364D01*
X380099Y179421D01*
X380053Y179483D01*
X380013Y179550D01*
X379980Y179620D01*
X379954Y179692D01*
X379936Y179768D01*
X379924Y179844D01*
X379920Y179921D01*
Y185039D01*
X379921Y185059D01*
Y186592D01*
X379920Y186614D01*
Y186614D01*
Y186614D01*
X379920Y190157D01*
D01*
D01*
Y190157D01*
X379921Y190181D01*
Y191713D01*
X379920Y191732D01*
Y193307D01*
X379924Y193384D01*
X379936Y193461D01*
X379954Y193536D01*
X379980Y193609D01*
X380013Y193679D01*
X380053Y193745D01*
X380099Y193807D01*
X380151Y193865D01*
X380208Y193916D01*
X380271Y193963D01*
X380337Y194002D01*
X380407Y194035D01*
X380480Y194062D01*
X380555Y194080D01*
X380631Y194092D01*
X380709Y194095D01*
X387008D01*
X387085Y194092D01*
D02*
G37*
G36*
X419762Y194092D02*
X419839Y194080D01*
X419914Y194062D01*
X419987Y194035D01*
X420057Y194002D01*
X420123Y193963D01*
X420185Y193916D01*
X420243Y193865D01*
X420294Y193807D01*
X420340Y193745D01*
X420380Y193679D01*
X420413Y193609D01*
X420439Y193536D01*
X420458Y193461D01*
X420470Y193384D01*
X420473Y193307D01*
Y191732D01*
X420472Y191713D01*
Y190170D01*
X420473Y190157D01*
Y190157D01*
Y190157D01*
X420473Y186614D01*
X420472Y186606D01*
Y185059D01*
X420473Y185039D01*
Y179921D01*
X420470Y179844D01*
X420458Y179768D01*
X420439Y179692D01*
X420413Y179620D01*
X420380Y179550D01*
X420340Y179483D01*
X420294Y179421D01*
X420243Y179364D01*
X420185Y179312D01*
X420123Y179266D01*
X420057Y179226D01*
X419987Y179193D01*
X419914Y179167D01*
X419839Y179148D01*
X419762Y179137D01*
X419685Y179133D01*
X413386D01*
X413309Y179137D01*
X413232Y179148D01*
X413157Y179167D01*
X413084Y179193D01*
X413014Y179226D01*
X412948Y179266D01*
X412886Y179312D01*
X412828Y179364D01*
X412776Y179421D01*
X412730Y179483D01*
X412691Y179550D01*
X412657Y179620D01*
X412631Y179692D01*
X412613Y179768D01*
X412601Y179844D01*
X412598Y179921D01*
Y185039D01*
X412598Y185059D01*
Y186592D01*
X412597Y186614D01*
Y186614D01*
Y186614D01*
X412597Y190157D01*
D01*
D01*
Y190157D01*
X412598Y190181D01*
Y191713D01*
X412598Y191732D01*
Y193307D01*
X412601Y193384D01*
X412613Y193461D01*
X412631Y193536D01*
X412657Y193609D01*
X412691Y193679D01*
X412730Y193745D01*
X412776Y193807D01*
X412828Y193865D01*
X412886Y193916D01*
X412948Y193963D01*
X413014Y194002D01*
X413084Y194035D01*
X413157Y194062D01*
X413232Y194080D01*
X413309Y194092D01*
X413386Y194095D01*
X419685D01*
X419762Y194092D01*
D02*
G37*
G36*
X394291Y163976D02*
X390354D01*
Y167913D01*
X394291D01*
Y163976D01*
D02*
G37*
G36*
X387085Y177261D02*
X387162Y177250D01*
X387237Y177231D01*
X387310Y177205D01*
X387380Y177172D01*
X387446Y177132D01*
X387508Y177086D01*
X387565Y177034D01*
X387617Y176977D01*
X387663Y176914D01*
X387703Y176848D01*
X387736Y176778D01*
X387762Y176705D01*
X387781Y176630D01*
X387792Y176554D01*
X387796Y176476D01*
Y174902D01*
X387795Y174882D01*
Y173339D01*
X387796Y173327D01*
Y173326D01*
Y173326D01*
X387796Y169783D01*
X387795Y169775D01*
Y168228D01*
X387796Y168209D01*
Y163091D01*
X387792Y163013D01*
X387781Y162937D01*
X387762Y162862D01*
X387736Y162789D01*
X387703Y162719D01*
X387663Y162653D01*
X387617Y162590D01*
X387565Y162533D01*
X387508Y162481D01*
X387446Y162435D01*
X387380Y162395D01*
X387310Y162362D01*
X387237Y162336D01*
X387162Y162317D01*
X387085Y162306D01*
X387008Y162302D01*
X380709D01*
X380631Y162306D01*
X380555Y162317D01*
X380480Y162336D01*
X380407Y162362D01*
X380337Y162395D01*
X380271Y162435D01*
X380208Y162481D01*
X380151Y162533D01*
X380099Y162590D01*
X380053Y162653D01*
X380013Y162719D01*
X379980Y162789D01*
X379954Y162862D01*
X379936Y162937D01*
X379924Y163013D01*
X379920Y163091D01*
Y168209D01*
X379921Y168228D01*
Y169762D01*
X379920Y169783D01*
Y169783D01*
Y169783D01*
X379920Y173326D01*
D01*
D01*
Y173326D01*
X379921Y173350D01*
Y174882D01*
X379920Y174902D01*
Y176476D01*
X379924Y176554D01*
X379936Y176630D01*
X379954Y176705D01*
X379980Y176778D01*
X380013Y176848D01*
X380053Y176914D01*
X380099Y176977D01*
X380151Y177034D01*
X380208Y177086D01*
X380271Y177132D01*
X380337Y177172D01*
X380407Y177205D01*
X380480Y177231D01*
X380555Y177250D01*
X380631Y177261D01*
X380709Y177265D01*
X387008D01*
X387085Y177261D01*
D02*
G37*
G36*
X419762Y177261D02*
X419839Y177250D01*
X419914Y177231D01*
X419987Y177205D01*
X420057Y177172D01*
X420123Y177132D01*
X420185Y177086D01*
X420243Y177034D01*
X420294Y176977D01*
X420340Y176914D01*
X420380Y176848D01*
X420413Y176778D01*
X420439Y176705D01*
X420458Y176630D01*
X420470Y176554D01*
X420473Y176476D01*
Y174902D01*
X420472Y174882D01*
Y173339D01*
X420473Y173327D01*
Y173326D01*
Y173326D01*
X420473Y169783D01*
X420472Y169775D01*
Y168228D01*
X420473Y168209D01*
Y163091D01*
X420470Y163013D01*
X420458Y162937D01*
X420439Y162862D01*
X420413Y162789D01*
X420380Y162719D01*
X420340Y162653D01*
X420294Y162590D01*
X420243Y162533D01*
X420185Y162481D01*
X420123Y162435D01*
X420057Y162395D01*
X419987Y162362D01*
X419914Y162336D01*
X419839Y162317D01*
X419762Y162306D01*
X419685Y162302D01*
X413386D01*
X413309Y162306D01*
X413232Y162317D01*
X413157Y162336D01*
X413084Y162362D01*
X413014Y162395D01*
X412948Y162435D01*
X412886Y162481D01*
X412828Y162533D01*
X412776Y162590D01*
X412730Y162653D01*
X412691Y162719D01*
X412657Y162789D01*
X412631Y162862D01*
X412613Y162937D01*
X412601Y163013D01*
X412598Y163091D01*
Y168209D01*
X412598Y168228D01*
Y169762D01*
X412597Y169783D01*
Y169783D01*
Y169783D01*
X412597Y173326D01*
D01*
D01*
Y173326D01*
X412598Y173350D01*
Y174882D01*
X412598Y174902D01*
Y176476D01*
X412601Y176554D01*
X412613Y176630D01*
X412631Y176705D01*
X412657Y176778D01*
X412691Y176848D01*
X412730Y176914D01*
X412776Y176977D01*
X412828Y177034D01*
X412886Y177086D01*
X412948Y177132D01*
X413014Y177172D01*
X413084Y177205D01*
X413157Y177231D01*
X413232Y177250D01*
X413309Y177261D01*
X413386Y177265D01*
X419685D01*
X419762Y177261D01*
D02*
G37*
G36*
X80709Y144488D02*
Y138386D01*
X77559Y135236D01*
X72146D01*
X69980Y137402D01*
Y146063D01*
X79134D01*
X80709Y144488D01*
D02*
G37*
G36*
X68701Y150591D02*
Y137500D01*
X66437Y135236D01*
X42421D01*
X38878Y138779D01*
Y147047D01*
X40650Y148819D01*
X55413D01*
X59350Y152756D01*
X66535D01*
X68701Y150591D01*
D02*
G37*
G36*
X113083Y136524D02*
Y126485D01*
X111016Y124418D01*
X106102Y124418D01*
X102650D01*
X97736Y124418D01*
X95669Y126485D01*
Y136524D01*
X97342Y138197D01*
X111410D01*
X113083Y136524D01*
D02*
G37*
G36*
X148721Y118602D02*
X137402D01*
Y130020D01*
X148721D01*
Y118602D01*
D02*
G37*
G36*
X108457Y107972D02*
X110524Y105905D01*
Y95866D01*
X108851Y94193D01*
X94784D01*
X93110Y95866D01*
Y105905D01*
X95177Y107972D01*
X100091Y107972D01*
X103543D01*
X108457Y107972D01*
D02*
G37*
G36*
X451357Y41926D02*
X451433Y41915D01*
X451508Y41896D01*
X451581Y41870D01*
X451651Y41837D01*
X451718Y41797D01*
X451780Y41751D01*
X451837Y41699D01*
X451889Y41642D01*
X451935Y41580D01*
X451975Y41513D01*
X452008Y41443D01*
X452034Y41371D01*
X452053Y41295D01*
X452064Y41219D01*
X452068Y41142D01*
Y34843D01*
X452064Y34765D01*
X452053Y34689D01*
X452034Y34614D01*
X452008Y34541D01*
X451975Y34471D01*
X451935Y34405D01*
X451889Y34342D01*
X451837Y34285D01*
X451780Y34233D01*
X451718Y34187D01*
X451651Y34147D01*
X451581Y34114D01*
X451508Y34088D01*
X451433Y34069D01*
X451357Y34058D01*
X451279Y34054D01*
X446161D01*
X446142Y34055D01*
X444608D01*
X444587Y34054D01*
X444587D01*
X444587D01*
X441044Y34054D01*
D01*
D01*
X441044D01*
X441020Y34055D01*
X439488D01*
X439468Y34054D01*
X437894D01*
X437816Y34058D01*
X437740Y34069D01*
X437665Y34088D01*
X437592Y34114D01*
X437522Y34147D01*
X437456Y34187D01*
X437394Y34233D01*
X437336Y34285D01*
X437284Y34342D01*
X437238Y34405D01*
X437198Y34471D01*
X437165Y34541D01*
X437139Y34614D01*
X437120Y34689D01*
X437109Y34765D01*
X437105Y34843D01*
Y41142D01*
X437109Y41219D01*
X437120Y41295D01*
X437139Y41371D01*
X437165Y41443D01*
X437198Y41513D01*
X437238Y41580D01*
X437284Y41642D01*
X437336Y41699D01*
X437394Y41751D01*
X437456Y41797D01*
X437522Y41837D01*
X437592Y41870D01*
X437665Y41896D01*
X437740Y41915D01*
X437816Y41926D01*
X437894Y41930D01*
X439468D01*
X439488Y41929D01*
X441031D01*
X441044Y41930D01*
X441044D01*
X441044D01*
X444587Y41930D01*
X444595Y41929D01*
X446142D01*
X446161Y41930D01*
X451279D01*
X451357Y41926D01*
D02*
G37*
G36*
X433443Y38285D02*
X433520Y38273D01*
X433595Y38254D01*
X433668Y38228D01*
X433738Y38195D01*
X433804Y38155D01*
X433866Y38109D01*
X433923Y38057D01*
X433976Y38000D01*
X434022Y37938D01*
X434061Y37872D01*
X434094Y37802D01*
X434121Y37729D01*
X434139Y37654D01*
X434151Y37577D01*
X434154Y37500D01*
Y35925D01*
X434154Y35906D01*
Y34363D01*
X434154Y34350D01*
Y34350D01*
Y34350D01*
X434154Y30806D01*
X434154Y30799D01*
Y29252D01*
X434154Y29232D01*
Y24114D01*
X434151Y24037D01*
X434139Y23960D01*
X434121Y23885D01*
X434094Y23812D01*
X434061Y23742D01*
X434022Y23676D01*
X433976Y23614D01*
X433923Y23557D01*
X433866Y23505D01*
X433804Y23459D01*
X433738Y23419D01*
X433668Y23386D01*
X433595Y23360D01*
X433520Y23341D01*
X433443Y23330D01*
X433366Y23326D01*
X427067D01*
X426990Y23330D01*
X426913Y23341D01*
X426838Y23360D01*
X426765Y23386D01*
X426695Y23419D01*
X426629Y23459D01*
X426567Y23505D01*
X426509Y23557D01*
X426458Y23614D01*
X426411Y23676D01*
X426372Y23742D01*
X426338Y23812D01*
X426312Y23885D01*
X426294Y23960D01*
X426282Y24037D01*
X426278Y24114D01*
Y29232D01*
X426279Y29252D01*
Y30785D01*
X426278Y30807D01*
Y30807D01*
Y30807D01*
X426278Y34350D01*
D01*
D01*
Y34350D01*
X426279Y34374D01*
Y35906D01*
X426278Y35925D01*
Y37500D01*
X426282Y37577D01*
X426294Y37654D01*
X426312Y37729D01*
X426338Y37802D01*
X426372Y37872D01*
X426411Y37938D01*
X426458Y38000D01*
X426509Y38057D01*
X426567Y38109D01*
X426629Y38155D01*
X426695Y38195D01*
X426765Y38228D01*
X426838Y38254D01*
X426913Y38273D01*
X426990Y38285D01*
X427067Y38288D01*
X433366D01*
X433443Y38285D01*
D02*
G37*
G36*
X414939Y35332D02*
X415016Y35320D01*
X415091Y35302D01*
X415164Y35276D01*
X415234Y35243D01*
X415300Y35203D01*
X415362Y35157D01*
X415420Y35105D01*
X415472Y35047D01*
X415518Y34985D01*
X415557Y34919D01*
X415590Y34849D01*
X415617Y34776D01*
X415635Y34701D01*
X415647Y34624D01*
X415651Y34547D01*
Y32972D01*
X415650Y32953D01*
Y31410D01*
X415650Y31397D01*
Y31397D01*
Y31397D01*
X415650Y27854D01*
X415650Y27846D01*
Y26299D01*
X415651Y26280D01*
Y21161D01*
X415647Y21084D01*
X415635Y21008D01*
X415617Y20933D01*
X415590Y20860D01*
X415557Y20790D01*
X415518Y20723D01*
X415472Y20661D01*
X415420Y20604D01*
X415362Y20552D01*
X415300Y20506D01*
X415234Y20466D01*
X415164Y20433D01*
X415091Y20407D01*
X415016Y20388D01*
X414939Y20377D01*
X414862Y20373D01*
X408563D01*
X408486Y20377D01*
X408409Y20388D01*
X408334Y20407D01*
X408261Y20433D01*
X408191Y20466D01*
X408125Y20506D01*
X408063Y20552D01*
X408006Y20604D01*
X407954Y20661D01*
X407907Y20723D01*
X407868Y20790D01*
X407835Y20860D01*
X407809Y20933D01*
X407790Y21008D01*
X407778Y21084D01*
X407775Y21161D01*
Y26280D01*
X407776Y26299D01*
Y27832D01*
X407774Y27854D01*
Y27854D01*
Y27854D01*
X407774Y31397D01*
D01*
D01*
Y31397D01*
X407776Y31421D01*
Y32953D01*
X407775Y32972D01*
Y34547D01*
X407778Y34624D01*
X407790Y34701D01*
X407809Y34776D01*
X407835Y34849D01*
X407868Y34919D01*
X407907Y34985D01*
X407954Y35047D01*
X408006Y35105D01*
X408063Y35157D01*
X408125Y35203D01*
X408191Y35243D01*
X408261Y35276D01*
X408334Y35302D01*
X408409Y35320D01*
X408486Y35332D01*
X408563Y35336D01*
X414862D01*
X414939Y35332D01*
D02*
G37*
D37*
X310748Y11613D02*
D03*
D38*
X310750Y11610D02*
D03*
D61*
X168209Y346161D02*
D03*
X173130D02*
D03*
X168209Y351673D02*
D03*
X173130D02*
D03*
X55020Y327165D02*
D03*
X59941D02*
D03*
X417618Y211811D02*
D03*
X412697D02*
D03*
X267815Y330413D02*
D03*
X272736D02*
D03*
X267815Y340445D02*
D03*
X272736D02*
D03*
X267815Y350445D02*
D03*
X272736D02*
D03*
X267815Y360445D02*
D03*
X272736D02*
D03*
X391634Y329331D02*
D03*
X386713D02*
D03*
X412697Y225590D02*
D03*
X407776D02*
D03*
X394783Y165945D02*
D03*
X389862D02*
D03*
D69*
X200492Y22736D02*
D03*
X118898Y38386D02*
D03*
D70*
X192618Y23524D02*
D03*
Y16043D02*
D03*
X200492D02*
D03*
X118898Y31693D02*
D03*
X111024D02*
D03*
Y39173D02*
D03*
D76*
X503150Y181890D02*
D03*
D78*
X237008Y126378D02*
D03*
X229921D02*
D03*
D95*
X104724Y342421D02*
D03*
Y347441D02*
D03*
Y336614D02*
D03*
X411713Y27067D02*
D03*
Y22047D02*
D03*
Y32874D02*
D03*
X416535Y191634D02*
D03*
Y180807D02*
D03*
Y185827D02*
D03*
Y174803D02*
D03*
Y163976D02*
D03*
Y168996D02*
D03*
X383858Y191634D02*
D03*
Y180807D02*
D03*
Y185827D02*
D03*
Y174803D02*
D03*
Y163976D02*
D03*
Y168996D02*
D03*
X430217Y35827D02*
D03*
Y25000D02*
D03*
Y30020D02*
D03*
D97*
X445374Y37992D02*
D03*
X450394D02*
D03*
X439567D02*
D03*
D110*
X227067Y319783D02*
D03*
X234154D02*
D03*
D114*
X114961Y357913D02*
D03*
Y370039D02*
D03*
D115*
X254724Y380709D02*
D03*
X246063D02*
D03*
D116*
X205512Y119291D02*
D03*
Y127953D02*
D03*
X451181Y105512D02*
D03*
Y114173D02*
D03*
X127067Y122244D02*
D03*
Y130905D02*
D03*
D117*
X251969Y121260D02*
D03*
Y128347D02*
D03*
X197835Y84646D02*
D03*
Y77559D02*
D03*
D118*
X218504Y65354D02*
D03*
X214567D02*
D03*
X197244Y71653D02*
D03*
X201181D02*
D03*
X102657Y39370D02*
D03*
X106594D02*
D03*
D137*
X126339Y20679D02*
D03*
X103583D02*
D03*
D138*
X131968Y6309D02*
D03*
X97953D02*
D03*
D139*
X131968Y22766D02*
D03*
X97953D02*
D03*
D140*
X230591Y28346D02*
D03*
X220590D02*
D03*
X495768Y135079D02*
D03*
Y145079D02*
D03*
Y155079D02*
D03*
X24016Y123071D02*
D03*
Y133071D02*
D03*
Y143071D02*
D03*
X28346Y81890D02*
D03*
Y61890D02*
D03*
X272441Y6811D02*
D03*
Y16811D02*
D03*
X367717Y6024D02*
D03*
Y16024D02*
D03*
X412205Y95118D02*
D03*
Y105118D02*
D03*
Y115118D02*
D03*
Y65118D02*
D03*
Y75118D02*
D03*
Y85118D02*
D03*
X479410Y354331D02*
D03*
X489409D02*
D03*
X499409D02*
D03*
X449409D02*
D03*
X459410D02*
D03*
X469410D02*
D03*
X201457Y7972D02*
D03*
X191457D02*
D03*
X181457D02*
D03*
X211457D02*
D03*
X356004Y26083D02*
D03*
Y16083D02*
D03*
Y6083D02*
D03*
D141*
X335335Y172343D02*
D03*
X27461Y228642D02*
D03*
D142*
X322146Y200492D02*
D03*
X40650D02*
D03*
D143*
X72736Y231988D02*
D03*
X290059Y168996D02*
D03*
D144*
X40256D02*
D03*
X322539Y231988D02*
D03*
D145*
X181398Y200492D02*
D03*
D146*
X24213Y282087D02*
D03*
X24213Y254331D02*
D03*
X42717Y335630D02*
D03*
Y299606D02*
D03*
D147*
Y282087D02*
D03*
X42717Y254331D02*
D03*
X24213Y335630D02*
D03*
Y299606D02*
D03*
D148*
X121850Y94784D02*
D03*
X461417Y378740D02*
D03*
X469291Y18110D02*
D03*
X149606Y253937D02*
D03*
X144095Y9055D02*
D03*
X279528Y144882D02*
D03*
X237795Y346850D02*
D03*
X505905Y135433D02*
D03*
X114961Y180315D02*
D03*
X79921Y279921D02*
D03*
X191732Y67716D02*
D03*
X16142Y317520D02*
D03*
X368898Y208268D02*
D03*
X161811Y177165D02*
D03*
D149*
X315748Y14110D02*
D03*
X310748D02*
D03*
X305748D02*
D03*
X300748D02*
D03*
X295748D02*
D03*
X315748Y9110D02*
D03*
X305748D02*
D03*
X300748D02*
D03*
X310748D02*
D03*
X295748D02*
D03*
X320748D02*
D03*
Y14110D02*
D03*
X325748Y9110D02*
D03*
Y14110D02*
D03*
D150*
X239764Y148819D02*
D03*
Y143701D02*
D03*
D151*
X498917Y189784D02*
D03*
Y174980D02*
D03*
X237382Y16831D02*
D03*
X252185D02*
D03*
D152*
X280098Y250445D02*
D03*
Y260445D02*
D03*
Y270445D02*
D03*
Y280445D02*
D03*
Y290445D02*
D03*
Y300445D02*
D03*
Y310445D02*
D03*
Y380445D02*
D03*
Y370445D02*
D03*
Y360445D02*
D03*
Y350445D02*
D03*
Y340445D02*
D03*
Y330445D02*
D03*
Y320445D02*
D03*
Y390445D02*
D03*
X420098Y250445D02*
D03*
Y320445D02*
D03*
Y310445D02*
D03*
Y300445D02*
D03*
Y290445D02*
D03*
Y280445D02*
D03*
Y270445D02*
D03*
Y260445D02*
D03*
Y330445D02*
D03*
Y340445D02*
D03*
Y350445D02*
D03*
Y360445D02*
D03*
Y370445D02*
D03*
Y380445D02*
D03*
Y390445D02*
D03*
D153*
X23622Y376378D02*
D03*
X492126Y376378D02*
D03*
X492126Y23622D02*
D03*
X23622Y23622D02*
D03*
D154*
X334646Y124409D02*
D03*
D155*
X295276D02*
D03*
D156*
X305118D02*
D03*
D157*
X505748Y66791D02*
D03*
Y74665D02*
D03*
Y82539D02*
D03*
Y90413D02*
D03*
Y98287D02*
D03*
Y106161D02*
D03*
Y114035D02*
D03*
Y121909D02*
D03*
X442756Y66791D02*
D03*
Y74665D02*
D03*
Y82539D02*
D03*
Y90413D02*
D03*
Y98287D02*
D03*
Y106161D02*
D03*
Y114035D02*
D03*
Y121909D02*
D03*
D158*
X493898Y256004D02*
D03*
Y263878D02*
D03*
Y271752D02*
D03*
Y279626D02*
D03*
Y287500D02*
D03*
Y295374D02*
D03*
Y303248D02*
D03*
Y311122D02*
D03*
X439764Y256004D02*
D03*
Y263878D02*
D03*
Y271752D02*
D03*
Y279626D02*
D03*
Y287500D02*
D03*
Y295374D02*
D03*
Y303248D02*
D03*
Y311122D02*
D03*
D303*
X104331Y129527D02*
D03*
X63583Y144095D02*
D03*
D304*
X146604Y336860D02*
D03*
D305*
X136221Y62205D02*
D03*
D306*
X103100Y116093D02*
D03*
D307*
X50148Y154232D02*
D03*
D308*
X47638Y142717D02*
D03*
D309*
X80315Y91732D02*
D03*
D310*
X92913Y344980D02*
D03*
Y340059D02*
D03*
D311*
X49016Y321654D02*
D03*
X41535D02*
D03*
Y313779D02*
D03*
X53347Y264370D02*
D03*
Y272244D02*
D03*
X60827D02*
D03*
X340354Y10630D02*
D03*
X347835D02*
D03*
Y18504D02*
D03*
D312*
X48228Y313779D02*
D03*
X60039Y264370D02*
D03*
X341142Y18504D02*
D03*
D313*
X331004Y200492D02*
D03*
X31791D02*
D03*
D314*
X18012D02*
D03*
X344783D02*
D03*
D315*
X290638Y366229D02*
D03*
X296763Y372354D02*
D03*
D316*
X293057Y380458D02*
D03*
X288046Y375447D02*
D03*
D317*
X260630Y146260D02*
D03*
D318*
X113779Y6693D02*
D03*
X125591D02*
D03*
D319*
X85039Y27559D02*
D03*
Y6299D02*
D03*
D320*
X354331Y124409D02*
D03*
X283465D02*
D03*
M02*
